<?xml version="1.0" encoding="UTF-8" standalone="no"?><svg xmlns="http://www.w3.org/2000/svg" xmlns:xlink="http://www.w3.org/1999/xlink" data-name="Layer 2" fill="#000000" height="1601.2" preserveAspectRatio="xMidYMid meet" version="1" viewBox="299.5 205.2 1399.4 1601.2" width="1399.4" zoomAndPan="magnify"><g id="change1_1"><path d="M1213.52,1806.41H495.26c-108,0-195.79-87.83-195.79-195.79V739.37c0-108,87.83-195.79,195.79-195.79h158.9a59.5,59.5,0,0,1,0,119H495.26a76.88,76.88,0,0,0-76.79,76.79v871.25a76.88,76.88,0,0,0,76.79,76.79h718.26a76.88,76.88,0,0,0,76.79-76.79V1411a59.5,59.5,0,0,1,119,0v199.62C1409.31,1718.58,1321.48,1806.41,1213.52,1806.41Z" fill="#f4f1e8"/></g><g id="change1_2"><path d="M1698.88,604.78,1335.7,205.31H792.57a185.36,185.36,0,0,0-132.85,55.57C625,296.09,606,343.87,606,393.34v871.58a185.4,185.4,0,0,0,55.57,132.85c35.21,34.74,83,53.75,132.46,53.75h718.29A185.4,185.4,0,0,0,1645.14,1396c34.74-35.21,53.75-83,53.75-132.46V604.78ZM1438.75,951.84a109.5,109.5,0,0,1-109.47,108h-1.53l-64.17-.89-.89,64.17a109.5,109.5,0,0,1-109.47,108h-1.53a109.63,109.63,0,0,1-108-111l.89-64.16-64.17-.89a109.5,109.5,0,0,1,1.51-219h1.54l64.16.89.89-64.17a109.5,109.5,0,0,1,109.47-108h1.53a109.5,109.5,0,0,1,108,111l-.89,64.16,64.17.89a109.5,109.5,0,0,1,108,111Zm-13.57-397.51a39.08,39.08,0,0,1-39-39V335.79l198.69,218.54Z" fill="#f4f1e8"/></g><g id="change1_3"><path d="M1330.09,890.83l-114.16-1.58,1.58-114.17a59.5,59.5,0,0,0-58.67-60.32H1158a59.51,59.51,0,0,0-59.48,58.67l-1.58,114.17L982.78,886h-.84a59.5,59.5,0,0,0-.81,119l114.16,1.58-1.58,114.17a59.5,59.5,0,0,0,58.67,60.32h.84a59.51,59.51,0,0,0,59.48-58.67l1.58-114.17,114.16,1.59h.84a59.5,59.5,0,0,0,.81-119Z" fill="#f4f1e8"/></g></svg>