<?xml version="1.0" encoding="UTF-8"?><svg xmlns="http://www.w3.org/2000/svg" xmlns:xlink="http://www.w3.org/1999/xlink" height="31.7" preserveAspectRatio="xMidYMid meet" version="1.0" viewBox="-0.2 0.1 32.4 31.7" width="32.4" zoomAndPan="magnify">
 <defs>
  <linearGradient gradientUnits="userSpaceOnUse" id="A" x1="811.53" x2="665.26" xlink:actuate="onLoad" xlink:show="other" xlink:type="simple" xmlns:xlink="http://www.w3.org/1999/xlink" y1="574.9" y2="573.73">
   <stop offset="0" stop-color="#366a96"/>
   <stop offset="1" stop-color="#3679b0"/>
  </linearGradient>
  <linearGradient gradientUnits="userSpaceOnUse" id="B" x1="862.82" x2="573.28" xlink:actuate="onLoad" xlink:show="other" xlink:type="simple" xmlns:xlink="http://www.w3.org/1999/xlink" y1="642.18" y2="642.18">
   <stop offset="0" stop-color="#ffc836"/>
   <stop offset="1" stop-color="#ffe873"/>
  </linearGradient>
 </defs>
 <g transform="matrix(.1617 0 0 .15809 -107.54 -81.662)">
  <path d="m716.26 544.49c0-13.623 3.653-21.034 23.822-24.563 13.693-2.4 31.25-2.7 47.627 0 12.935 2.135 23.822 11.77 23.822 24.563v44.945c0 13.182-10.57 23.98-23.822 23.98h-47.627c-16.164 0-29.787 13.782-29.787 29.363v21.564h-16.376c-13.852 0-21.917-9.988-25.305-23.964-4.57-18.776-4.376-29.963 0-47.945 3.794-15.687 15.917-23.964 29.77-23.964h65.52v-6h-47.645v-17.98z" fill="url(#A)"/>
  <path d="m811.53 688.32c0 13.623-11.823 20.523-23.822 23.964-18.052 5.188-32.54 4.394-47.627 0-12.6-3.67-23.822-11.17-23.822-23.964v-44.945c0-12.935 10.782-23.98 23.822-23.98h47.627c15.864 0 29.787-13.71 29.787-29.963v-20.964h17.858c13.87 0 20.4 10.305 23.822 23.964 4.764 18.97 4.976 33.157 0 47.945-4.817 14.364-9.97 23.964-23.822 23.964h-71.46v6h47.627v17.98z" fill="url(#B)"/>
  <g id="change1_1"><path d="m728.17 541.5c0-4.976 3.988-9 8.93-9 4.923 0 8.93 4.023 8.93 9 0 4.96-4.006 8.982-8.93 8.982-4.94 0-8.93-4.023-8.93-8.982zm53.59 149.8c0-4.96 4.006-8.982 8.93-8.982 4.94 0 8.93 4.023 8.93 8.982 0 4.976-3.988 9-8.93 9-4.923 0-8.93-4.023-8.93-9z" fill="#fff"/></g>
 </g>
</svg>