<?xml version="1.0" encoding="UTF-8"?><svg xmlns="http://www.w3.org/2000/svg" xmlns:xlink="http://www.w3.org/1999/xlink" height="36.3" preserveAspectRatio="xMidYMid meet" version="1.0" viewBox="5.6 11.8 108.9 36.3" width="108.9" zoomAndPan="magnify">
 <g id="change1_1"><path d="m39.8 30.787h0.998c1.815 0 2.5 0.908 2.5 2.723 0 1.785-0.605 2.723-2.2 2.723h-1.27v-5.446zm0-7.292h1.15c1.362 0 1.997 0.847 1.997 2.5 0 1.483-0.877 2.27-2.057 2.27h-1.12v-4.78zm-3.056 15.28h4.84c3.48 0 4.78-2.2 4.78-5.144 0-2.3-0.908-3.5-2.45-4.206 1.483-0.605 2.118-2.178 2.118-3.722 0-3.026-1.452-4.7-4.72-4.7h-4.538v17.76z" fill="inherit" fill-rule="evenodd"/></g>
 <g id="change1_2"><path d="m47.545 38.774h2.755v-17.8h-2.753zm10.135-13.252v10.378c-0.635 0.454-1.18 0.847-1.785 0.847s-0.998-0.303-0.998-0.968v-10.257h-2.753v10.7c0 1.725 0.847 2.784 2.3 2.784 1.604 0 2.178-0.605 3.358-1.573v1.33h2.602v-13.25z" fill="inherit"/></g>
 <g id="change1_3"><path d="m64.882 30.393v-0.696c0-1.513 0.545-2.178 1.513-2.178 0.998 0 1.513 0.635 1.513 2.178v0.696zm5.84-0.212c0-2.905-1.12-4.932-4.296-4.932-3.147 0-4.296 2.027-4.296 4.932v3.903c0 2.905 1.12 4.932 4.296 4.932 3.086 0 4.236-1.906 4.296-4.72h-2.752v0.303c0 1.513-0.545 2.178-1.513 2.178-0.998 0-1.513-0.635-1.513-2.178v-1.906h5.8v-2.5z" fill="inherit" fill-rule="evenodd"/></g>
 <g id="change1_4"><path d="m73.143 27.8v8.26c0 2.027 1.15 2.965 3.237 2.965 0.696 0 0.998-0.06 1.392-0.15v-2.36h-0.908c-0.635 0-0.938-0.393-0.938-1.1v-7.615h1.846v-2.27h-1.846v-3.57h-2.753v3.57h-1.513v2.27z" fill="inherit"/></g>
 <g fill-rule="evenodd">
  <use xlink:actuate="onLoad" xlink:href="#A" xlink:show="embed" xlink:type="simple" xmlns:xlink="http://www.w3.org/1999/xlink"/>
  <use x="10.015" xlink:actuate="onLoad" xlink:href="#A" xlink:show="embed" xlink:type="simple" xmlns:xlink="http://www.w3.org/1999/xlink"/>
 </g>
 <g id="change1_5"><path d="m99.83 27.8v8.26c0 2.027 1.15 2.965 3.237 2.965 0.696 0 0.998-0.06 1.392-0.15v-2.36h-0.908c-0.635 0-0.938-0.393-0.938-1.1v-7.615h1.846v-2.27h-1.846v-3.57h-2.75v3.57h-1.513v2.27zm9.076 10.984v-10.418c0.635-0.454 1.18-0.847 1.785-0.847s0.998 0.303 0.998 0.968v10.287h2.753v-10.7c0-1.725-0.847-2.784-2.3-2.784-1.604 0-2.178 0.605-3.207 1.483v-5.75h-2.753v17.76z" fill="inherit"/></g>
 <g fill-rule="evenodd" transform="matrix(.42660 0 0 .42660 5.5563 11.848)">
  <g id="change2_1"><ellipse cx="31.4" cy="42.2" fill="#fff" rx="24.3" ry="40.2"/></g>
  <g id="change3_1"><path d="m34.8 21l7 7-7 7zm0 43.1l7-7-7-7zm-7.5-21.5l-15.2-15.3 4.4-4.4 12.1 12.1v-29l22 22-14.5 14.6 14.6 14.6-22 22v-29.1l-12.2 12.1-4.4-4.4zm4.1 42.5c18.6 0 31.4-8.8 31.4-42.6 0-33.7-12.8-42.5-31.4-42.5s-31.4 8.8-31.4 42.6c0 33.7 12.8 42.5 31.4 42.5z" fill="#0082fc"/></g>
 </g>
 <defs>
  <path d="m84.7 34.57c0 1.513-0.545 2.178-1.513 2.178-0.998 0-1.513-0.635-1.513-2.178v-4.87c0-1.513 0.545-2.178 1.513-2.178 0.998 0 1.513 0.635 1.513 2.178zm-5.8-0.484c0 2.905 1.12 4.932 4.296 4.932 3.147 0 4.296-2.027 4.296-4.932v-3.903c0-2.905-1.12-4.932-4.296-4.932-3.147 0-4.296 2.027-4.296 4.932z" id="A"/>
 </defs>
</svg>