<?xml version="1.0" encoding="UTF-8" standalone="no"?><svg xmlns="http://www.w3.org/2000/svg" xmlns:xlink="http://www.w3.org/1999/xlink" fill="#000000" height="78" preserveAspectRatio="xMidYMid meet" version="1" viewBox="-0.4 -0.3 305.4 78.0" width="305.4" zoomAndPan="magnify"><g id="change1_1"><path d="M304.2,1l0.2-0.7c0.4-0.2,0.6,0.2,0.5,0.4L304.2,1z M301.7,0c-0.5,0.4-1,1.1-0.6,1.6c0.4-0.7,0.6-0.5,1-1.3 c0.4-0.2,0.8,0.1,0.8,0.3c0.1-0.2,0.7,0,0.9-0.4c-0.7-0.4-1.4-0.3-2.1,0.2C301.6,0.4,301.7,0.2,301.7,0z M257.8,6.6l0.3,0 C258,6.6,257.9,6.6,257.8,6.6z M230.7,11.3c0.2-0.1,0.3-0.1,0.3-0.2C230.8,11.2,230.7,11.3,230.7,11.3z M226,11.5c0.1,0,0.2,0,0.3,0 C226.2,11.5,226,11.4,226,11.5z M257.8,6.6l-0.8-0.1C257.1,6.7,257.5,6.6,257.8,6.6z M295.9,2.6c0.1-0.1,0.3-0.1,0.4-0.2 c-0.1,0-0.2,0.1-0.4,0.1C295.9,2.6,295.9,2.6,295.9,2.6z M269.7,3.9l0.2,0c0.1-0.1,0.1-0.2,0.1-0.3L269.7,3.9z M278.8,2.2 c-0.2,0-0.2,0.6-0.2,0.8c0.1-0.2,0.2-0.4,0.4-0.5C278.9,2.5,278.9,2.4,278.8,2.2z M293.5,0.7l0.2-0.1C293.7,0.6,293.6,0.7,293.5,0.7 z M263.1,5c0-0.1-0.1-0.1-0.1-0.2C263,4.8,263,4.9,263.1,5z M11.4,69.4C11.4,69.4,11.3,69.3,11.4,69.4 C11.3,69.4,11.3,69.4,11.4,69.4z M0.2,69.8l0.1-0.1c0-0.1,0-0.2-0.1-0.3L0.2,69.8z M217.4,12.5C217.4,12.5,217.4,12.5,217.4,12.5 C217.7,12.4,217.6,12.4,217.4,12.5z M140.4,29.7c1,0.3-1.3,1,0.2,1.2C140.4,30.8,141.6,29.8,140.4,29.7z M295.7,2.6 c-0.1,0-0.2,0.1-0.4,0.1C295.5,2.6,295.6,2.6,295.7,2.6z M140.6,30.9L140.6,30.9l0.1,0C140.7,31,140.7,31,140.6,30.9z M198.1,16.8 c0.1,0.1,0.2,0.1,0.2,0.2C198.3,17,198.3,16.9,198.1,16.8z M212.7,14.6l-0.4,0C212.5,14.6,212.6,14.6,212.7,14.6z M190.8,19.2 c-0.2,0-0.3-0.1-0.5,0.1c0,0,0.1,0,0.1,0.1C190.4,19.2,190.5,19.1,190.8,19.2z M183,20.8c0.1,0,0.1,0.1,0.2,0.1 c0.1,0,0.2-0.1,0.2-0.1L183,20.8z M34.5,62.3c-0.2-0.1-0.4-0.2-0.5-0.4C34.2,62.3,33.1,62.8,34.5,62.3z M295.9,2.3 c0,0.1-0.1,0.2-0.2,0.3c0.1,0,0.2,0,0.3-0.1C295.9,2.4,295.9,2.4,295.9,2.3z M191.4,23.6l-1.3,0.2C190.5,23.7,190.9,23.6,191.4,23.6 z M89.5,47.2l-0.3,0.1C89.4,47.3,89.5,47.2,89.5,47.2z M186.5,24.6c-0.3-0.1-0.5-0.2-0.8-0.2c0,0.1-0.1,0.1-0.1,0.2L186.5,24.6z M34,61.9L34,61.9L34,61.9z M26.7,64.8c-1.1,0.6-0.4,0-1.6-0.2c-0.4,0.7-1.2,0.1-1,1.1c-0.6-0.5-0.4-0.3-1.2-0.6 c0.5,0.4-1.2,0.9-1,1.5c-0.5-0.6,1-1.2-0.2-1.7c-0.5,0.6-1.6,1.2-1.5,1.9c-0.5,0-0.8-0.2-1.6-0.1c0.1,0,0.2-0.2,0.3-0.3 c-1.2,0.9-3.3,1-3.8,2.1c0-1.2-2.9,0.7-2.2-0.6c-0.6,0.2-1.3,0.9-1.4,1.2c-0.2-0.9-1.5,0.2-2.2-0.1c-0.2,0.6-1.2,0.7-1.8,1.2 c0.2-0.2,0.3-0.4,0.2-0.6C6.9,70.3,7,70,6.3,69.7c-0.9,0.5,0.4,0.6-0.1,1.2c-0.9,0-0.3-0.5-0.5-0.8l-0.9,1.2c-0.3,0-0.5-0.1-0.7-0.3 c-0.3,0.4-0.6,0.8-1.3,0.6l1-0.3l-0.5-0.3l-1.1,0.9c-2-0.1-1.7-1.2-1.8-2.1L1,69.4c-0.1-0.3-0.7-0.3-1-0.2c-0.4-0.1,0.9-1.3,1.6-1.7 c2.1-0.6,0.8,0.9,2.3,0.7l1.7-1.1l0.1,0.3c0.4,0.1,0.4-0.3,0.5-0.4c0,0.5,1.6-0.3,2.4-0.5l-0.4-0.3c1.8-1.6,3.6,0,5.2-1l1-1l0.4,0.5 c0.6-0.6,0.6-1,1.8-1.2c4.3-0.2,8.2-2.6,12.4-3.2c-0.1-0.1-0.2-0.1-0.5-0.1c4,0.4,5.1-3.1,8.7-2.9L37,57.6c1.6-0.6-0.2,0.3,1.1,0.3 c0-0.8,1.9-1.1,2.8-1.7c-0.1,0.2-0.4,0.3-0.7,0.4c0.2,0.1,0.4,0.5,0.8,0.2c0.8-1.3,3-1.8,4.6-2.6c0.3,0.4,1.9,0.4,2.8,1 c0.1-0.2,0.3-0.7,0.5-1.1c0.7,0.1,1.1-0.2,1.4-0.6c-0.5,0.2-1,0.3-1.3,0.4c0,0,0,0,0-0.1c0,0-0.1,0.1-0.2,0.1 c-0.4,0.1-0.5,0.2-0.4,0.2c-0.8-0.3-0.1-0.4-0.3-0.9c0.5-0.1,1.6-0.6,1.9-0.3C50.4,53,50.6,53,51,53c0.2-0.1,0.4-0.2,0.6-0.3 l-0.1,0.1c0.1,0.1,0.1,0.1,0.2,0.1c1.1-0.1,2.4-1.3,3.2-1.9c-0.7,0.9,0.4,0.7,0.6,1.2c0.1-0.1-1,0.2-2.4,0.6c0.1,0,0.2,0.1,0.3,0.3 c1.3,0.2,1.9-1,3.7-1.1c-0.1,0.1-0.3,0.3-0.1,0.4c0.6,0,1.1-0.6,1.1-0.9c0.3,0.4,1.7,0.4,2.2,0.1c0.4-0.6,0.3-0.7,1.3-0.9L61.3,51 c1.3,0,0.8-0.8,1.9-0.8c-0.4,0-0.4,0.3-0.1,0.3c1.2-0.5,1.2-0.7,1.9-1.7l0,0.6c1-0.6,2.8-1.8,3-1.1c-0.6-1,2.2-1.2,3.1-1.4 c-0.3,0.1-0.3,0.4-0.3,0.5c1.7-1.3,3.9-1.1,5.9-1.6l0.5,0.7c1-0.3,0.9-2,2-2.3L79,44.8c2-0.7,2.8-0.8,4.5-1.1l0.1,0.6 c0.5-0.4,1.2-0.6,1.8-1c1.7,1,5.1-2.1,7.9-1.2L93.1,41c0.9-0.2,2.1-0.7,2.7-0.1l-0.2,0c0.1,0.8,0.9-0.2,1.6-0.2 c0.4-0.2,0.7-0.8,0.3-0.9c2.6-0.1,6.1-1.6,7.9-1c2.4-1,4-2.2,6.7-2.8l0,0.1c0.9-0.1,2.8-0.3,3,0.6c1.9-0.7,2.8-2.1,5.2-2.3l-0.4,0.4 c0.6,0,1.5-0.6,1.7-0.8c0.2,0,0.1,0.2,0.1,0.3c0.6,0.2,0.8-0.4,1.3-0.6l-0.1,0.3c2,0.1,4.6-1.7,7-2.2c-0.4,0.2-0.1,0.5,0.1,0.6 c0.7-1.2,3.4-1.6,4.4-2.1l-0.5,0.5c1.8-1.1,1.9,0.6,3.7-0.5l-1.2-0.3c0.8,0,1.4-0.4,1.1-0.7c1,0.1,0.3,0.7,1.7,0.5 c0.1,0.3-0.9,0.4-0.4,0.7l2.1,0.3c0.1,0.1,0.3,0,0.9-0.2c-0.4-1.2,1.6-0.4,0.3-1.4c2.7-0.7,5.1-0.5,7.3-1.6c1.2,0.9,4.6-1,4.7,0.5 c1.3-0.3,2.3-0.8,3-1.6c-0.3-0.1-0.6,0.2-0.8,0.3c0.3-0.5,1.8-0.9,2.5-1c-0.8,0.5-2.1,1.1-2.6,1.9c1.1-0.4,2.7-1.3,3.3-1.7l0.5,0.7 c0.9-0.8,1,0.4,1.8-0.6l-0.2-0.2c1.8-0.4,1.7-1.1,3.4-1.6l0,0.3c0.6,0,1.3-0.9,2-0.4l-1.1,0.3c0.2,0.5,1.1,0.6,1.6,0.7 c1.1-0.4,0.2-1,0.8-1.2c0.4,0.4,0.1,0.3-0.2,0.8c1.3-0.5,3-1.1,3.8-1.9c0.1,0.1,0,0.2,0,0.2c1.4-0.2,2.4-1.4,3.3-1.1l-0.2,0.1 c1.3,0.5,2.7-1.3,3.2-0.1c0.6,0.1-1.2,0.2-0.2,0.6c1.7,0,0.8-1.3,2.4-1.3c-0.2,0-0.1,0.1-0.2,0.2c1-0.3,2.4-0.7,3.5-1.1 c1.6,0.7,4.2-1.2,6.1-0.3c-0.6-0.3,0.3-0.6,0.3-0.8c0,0,0,0.1,0,0.2c0.6-0.1,0.6-0.5,0.8-0.7c0.6,0.3,1.5-0.7,1.9-0.6 c0-0.3,0.4-0.3,1-0.4c-1,0.5-0.2,0.6-0.6,1.2c1.6-0.2,1.6-1.6,3.2-1.7l1,0.3c0-0.8,1.6-0.8,1.5-1.1c0.3,0.2,0.8,0.2,0.8,0.6 c0.6-0.3,1.7-0.1,1.9-0.6l-0.7-0.1c2.1-0.1,3.1-1.5,4.7-1.3l0.2,1.2c1.1,0.3,1.8-1,2.8-0.5c-0.4-0.3-0.4-0.2,0.1-0.7 c-0.4,0-1.1,0.5-1.7,0.6l1.3-1l-2.1,0.8c0.8-0.7,0.8-0.5,0.3-0.9c1.2-0.6,1.5,0.3,2.7-0.5c0.5,0.1,0.1,0.6,0.7,0.7 c1-0.6,2.3,0.4,3-0.4c0.3,0.1-0.5,0.1-0.3,0.4c0.7-0.3,1.2-0.3,1.4-0.7l-0.6,0c0.6-0.1,0.5-0.6,1.6-0.5c0.5-0.4,0.8-1,0.1-0.9 c0.3-0.1,0.9,0.1,0.8,0.5c1.6-0.3,0.5-1.4,2.2-1.2c-0.1,0.1-0.2,0.1-0.1,0.2c0.4,0,0.7-0.1,1-0.2c-1.4,0.4,0.6,0.8-1.1,1 c0.3,0.6,1.3-0.1,1.8,0c0.7-0.6-0.1-0.9,0.3-1.3c0,0.2,0.4,0.1,0.8,0.1l-0.5-0.4c0.3-0.1,0.7-0.1,1-0.3l-0.6,0.3 c0.7-0.1,2,0.5,3.2-0.2c-0.3,0.3-0.9,0.8,0,0.8c1.3-0.6,0.4,0.1,1.2,0.3c1.4-0.4,0.1-0.9,2.2-1c0.2,0,0-0.3-0.3-0.4 c1.4-0.1,2.1-0.5,3.5-0.4c-0.6,0-1.1-0.1-0.3-0.5c-0.3,0.4,1.2,0.1,1.7,0.3l0.1-0.3c0.5,0.2,0,0.4-0.3,0.5c0-0.1-0.1-0.1-0.4-0.1 c-0.6,0.3-0.2,1.2,0.9,1c1.1-0.4,0.8-1,0.5-1.2c1.6,0,1.2-1.3,2.7-1.3c0.3-0.1,1.6,0.7,2.7,0.6c0.4-0.6-1.4-0.1-0.9-0.7 c2,1,3.4-1.5,5.9-1.1L242.2,9c0.5-0.1,1.1-0.1,1.7-0.3L243,8.5c0.5-0.3,1.8-0.4,1.5,0.2c1.1-0.8,1.4-0.5,2.6-0.5 c-1.2,0.2,0-0.1-0.8,0.4c1.3,0.1,1.4-0.1,2.2-0.5c-0.1,0.3,0.4,0.5,0.8,0.5c0.7-0.6,2.1-0.7,3.2-1.2l0,0.2c1.8-0.6,4.1-0.1,5.8-1 l0,0l0,0c0,0,0.1,0,0.1,0l-0.2,0c-0.8-0.5,1.4-0.7,1.9-1.1c0.2,0.1,0.3,0.4,0.6,0.3c-0.1-0.6,0.7-0.4,0.9-0.8c0.7,0.1,0,0.7,1.2,0.5 c0.4-0.1,0.4-0.4,0.3-0.7c0.3,0.3,1,0.4,1.6,0.3c-0.2,0.2-0.5,0.1-0.7,0.1c0,0.3,0.4,0.1,0.4,0.5c0.5-0.1,0.1-0.6,0.8-0.5L264.8,6 c0.3,0.1,0.6-0.2,0.7-0.2c-0.4,0.2-0.2,0.6-0.1,0.9c1.5-0.6,0.1-1.3,0.1-1.8c1.5,0.1,2.5-0.7,3.7-0.9l-0.1,0.6 c0.5-0.2,0.8-0.3,0.9-0.6l0.8-0.2c-0.5,0.3-0.6,0.5-0.5,0.9c0.9-0.3,2.1-0.4,2.2-1.1l0,0.1c1.2,0.1,3.8-0.2,3.7,0 c1.2-0.5,2.9-0.3,2.9-1.1c0.7-0.3,2.1,0.6,2.5-0.4c1,0.3,0.1,0.2-0.1,0.8c1,0.3,1.7-1.1,2.2-0.1c1-0.5-0.3-0.2,0-0.7 c0.4,0.9,2-0.2,3.1,0.2c0.4-0.5-0.5-0.2,0.2-0.7c0,0.3,0.4,0.2,0.6,0.2l0.1-0.6l1.3,1.3c1.4-1-0.5-1,1.5-1.6L290.2,1 c0.6,0.5,1.3-0.7,2.9-0.5c-0.5,0-0.2,0.3-0.3,0.5l0.8-0.4c-0.1,0-0.1,0.1,0,0.1c0.8,0.3,0.6-0.3,1.5-0.1c-0.5,0.2-0.3,0.6,0,0.8 l1.1-0.9l-0.3,0.9c1.2-0.1,2.6-1.7,3.4-0.7l-0.5,0.2c0.1,0.2,0.5,0.7,1.2,0.2c0.2-0.1,0.3-0.6,0-0.6l0.6,0.1c-0.2,0.6-1.6,1-2.5,1.3 c0.2-0.3,0.9-0.6,0.6-0.9c-0.8,0.3-1.5,0.8-2.2,1.1c0.3-0.3,0.4-0.6,0.5-0.9c-0.9-0.1-0.6,0.5-1.2,0.6c-0.3-0.2-0.5-0.3-0.3-0.5 c-0.8,0.4-1.4,0.5-2.3,0.4c0,0,0.9-0.6,0.3-0.8c-1.5,0.6-1.7,1.3-3.4,1.9c-1.8,1.2-3.9,0.1-5.2,1c0,0.3,1.1,0.2,0.2,0.6 c0.1-0.5-0.6-0.2-0.7-0.4c-0.9,0.9-1.5,0.1-2.1,0.7c0.1-0.2-0.5-0.3-0.9-0.4c0-0.6-1.1-0.1,0.2-1.1c-1.3,1.2-2.6,0.2-3.5,1.8 l0.4,0.1l-1.5,0l0.1,0c-0.7,0-0.7,0.2-1.7-0.3c0.3-0.2,0.9-0.3,1.2-0.5c-0.9-0.4-1.5,0.7-2.4,0.9c0-0.4,0.9-0.3,0.5-0.8 c-0.6,0-1.1,0.4-1.6,0.7l0-0.3c-1.6-0.3-0.4,1.3-1.6,0.7c0.1,0.1-0.1,0.3,0,0.4c-0.5-0.2-1.5-0.4-0.6-0.9c-0.5,0.1-1.1,0.4-1.3,0.7 c0.5,0.3,0.6,0.1,0.8,0.5l-2.1,0.6c-0.2,0,0.1-0.3,0.4-0.3c-2.7-0.8-4.9,2-8,1c0.4,0.3-0.1,0.4-0.4,0.7c-0.9,0-2.3,0.4-3.2,0.3 l0.2-0.3c-2.1,0.7-3.5,1.4-5,1.5c0,0.1-0.1-0.4,0.2-0.5c-1,0.7-2.5-0.6-2.6,0.5l0.4,0c-2.1,0.2-4.3,1.4-6.5,1.9 c-0.6-0.5,1.2-0.3,0.7-1c-1.6,0-3,0.9-4.7,1c0.3-0.1,0.2-0.2,0.3-0.3c-1.7-0.1,0.3,0.6-1.1,0.8c0-0.3-0.1-0.4-0.6-0.5l-0.3,0.6 c-0.1-0.1-0.1-0.5,0-0.6c-0.5,0.8-2.4,0.7-2.8,1.4c-0.2-0.1,0.1-0.8-0.2-1c-0.8,0-1.2,0.3-1.7,0.6l0,0c-0.6-0.3-1.8,0-1.6-0.2 c-1.4,0-0.1,0.4-1.1,1l1.1,0.1l-1.8,0.5l0.7-0.4c-0.9-0.1-1.7,0.6-2.6,0.8l0.5,0.3l-1.1,0.4c-0.3-0.7-1.5,0.1-1-0.8 c-2.2,0.1-3.3,1.3-5.2,1.7c0.3-0.1,0.2-0.2,0.2-0.3c-1.1,0.1-1.7,0.6-2.3,1.1c0.1-0.3,0.3-0.4,0.3-0.6c-1.3,0.3-0.7,0.6-2.1,1.1 c0.3-0.4,0.2-0.5-0.2-0.5c0.1,0.3-0.2,0.5-0.4,0.6c0.8-1.7-1.7-0.3-1.3-1.6c0,0.3-2.1,1.4-1.4,1.9l0.4-0.2c0.1,0.4-0.4,0.3-0.8,0.5 c0.2-0.1,0.4-0.2,0.4-0.3c-2,0.9-4.2,0.9-6.4,1.7c0.2-0.2,1-0.6,0.4-0.6c-2.3,0.3-3.5,1.3-5.7,2.1c-0.3-0.9,2.5-0.7,2.4-1.6 c-2.4,0.7-4.8,1.6-7.4,2.6c-1.2-1.2-2.5,1.1-4.4,0.4c0.3,0.4-0.5,0.8-1.4,1c0.2-0.4-0.7-0.2-0.5-0.6c-0.7,0.6-3,1.3-3.1,0.3 c0,0.9-1.7,0.3-2.2,1.1c-1.1-0.1-2.1,0.6-3.4,0.7c0.6,0.4-1.2,0.5-1.6,0.9c0.1-0.1,0.4-0.2,0.3-0.3c-0.5-0.4-1.4,0.7-2.1,0.6 c-0.4-0.1,0-0.5-0.6-0.4c0.1,0.4-1.7,1.2-2.5,0.9c0.3-0.1,0.3-0.3,0.5-0.5c-3.2,1.4-6.9,1.4-10.2,2.9l0.5-0.8 c-2.3-0.3-1.2,1.4-2.9,1.7c-4.7,0.7-9.7,0.9-14.1,2.4c-0.3,0.3,0.2,0.2,0.4,0.4c-0.4,0-0.6-0.5-1.1,0l0.2,0.3 c-2.3-0.5-5.8,2-7.7,0.9c-1.8,1-3.4,0.4-5.6,1.8c-0.8-0.1,0.7-0.8-0.3-0.6l-2.1,1.1l0.1-0.1c-1.9,1.6-5.9,0.2-8.4,1.6l0.1-0.1 c0-0.3-0.6-0.4-1-0.2c-0.1,0.2,0.2,0.2,0.5,0.4c-2.3,1-2.8,1.1-4.7,1.7c0.7-0.6-0.8-0.1-1-0.6c-0.4,0.4,0.4,0.4-0.6,1 c-1.6,0.4-3.1,0.4-4.5,0.5c-0.4,0.6-1.1,0.6-1,1.2c-1.8,0.5-2.7,0.9-4.9,1.5l-0.1-0.2c-0.4,0.8-2,0.1-2.3,0.6c0-0.3,0.2-0.4,0.1-0.6 l-0.9,0.5c0.4-0.3,0.5-1-0.3-0.9c-0.7,0.7,0.3,0.3,0,0.8l-0.4-0.6c-0.6,0.2-0.6,1,0.2,1c-2.2,0.5-4.2,1.4-6.2,1.8l0.1-0.5 c-1,0.4-2.5,0.8-3.2,0.6c0,0.1-0.2,0.4,0,0.5c-1.1,0.9-0.3-0.6-1.5,0.3c0.3-0.2,0.7-0.4,0.7-0.7L91.5,47c-0.1-0.3-1.9-0.6-2.9,0 c0,0.2,0.4,0.3,0.7,0.3l-0.7,0.3l-0.7-0.6L87,48l-0.2-0.6c-0.7,0.3-0.8,1.2-1.4,1.3c-2.4,0.2-2-0.1-3.7-0.2c0.1,1.2-2.6,0.6-2.8,1.6 c-2.4-0.3-5.4,1.1-8.3,1.6l0.2-0.2c-1.4-0.2-1.1,1.2-2.5,1.4l0.3-0.3c-1.8-0.2-4.6,1.2-6.1,2.1c0.3-0.3,0-0.6-0.5-0.4 c-0.4,0.3,0.6,0.7-0.3,0.7c0.2-0.2-0.1-0.4-0.3-0.3l-0.7,0.8c-2.4,0.2-5.2,0.6-7.5,1.6c-0.5-0.1-0.2-0.4-0.2-0.6 c-1.9,0.7-3.6,1.7-5.3,2.2L47.4,58c-0.8,0.2-0.2,1.1-1.5,0.9c-0.3,0,0.7-0.2,0.9-0.6c-1.8,0-0.8,0.9-2.4,1.3l0.2-0.9 c-1.4-0.1-1.3,0.8-1.6,1.3c-1.5,1.4-1.6-1.1-3.8,0.2c-0.3,0.5,0.3,0.5,0,1c-1.7,0.3-1.8,0.9-3.5,1.2c-1.2-0.8,0.8-0.2-0.4-1l1.3-0.1 c-1.3-0.3,0.9-0.4,0.6-1c-0.9,0-1.9,1-2.9,1.5c-0.1-0.5,1.2-0.4,0.5-0.9l-0.5,0.4c0.1-0.2,0.1-0.4,0.4-0.5c-0.3-0.4-0.6,0.2-1.2,0.3 c0,0.3,0.2,0.6,0.4,0.9c0,0-0.1-0.1-0.2-0.1c-0.9,1-2.8,1-3.6,1.8c0.1-0.2,0-0.2-0.1-0.3c-0.7,0.2-1.1,1-1.9,1.4 c-0.6-0.2,0-1.2-1.4-0.6c-0.1,0.5,0.7,1-0.5,1.3C26.4,65.5,27.3,64.9,26.7,64.8z M52.4,56.4c0.1,0,0.3-0.1,0.6-0.2c0,0,0,0,0,0 C52.7,56.3,52.5,56.4,52.4,56.4z M54.4,55.4c-0.2,0.1-0.3,0.3-0.1,0.4c0.4-0.1,0.7-0.2,1-0.3C54.8,55.5,54.3,55.5,54.4,55.4z M49.3,53.5C49.3,53.4,49.3,53.4,49.3,53.5c0.3-0.2,0.5-0.3,0.6-0.3c-0.1-0.1-0.2-0.2-0.6,0C49.3,53.2,49.3,53.4,49.3,53.5z M48.9,54c0,0-0.1,0.1-0.1,0.1c0.1,0,0.2,0,0.2,0.1c0-0.1,0.1-0.1,0.1-0.2C49,54,49,54,48.9,54z M258.2,6.6L258.2,6.6 C258.2,6.6,258.2,6.6,258.2,6.6C258.2,6.7,258.2,6.6,258.2,6.6z M87,48.1l0-0.1l-0.2,0.2L87,48.1z M271.3,6.2c0,0,0.1,0.1,0.2,0.1 C271.5,6.3,271.4,6.3,271.3,6.2z M276.9,5.4l0.8,0.1C277.4,5.4,277.1,5.4,276.9,5.4z M281.2,4.9c0-0.1,0-0.2,0-0.3l0,0L281.2,4.9z M213.7,18.2c-0.1,0-0.1,0-0.2,0.1C213.2,18.5,213.5,18.4,213.7,18.2z M233.6,13c-0.2,0.1-0.4,0.3-0.6,0.4 C233.3,13.3,233.6,13.3,233.6,13z M191.5,23.5C191.5,23.5,191.5,23.5,191.5,23.5c0,0-0.1,0-0.1,0L191.5,23.5z M232,13.5 c0.4,0,0.7,0,0.9-0.2C232.7,13.4,232.3,13.4,232,13.5z M299.7,2l0.2,0c0,0,0-0.1,0-0.1L299.7,2z M300,1.9l0.2-0.1 C300.1,1.9,300,1.9,300,1.9z M300.6,1.6l-0.5,0.2C300.3,1.8,300.6,1.8,300.6,1.6z M294.1,2.7l0,0.2C294,2.9,294.1,2.8,294.1,2.7z M292.3,3.1c0.4,0,1.1,0.3,1.6,0l0-0.2C293.8,3.3,292.7,2.7,292.3,3.1z M284.8,1.8l1.5-0.1c-0.3-0.2-0.7-0.4,0-0.6 C284.3,0.8,286.7,1.5,284.8,1.8z M280.2,2.2c0.8-0.2-0.1-0.3,0-0.4C279.7,2.1,279.6,2.2,280.2,2.2z M248,8l0-0.5 C247.4,7.7,248.1,7.7,248,8z M242.4,11.8L243,12l0.2-0.5L242.4,11.8z M238.1,8.9l0.2-0.1l-1,0.4L238.1,8.9z M184.3,20.1l0.3,0.6 C184.9,20.4,184.9,19.7,184.3,20.1z M161.2,25.8c-0.3-0.2-1-0.3-1.3,0.1C160.4,25.8,161,26,161.2,25.8z M91.8,41.6l0.4-0.3l-0.8,0.4 L91.8,41.6z M246.6,45c0.1-0.2,0-0.6-0.3-0.5l-0.1,0.7L246.6,45z M244.7,44c-0.3,0.3-0.6,0.9-0.4,1.5c0.3-0.7,0.4-0.4,0.7-1.2 c0.3-0.1,0.5,0.2,0.5,0.4c0.1-0.2,0.4,0.1,0.6-0.3c-0.4-0.5-0.9-0.5-1.3,0C244.6,44.3,244.6,44.1,244.7,44z M217.4,45.5l0.2,0.1 C217.5,45.5,217.5,45.5,217.4,45.5z M200.5,47c0.1,0,0.2-0.1,0.2-0.2C200.6,46.9,200.5,46.9,200.5,47z M197.6,46.6 c0.1,0,0.1,0,0.2,0C197.7,46.6,197.6,46.5,197.6,46.6z M217.4,45.5l-0.5-0.2C216.9,45.5,217.2,45.4,217.4,45.5z M241,45.9 c0.1,0,0.2-0.1,0.2-0.2c-0.1,0-0.1,0.1-0.2,0.1C241,45.8,241,45.8,241,45.9z M224.8,44.2l0.1,0c0-0.1,0.1-0.2,0.1-0.3L224.8,44.2z M230.4,43.5c-0.1,0-0.1,0.6-0.2,0.8c0.1-0.2,0.1-0.4,0.2-0.4C230.5,43.8,230.5,43.7,230.4,43.5z M239.6,43.7l0.2-0.1 C239.7,43.7,239.6,43.7,239.6,43.7z M220.7,44.4c0-0.1,0-0.2-0.1-0.2C220.6,44.3,220.6,44.4,220.7,44.4z M64.1,76.4 C64.1,76.4,64.1,76.4,64.1,76.4C64.1,76.4,64.1,76.4,64.1,76.4z M57,75.4L57,75.4c0.1-0.2,0-0.3,0-0.4L57,75.4z M192.2,46.6 C192.2,46.6,192.2,46.6,192.2,46.6C192.4,46.5,192.3,46.5,192.2,46.6z M144.2,54.2c0.6,0.4-0.8,0.8,0.1,1.2 C144.3,55.2,145,54.4,144.2,54.2z M240.9,45.8c-0.1,0-0.2,0-0.2,0C240.8,45.9,240.8,45.8,240.9,45.8z M144.4,55.4L144.4,55.4 L144.4,55.4C144.4,55.4,144.4,55.4,144.4,55.4z M180.2,48.5c0,0.1,0.1,0.2,0.2,0.2C180.3,48.7,180.3,48.6,180.2,48.5z M189.3,48.1 l-0.2,0C189.2,48.1,189.2,48.1,189.3,48.1z M175.6,50c-0.1,0-0.2-0.1-0.3,0c0,0,0,0,0.1,0.1C175.4,49.9,175.5,49.9,175.6,50z M170.8,50.7c0,0,0.1,0.1,0.1,0.1c0,0,0.1,0,0.1-0.1L170.8,50.7z M78.5,72.6c-0.1-0.1-0.2-0.3-0.3-0.4 C78.3,72.5,77.6,72.8,78.5,72.6z M241,45.6c0,0.1-0.1,0.2-0.1,0.3c0.1,0,0.1,0,0.2,0C241.1,45.7,241,45.6,241,45.6z M176.1,54.4 l-0.8,0C175.5,54.4,175.8,54.4,176.1,54.4z M112.7,64.9l-0.2,0.1C112.6,65,112.7,65,112.7,64.9z M173,54.8c-0.2-0.2-0.3-0.3-0.5-0.3 c0,0-0.1,0.1-0.1,0.2L173,54.8z M78.1,72.2L78.1,72.2L78.1,72.2z M73.6,74c-0.6,0.5-0.3-0.1-1-0.4c-0.2,0.7-0.8,0-0.6,0.9 c-0.4-0.6-0.3-0.4-0.8-0.7c0.3,0.5-0.7,0.7-0.5,1.3c-0.4-0.7,0.5-1-0.2-1.6c-0.3,0.6-1,0.9-0.8,1.7c-0.3-0.1-0.6-0.3-1-0.3 c0.1,0,0.1-0.1,0.2-0.2c-0.7,0.7-2.1,0.5-2.3,1.6c-0.1-1.1-1.8,0.3-1.4-0.9c-0.3,0.1-0.8,0.7-0.8,1c-0.2-0.9-0.9,0-1.4-0.4 c-0.1,0.5-0.7,0.5-1.1,0.9c0.1-0.1,0.2-0.3,0.1-0.5c-0.3,0.5-0.3,0.1-0.8-0.2c-0.5,0.4,0.3,0.6,0,1.1c-0.6-0.1-0.2-0.5-0.4-0.9 L60,77.4c-0.2,0-0.3-0.2-0.4-0.4c-0.2,0.3-0.3,0.7-0.8,0.4l0.6-0.2L59,76.8l-0.6,0.7c-1.3-0.4-1.2-1.4-1.3-2.3l0.4-0.3 c-0.1-0.3-0.4-0.4-0.6-0.4c-0.2-0.2,0.5-1.2,0.9-1.4c1.3-0.3,0.5,1,1.5,1l1-0.8l0.1,0.3c0.2,0.2,0.3-0.2,0.3-0.3 c0,0.5,1-0.1,1.5-0.1l-0.3-0.4c1.1-1.3,2.3,0.5,3.3-0.3l0.6-0.9l0.3,0.5c0.3-0.5,0.3-0.9,1.1-0.9c2.7,0.4,5.1-1.5,7.8-1.5 c-0.1-0.1-0.1-0.1-0.3-0.2c2.6,0.9,3.1-2.3,5.4-1.7l-0.1,0.3c1-0.4-0.1,0.3,0.7,0.4c0-0.8,1.2-0.9,1.7-1.3c-0.1,0.2-0.3,0.2-0.4,0.3 c0.1,0.1,0.3,0.6,0.6,0.4c0.4-1.2,1.8-1.4,2.8-1.9c0.2,0.4,1.2,0.6,1.9,1.3c0.1-0.2,0.2-0.6,0.3-1c0.4,0.2,0.7-0.1,0.9-0.4 c-0.3,0.1-0.6,0.2-0.8,0.2c0,0,0,0,0-0.1c0,0-0.1,0.1-0.1,0.1c-0.2,0.1-0.3,0.1-0.3,0.2c-0.5-0.4-0.1-0.4-0.2-0.9 c0.3-0.1,1-0.4,1.2,0c0.2,0,0.4,0,0.6,0c0.1-0.1,0.2-0.2,0.4-0.2l-0.1,0.1c0,0.1,0.1,0.1,0.1,0.2c0.7,0.1,1.5-1,1.9-1.5 c-0.4,0.8,0.3,0.7,0.4,1.2c0.1-0.1-0.6,0.1-1.5,0.3c0.1,0,0.1,0.1,0.2,0.3c0.8,0.4,1.1-0.8,2.3-0.6c-0.1,0.1-0.2,0.2-0.1,0.4 c0.4,0.1,0.7-0.4,0.7-0.7c0.2,0.5,1.1,0.7,1.4,0.3c0.3-0.5,0.2-0.7,0.8-0.8L95,65.1c0.8,0.1,0.5-0.6,1.2-0.5c-0.3-0.1-0.2,0.3,0,0.3 c0.7-0.4,0.7-0.6,1.1-1.4l0,0.6c0.6-0.5,1.7-1.4,1.9-0.7c-0.5-1.1,1.3-0.9,1.9-1c-0.2,0.1-0.2,0.3-0.2,0.4c1-1,2.4-0.6,3.7-0.8 l0.4,0.8c0.6-0.2,0.5-1.8,1.2-1.9l-0.2,0.4c1.2-0.4,1.7-0.4,2.8-0.5l0.1,0.6c0.3-0.3,0.8-0.4,1.1-0.8c1.1,1.2,3.1-1.4,4.9-0.2 l-0.1-1.1c0.6-0.1,1.3-0.4,1.7,0.3l-0.1,0c0.1,0.8,0.6-0.1,1,0c0.3-0.1,0.4-0.7,0.2-0.8c1.6,0.2,3.8-0.8,5,0 c1.5-0.6,2.5-1.7,4.2-1.9l0,0.1c0.6,0,1.8,0.1,1.9,1c1.2-0.4,1.7-1.8,3.2-1.6l-0.2,0.4c0.4,0.1,0.9-0.4,1-0.5c0.1,0,0.1,0.2,0.1,0.3 c0.4,0.2,0.5-0.3,0.8-0.4l-0.1,0.3c1.2,0.4,2.8-1.1,4.3-1.2c-0.3,0.1-0.1,0.4,0.1,0.6c0.4-1.1,2.1-1.1,2.7-1.5l-0.3,0.4 c1.1-0.8,1.2,0.8,2.3,0l-0.8-0.4c0.5,0.1,0.9-0.2,0.7-0.6c0.6,0.2,0.2,0.7,1.1,0.7c0.1,0.3-0.6,0.3-0.2,0.6l1.3,0.5 c0,0.1,0.2,0.1,0.6-0.1c-0.3-1.2,1-0.2,0.2-1.3c1.7-0.4,3.2,0.2,4.5-0.6c0.8,1.1,2.9-0.4,3,1.1c0.8-0.1,1.4-0.5,1.8-1.2 c-0.2-0.1-0.4,0.1-0.5,0.2c0.1-0.4,1.1-0.6,1.5-0.7c-0.5,0.4-1.3,0.9-1.6,1.5c0.7-0.3,1.6-1,2-1.3l0.3,0.7c0.5-0.7,0.6,0.5,1.1-0.3 l-0.2-0.2c1.1-0.1,1-0.9,2.1-1.2l0,0.3c0.4,0.1,0.8-0.8,1.3-0.1l-0.7,0.1c0.2,0.5,0.7,0.7,1,0.9c0.7-0.3,0.1-0.9,0.5-1.1 c0.2,0.5,0.1,0.3-0.1,0.8c0.8-0.3,1.9-0.7,2.3-1.4c0,0.1,0,0.2,0,0.2c0.9,0,1.5-1.1,2.1-0.7l-0.2,0.1c0.8,0.6,1.7-1,2,0.3 c0.4,0.2-0.7,0.1-0.1,0.6c1.1,0.3,0.5-1.2,1.5-1c-0.1,0-0.1,0-0.1,0.2c0.6-0.1,1.5-0.4,2.2-0.6c1,0.9,2.6-0.7,3.8,0.4 c-0.4-0.4,0.2-0.5,0.2-0.7c0,0,0,0.1,0,0.2c0.4,0,0.4-0.4,0.5-0.6c0.4,0.3,1-0.5,1.2-0.3c0-0.3,0.3-0.2,0.6-0.3 c-0.6,0.4-0.1,0.6-0.4,1.1c1,0,1-1.3,2-1.3l0.6,0.4c0-0.8,1-0.6,0.9-0.9c0.2,0.2,0.5,0.3,0.5,0.7c0.4-0.2,1,0.1,1.2-0.4l-0.4-0.1 c1.3,0.1,1.9-1.1,2.9-0.7l0.1,1.2c0.7,0.4,1.1-0.8,1.8-0.2c-0.2-0.4-0.3-0.2,0.1-0.7c-0.3,0-0.7,0.3-1.1,0.4l0.8-0.8l-1.3,0.5 c0.5-0.5,0.5-0.4,0.2-0.9c0.8-0.5,1,0.4,1.7-0.1c0.3,0.1,0.1,0.6,0.4,0.8c0.6-0.5,1.4,0.7,1.9,0c0.2,0.1-0.3,0.1-0.2,0.3 c0.4-0.2,0.8-0.2,0.9-0.5l-0.4-0.1c0.3,0,0.3-0.5,1-0.3c0.3-0.3,0.5-0.9,0.1-0.9c0.2-0.1,0.6,0.2,0.5,0.5c1-0.1,0.3-1.3,1.4-0.9 c-0.1,0-0.1,0.1-0.1,0.2c0.3,0.1,0.5,0,0.6-0.1c-0.9,0.2,0.4,0.9-0.7,0.8c0.2,0.6,0.8,0,1.1,0.2c0.4-0.5-0.1-0.9,0.2-1.2 c0,0.2,0.2,0.2,0.5,0.2l-0.3-0.4c0.2,0,0.4,0,0.6-0.2l-0.4,0.2c0.5,0,1.2,0.7,2,0.1c-0.2,0.2-0.6,0.7,0,0.8c0.8-0.4,0.2,0.2,0.8,0.5 c0.8-0.2,0-0.9,1.3-0.7c0.1,0,0-0.3-0.2-0.4c0.9,0.1,1.3-0.3,2.2,0c-0.4-0.1-0.7-0.2-0.2-0.5c-0.2,0.4,0.7,0.3,1.1,0.5l0.1-0.2 c0.3,0.2,0,0.4-0.2,0.5c0-0.1-0.1-0.1-0.2-0.1c-0.4,0.2-0.1,1.1,0.5,1.1c0.7-0.3,0.5-0.9,0.3-1.1c1,0.1,0.7-1.2,1.7-0.9 c0.2,0,1,0.8,1.7,0.9c0.3-0.6-0.9-0.3-0.5-0.8c1.2,1.2,2.1-1.1,3.6-0.4l-0.1,0.7c0.3,0,0.7,0,1-0.1l-0.5-0.3 c0.3-0.2,1.1-0.1,0.9,0.4c0.7-0.6,0.9-0.3,1.6-0.2c-0.7,0,0-0.1-0.5,0.3c0.8,0.2,0.8,0,1.4-0.2c-0.1,0.2,0.3,0.6,0.5,0.5 c0.5-0.5,1.3-0.5,2-0.8l0,0.2c1.1-0.4,2.5,0.4,3.6-0.3l0,0l0,0c0,0,0,0,0.1,0l-0.1,0c-0.5-0.6,0.9-0.5,1.2-0.8 c0.1,0.2,0.2,0.4,0.4,0.4c0-0.6,0.4-0.4,0.6-0.6c0.4,0.2,0,0.7,0.7,0.6c0.3-0.1,0.3-0.4,0.2-0.6c0.2,0.3,0.6,0.5,1,0.5 c-0.1,0.2-0.3,0-0.4,0c0,0.3,0.2,0.2,0.3,0.6c0.3,0,0.1-0.6,0.5-0.4l-0.3,0.5c0.2,0.1,0.4-0.1,0.4-0.2c-0.2,0.1-0.2,0.6-0.1,0.9 c0.9-0.4,0.1-1.3,0.1-1.8c0.9,0.3,1.6-0.4,2.3-0.5l-0.1,0.6c0.3-0.1,0.5-0.3,0.6-0.5l0.5-0.1c-0.3,0.2-0.4,0.4-0.3,0.8 c0.5-0.2,1.3-0.1,1.4-0.9l0,0.1c0.8,0.2,2.3,0.2,2.3,0.4c0.8-0.3,1.8,0,1.8-0.7c0.5-0.2,1.3,0.8,1.6-0.1c0.6,0.4,0,0.2-0.1,0.7 c0.6,0.4,1.1-0.8,1.4,0.2c0.6-0.4-0.2-0.2,0-0.7c0.2,1,1.2,0,1.9,0.5c0.2-0.4-0.3-0.2,0.1-0.7c0,0.2,0.2,0.3,0.4,0.3l0.1-0.6 l0.8,1.4c0.9-0.8-0.3-1,0.9-1.4l-0.1,0.1c0.4,0.6,0.8-0.5,1.8-0.1c-0.3-0.1-0.1,0.3-0.2,0.5l0.5-0.3c0,0-0.1,0.1,0,0.1 c0.5,0.4,0.4-0.3,0.9,0.1c-0.3,0.2-0.2,0.6,0,0.8l0.7-0.7l-0.2,0.9c0.7,0,1.7-1.4,2.1-0.3l-0.3,0.2c0,0.2,0.3,0.8,0.7,0.3 c0.1-0.1,0.2-0.6,0-0.6l0.4,0.2c-0.1,0.6-1,0.8-1.5,1c0.2-0.2,0.6-0.4,0.4-0.8c-0.5,0.2-0.9,0.6-1.4,0.8c0.2-0.2,0.3-0.6,0.3-0.8 c-0.6-0.2-0.4,0.4-0.8,0.5c-0.2-0.2-0.3-0.3-0.2-0.5c-0.5,0.3-0.9,0.4-1.5,0.1c0,0,0.6-0.4,0.2-0.7c-1,0.4-1.1,1.1-2.1,1.5 c-1.2,1-2.4-0.4-3.2,0.4c0,0.2,0.7,0.4,0.1,0.6c0.1-0.5-0.4-0.3-0.4-0.5c-0.5,0.8-0.9-0.1-1.3,0.5c0.1-0.2-0.3-0.3-0.5-0.5 c0-0.6-0.7-0.2,0.1-1.1c-0.8,1-1.6-0.1-2.2,1.4l0.2,0.1l-0.9-0.2l0,0c-0.4-0.1-0.4,0.1-1-0.5c0.2-0.2,0.5-0.2,0.8-0.4 c-0.5-0.5-1,0.5-1.5,0.6c0-0.4,0.5-0.2,0.3-0.7c-0.4,0-0.7,0.3-1,0.5l0-0.2c-1-0.5-0.3,1.2-1,0.5c0,0.1,0,0.3,0,0.4 c-0.3-0.2-0.9-0.6-0.4-1c-0.3,0-0.7,0.3-0.8,0.6c0.3,0.3,0.4,0.1,0.5,0.6l-1.3,0.4c-0.1,0,0.1-0.2,0.3-0.3c-1.7-1.1-3,1.4-5,0 c0.2,0.4-0.1,0.4-0.2,0.7c-0.6-0.1-1.4,0.1-2-0.1l0.1-0.3c-1.3,0.5-2.2,1-3.1,0.9c0,0.1,0-0.4,0.1-0.5c-0.6,0.6-1.6-0.9-1.6,0.1 l0.3,0.1c-1.3,0-2.7,0.9-4,1.2c-0.4-0.6,0.8-0.2,0.4-0.9c-1-0.1-1.9,0.5-2.9,0.4c0.2-0.1,0.1-0.2,0.2-0.2c-1.1-0.3,0.2,0.6-0.7,0.6 c0-0.3,0-0.4-0.3-0.5l-0.2,0.5c-0.1-0.1-0.1-0.5,0-0.6c-0.3,0.7-1.5,0.4-1.7,1c-0.1-0.1,0-0.8-0.1-1c-0.5-0.1-0.8,0.2-1,0.4l0,0 c-0.4-0.4-1.1-0.2-1-0.3c-0.8-0.1-0.1,0.4-0.7,0.8l0.7,0.2l-1.1,0.3l0.4-0.4c-0.6-0.2-1,0.4-1.6,0.5l0.3,0.3l-0.7,0.3 c-0.2-0.7-0.9-0.1-0.6-1c-1.3-0.2-2.1,0.9-3.2,1.1c0.2,0,0.1-0.2,0.1-0.3c-0.7-0.1-1.1,0.4-1.4,0.8c0.1-0.2,0.2-0.3,0.2-0.5 c-0.8,0.1-0.4,0.5-1.3,0.8c0.2-0.3,0.1-0.5-0.1-0.5c0.1,0.3-0.1,0.5-0.3,0.6c0.5-1.6-1.1-0.5-0.8-1.7c0,0.3-1.3,1.1-0.8,1.7l0.2-0.1 c0.1,0.4-0.3,0.3-0.5,0.3c0.1-0.1,0.2-0.2,0.2-0.3c-1.2,0.7-2.6,0.4-4,0.9c0.1-0.2,0.6-0.5,0.3-0.6c-1.4,0-2.2,0.9-3.6,1.4 c-0.2-0.9,1.5-0.3,1.5-1.3c-1.5,0.4-3,1-4.6,1.7c-0.8-1.3-1.6,0.8-2.7-0.1c0.2,0.4-0.3,0.7-0.9,0.8c0.1-0.4-0.5-0.3-0.3-0.6 c-0.4,0.5-1.8,0.9-1.9,0c0,0.9-1.1,0.1-1.4,0.8c-0.7-0.2-1.3,0.4-2.1,0.2c0.4,0.5-0.7,0.4-1,0.6c0.1,0,0.2-0.2,0.2-0.2 c-0.3-0.4-0.8,0.5-1.3,0.3c-0.2-0.2,0-0.5-0.4-0.5c0.1,0.4-1.1,1-1.6,0.6c0.2,0,0.2-0.2,0.3-0.4c-2,1-4.3,0.5-6.3,1.6l0.3-0.7 c-1.5-0.6-0.7,1.2-1.8,1.3c-2.9,0.2-6.1-0.3-8.8,0.6c-0.2,0.2,0.2,0.2,0.2,0.5c-0.3,0-0.4-0.6-0.7-0.2l0.1,0.3 c-1.4-0.7-3.6,1.3-4.8,0c-1.1,0.8-2.2,0-3.5,1.1c-0.5-0.2,0.4-0.7-0.2-0.7l-1.3,0.8l0.1-0.1c-1.1,1.3-3.7-0.5-5.2,0.5l0.1-0.1 c0-0.2-0.4-0.5-0.7-0.3c-0.1,0.2,0.1,0.2,0.3,0.4c-1.4,0.7-1.7,0.8-2.9,1.1c0.4-0.5-0.5-0.2-0.7-0.7c-0.2,0.4,0.3,0.5-0.4,0.9 c-1,0.2-2,0-2.8-0.1c-0.2,0.5-0.7,0.5-0.6,1c-1.1,0.2-1.7,0.6-3,0.8l-0.1-0.2c-0.2,0.8-1.2-0.1-1.4,0.3c0-0.3,0.1-0.4,0-0.6 l-0.6,0.3c0.2-0.3,0.3-1-0.2-0.9c-0.4,0.6,0.2,0.3,0,0.7l-0.3-0.6c-0.4,0.1-0.4,0.9,0.2,1c-1.4,0.3-2.6,0.8-3.9,1l0-0.4 c-0.6,0.3-1.5,0.5-2,0.2c0,0.1-0.1,0.4,0,0.5c-0.7,0.7-0.2-0.7-1,0.1c0.2-0.2,0.4-0.3,0.4-0.6l-1.5,0.8c-0.1-0.3-1.2-0.8-1.8-0.4 c0,0.2,0.3,0.4,0.4,0.4l-0.4,0.2l-0.5-0.7l-0.5,0.8l-0.1-0.6c-0.4,0.2-0.5,1-0.9,1.1c-1.5-0.1-1.3-0.4-2.4-0.7 c0.1,1.2-1.6,0.3-1.7,1.2c-1.5-0.6-3.4,0.4-5.2,0.5l0.1-0.1c-0.9-0.4-0.7,1.1-1.5,1l0.2-0.2c-1.2-0.4-2.9,0.6-3.8,1.3 c0.2-0.2,0-0.6-0.3-0.5c-0.2,0.3,0.4,0.7-0.2,0.7c0.1-0.1-0.1-0.4-0.2-0.3l-0.4,0.7c-1.5-0.1-3.3-0.1-4.7,0.6 c-0.3-0.1-0.2-0.4-0.1-0.6c-1.1,0.4-2.2,1.1-3.2,1.5l-0.3-0.6c-0.5,0.1-0.1,1.1-0.9,0.7c-0.2-0.1,0.4-0.1,0.6-0.5 c-1.2-0.3-0.5,0.8-1.5,0.9l0.1-0.8c-0.9-0.3-0.8,0.6-1,1.1c-0.9,1.1-1.1-1.3-2.4-0.3c-0.1,0.4,0.2,0.5,0.1,0.9 c-1.1,0-1.1,0.6-2.1,0.7c-0.8-1,0.5-0.1-0.3-1l0.8,0.1c-0.8-0.4,0.6-0.3,0.3-0.9c-0.6-0.1-1.2,0.7-1.8,1.1c-0.1-0.5,0.8-0.2,0.3-0.8 l-0.3,0.3c0.1-0.2,0-0.4,0.2-0.4c-0.2-0.4-0.4,0.1-0.7,0.2c0,0.3,0.1,0.6,0.3,1c0-0.1-0.1-0.1-0.1-0.2c-0.5,0.9-1.7,0.6-2.2,1.3 c0.1-0.2,0-0.2-0.1-0.3c-0.4,0.1-0.7,0.8-1.1,1.1c-0.4-0.3-0.1-1.1-0.9-0.7c-0.1,0.4,0.5,1.1-0.2,1.2C73.5,74.7,74,74.2,73.6,74z M89.6,69.2c0.1,0,0.2-0.1,0.3-0.1c0,0,0,0,0,0C89.7,69.1,89.6,69.1,89.6,69.2z M90.8,68.4c-0.1,0-0.2,0.2-0.1,0.4 c0.2-0.1,0.4-0.1,0.6-0.1C91.1,68.6,90.7,68.6,90.8,68.4z M87.4,65.9C87.4,65.9,87.4,65.8,87.4,65.9c0.2-0.1,0.3-0.2,0.4-0.2 c-0.1-0.1-0.2-0.2-0.4-0.1C87.4,65.7,87.4,65.8,87.4,65.9z M87.2,66.4C87.2,66.4,87.2,66.4,87.2,66.4c0,0.1,0,0.1,0.1,0.2 c0-0.1,0-0.1,0-0.2C87.3,66.4,87.3,66.4,87.2,66.4z M217.6,45.5L217.6,45.5C217.6,45.5,217.6,45.6,217.6,45.5 C217.6,45.6,217.6,45.5,217.6,45.5z M111.2,65.5l0-0.1l-0.1,0.1L111.2,65.5z M225.8,46.6c0,0,0.1,0.1,0.1,0.1 C225.9,46.7,225.8,46.7,225.8,46.6z M229.2,46.4l0.5,0.2C229.5,46.5,229.4,46.5,229.2,46.4z M231.9,46.5c0-0.1,0-0.2,0-0.2l0,0 L231.9,46.5z M190,51.8C189.9,51.8,189.9,51.8,190,51.8C189.6,52,189.8,51.9,190,51.8z M202.3,48.9c-0.1,0.1-0.2,0.2-0.4,0.3 C202.1,49.3,202.3,49.2,202.3,48.9z M176.1,54.4C176.1,54.4,176.1,54.4,176.1,54.4L176.1,54.4L176.1,54.4z M201.3,49.3 c0.2,0.1,0.4,0,0.6-0.1C201.7,49.2,201.5,49.2,201.3,49.3z M243.4,45.7l0.1,0c0,0,0-0.1,0-0.1L243.4,45.7z M243.5,45.7l0.1-0.1 C243.6,45.6,243.6,45.6,243.5,45.7z M244,45.4l-0.3,0.2C243.8,45.6,243.9,45.6,244,45.4z M239.9,45.8l0,0.2 C239.9,45.9,239.9,45.9,239.9,45.8z M238.8,45.9c0.3,0,0.7,0.4,1,0.2l0-0.2C239.7,46.3,239,45.6,238.8,45.9z M234.1,43.8l0.9,0.1 c-0.2-0.2-0.4-0.5,0-0.6C233.9,42.7,235.3,43.8,234.1,43.8z M231.3,43.7c0.5-0.1,0-0.3,0-0.4C231,43.5,231,43.6,231.3,43.7z M211.3,45.7l0-0.5C210.9,45.3,211.3,45.4,211.3,45.7z M207.8,48.8l0.4,0.3l0.1-0.5L207.8,48.8z M205.1,45.4l0.2-0.1l-0.6,0.3 L205.1,45.4z M171.6,50.1l0.2,0.6C172,50.5,171.9,49.8,171.6,50.1z M157.2,52.9c-0.2-0.3-0.6-0.4-0.8-0.1 C156.7,52.8,157.1,53,157.2,52.9z M113.9,59.8l0.2-0.3l-0.5,0.3L113.9,59.8z" fill="#191919"/></g></svg>