<?xml version="1.0" encoding="UTF-8" standalone="no"?><svg xmlns="http://www.w3.org/2000/svg" xmlns:xlink="http://www.w3.org/1999/xlink" fill="#000000" height="289.3" preserveAspectRatio="xMidYMid meet" version="1" viewBox="-0.3 -0.1 457.4 289.3" width="457.4" zoomAndPan="magnify"><g id="change1_1"><path d="M275.4,274.1l0.3-0.4c0.4,0,0.5,0.2,0.3,0.3L275.4,274.1z M273.4,273.1c-0.5,0.2-1,0.6-0.8,1 c0.5-0.4,0.6-0.2,1.1-0.7c0.4,0,0.7,0.2,0.6,0.3c0.1-0.1,0.6,0.1,0.8-0.1c-0.5-0.4-1.2-0.4-1.9-0.2 C273.2,273.2,273.3,273.1,273.4,273.1z M234.3,270.8l0.3,0.1C234.4,270.8,234.4,270.8,234.3,270.8z M210,269.8c0.2,0,0.3,0,0.3-0.1 C210.1,269.8,210,269.8,210,269.8z M205.9,269.3c0.1,0,0.2,0,0.2,0C206,269.2,205.9,269.2,205.9,269.3z M234.3,270.8l-0.6-0.2 C233.6,270.8,233.9,270.7,234.3,270.8z M267.9,273.9c0.1,0,0.3-0.1,0.4-0.1C268.2,273.8,268.1,273.8,267.9,273.9 C267.9,273.8,267.9,273.9,267.9,273.9z M245,270.8l0.2,0c0.1,0,0.1-0.1,0.2-0.2L245,270.8z M253.2,271c-0.2,0-0.3,0.4-0.3,0.5 c0.1-0.2,0.3-0.2,0.4-0.2C253.2,271.2,253.2,271.2,253.2,271z M266.1,272.3l0.2,0C266.3,272.2,266.2,272.3,266.1,272.3z M239.1,270.5c0-0.1,0-0.1-0.1-0.1C239,270.4,239,270.5,239.1,270.5z M9.6,275.1C9.6,275.1,9.6,275.1,9.6,275.1 C9.6,275.1,9.6,275.1,9.6,275.1z M0,273.8l0.1,0c0-0.1,0-0.1,0-0.2L0,273.8z M198.3,268.6C198.3,268.6,198.3,268.6,198.3,268.6 C198.5,268.6,198.4,268.6,198.3,268.6z M128.7,268.4c0.8,0.3-1.3,0.4-0.1,0.8C128.5,269.1,129.6,268.6,128.7,268.4z M267.7,273.8 c-0.1,0-0.2,0-0.3,0C267.5,273.8,267.6,273.8,267.7,273.8z M128.6,269.2L128.6,269.2l0.1,0C128.6,269.3,128.6,269.3,128.6,269.2z M180.8,268.6c0,0.1,0.1,0.1,0.2,0.2C181,268.7,180.9,268.6,180.8,268.6z M193.8,269.3l-0.3-0.1 C193.6,269.3,193.7,269.3,193.8,269.3z M174.1,269c-0.2,0-0.2-0.1-0.5,0c0,0,0,0,0.1,0C173.7,269,173.9,268.9,174.1,269z M167,268.9 c0,0,0.1,0.1,0.1,0.1c0.1,0,0.2,0,0.2,0L167,268.9z M31,274c-0.2-0.1-0.3-0.2-0.3-0.3C30.7,273.9,29.7,274,31,274z M267.9,273.7 c0,0.1-0.1,0.1-0.2,0.2c0.1,0,0.2,0,0.2,0C268,273.8,268,273.7,267.9,273.7z M173.7,272l-1.1-0.1C172.9,272,173.3,272,173.7,272z M81.4,272.2l-0.3,0.1C81.2,272.3,81.3,272.3,81.4,272.2z M169.3,272c-0.2-0.1-0.4-0.2-0.6-0.3c0,0-0.1,0.1-0.1,0.1L169.3,272z M30.6,273.6L30.6,273.6L30.6,273.6z M23.7,274.4c-1,0.2-0.3-0.1-1.3-0.4c-0.5,0.4-1-0.1-1.1,0.6c-0.4-0.4-0.3-0.3-0.9-0.6 c0.3,0.3-1.2,0.4-1.2,0.8c-0.3-0.5,1.1-0.6,0.2-1.1c-0.6,0.4-1.7,0.5-1.7,1.1c-0.5-0.1-0.7-0.3-1.4-0.3c0.1,0,0.2-0.1,0.3-0.1 c-1.2,0.4-3.1,0.2-3.8,0.8c0.2-0.8-2.6,0-1.7-0.7c-0.5,0.1-1.3,0.4-1.5,0.6c0-0.6-1.3-0.1-1.9-0.4C7.5,275,6.5,275,6,275.2 c0.2-0.1,0.4-0.2,0.3-0.4c-0.6,0.3-0.5,0-1-0.2c-0.9,0.2,0.2,0.4-0.3,0.8c-0.8-0.1-0.1-0.4-0.3-0.6l-1.1,0.7c-0.2,0-0.4-0.2-0.5-0.3 c-0.4,0.2-0.7,0.5-1.3,0.2l1-0.1l-0.4-0.3l-1.1,0.4c-1.6-0.4-1.2-1-1.1-1.7l0.7-0.1c0-0.2-0.5-0.3-0.8-0.3c-0.3-0.1,1-0.7,1.7-0.9 c2-0.1,0.4,0.7,1.8,0.8l1.7-0.5l0,0.2c0.3,0.1,0.4-0.1,0.5-0.2c-0.1,0.3,1.4,0,2.1,0l-0.3-0.3c1.9-0.7,3.1,0.5,4.6,0.1l1.1-0.5 l0.2,0.4c0.6-0.3,0.7-0.6,1.8-0.5c3.7,0.5,7.6-0.5,11.3-0.2c0-0.1-0.2-0.1-0.4-0.2c3.3,0.9,5.1-1.3,8-0.6l-0.2,0.2 c1.5-0.1-0.2,0.2,0.9,0.3c0.2-0.5,1.9-0.5,2.7-0.7c-0.1,0.1-0.4,0.1-0.7,0.2c0.2,0.1,0.2,0.4,0.7,0.3c0.9-0.7,3-0.8,4.5-1 c0.2,0.3,1.5,0.6,2.2,1.1c0.2-0.1,0.4-0.4,0.7-0.6c0.6,0.2,1,0,1.3-0.2c-0.5,0-0.9,0.1-1.2,0.1c0,0,0,0,0,0c0,0-0.1,0-0.2,0 c-0.3,0-0.5,0.1-0.4,0.1c-0.6-0.3,0-0.3,0-0.6c0.5,0,1.5-0.2,1.6,0.1c0.3,0,0.5,0,0.8,0.1c0.2-0.1,0.4-0.1,0.6-0.1l-0.1,0 c0,0.1,0.1,0.1,0.1,0.1c1,0.1,2.3-0.5,3.1-0.8c-0.8,0.5,0.2,0.5,0.2,0.9c0.1,0-0.9,0-2.1,0c0.1,0,0.2,0.1,0.2,0.2 c1.1,0.3,1.8-0.4,3.4-0.2c-0.1,0-0.3,0.1-0.2,0.3c0.6,0.1,1.1-0.2,1.2-0.4c0.1,0.3,1.3,0.5,1.9,0.4c0.5-0.3,0.4-0.4,1.4-0.4 l-0.4,0.3c1.1,0.2,0.9-0.4,1.8-0.2c-0.4-0.1-0.4,0.2-0.1,0.2c1.1-0.2,1.2-0.3,2-0.8l-0.1,0.4c1-0.3,2.8-0.8,2.8-0.3 c-0.3-0.8,2.1-0.5,3-0.5c-0.3,0-0.3,0.2-0.4,0.3c1.8-0.6,3.6-0.1,5.4-0.2L71,270c0.9,0,1.2-1.2,2.2-1.2l-0.4,0.3 c1.8-0.1,2.6-0.1,4,0l0,0.4c0.5-0.2,1.2-0.2,1.7-0.4c1.2,0.9,4.8-0.6,7,0.4l0.1-0.7c0.8,0,1.9-0.2,2.3,0.4l-0.2,0 c-0.1,0.5,0.8,0,1.4,0.1c0.4-0.1,0.8-0.4,0.4-0.5c2.3,0.3,5.6-0.1,7,0.5c2.2-0.3,3.9-0.9,6.4-0.8l0,0.1c0.8,0.1,2.5,0.3,2.5,0.9 c1.7-0.2,2.9-1,4.9-0.8l-0.4,0.2c0.5,0.1,1.4-0.2,1.6-0.3c0.2,0,0.1,0.1,0,0.2c0.5,0.2,0.8-0.1,1.2-0.2l-0.2,0.2 c1.7,0.4,4.3-0.4,6.4-0.4c-0.4,0.1-0.2,0.3,0,0.4c0.9-0.7,3.3-0.5,4.2-0.7l-0.5,0.3c1.7-0.4,1.5,0.7,3.2,0.2l-1-0.4 c0.7,0.1,1.3,0,1.1-0.3c0.8,0.2,0.1,0.5,1.3,0.6c0.1,0.2-0.9,0.1-0.5,0.4l1.7,0.5c0.1,0.1,0.3,0.1,0.8,0c-0.2-0.8,1.4-0.1,0.6-0.9 c2.4-0.1,4.5,0.5,6.6,0.1c0.9,0.8,4.1,0,3.9,1.1c1.2,0,2.1-0.2,2.9-0.6c-0.2-0.1-0.5,0-0.8,0.1c0.3-0.3,1.7-0.3,2.3-0.3 c-0.8,0.2-2,0.4-2.6,0.8c1.1-0.1,2.6-0.5,3.2-0.6l0.3,0.5c0.9-0.4,0.8,0.4,1.7-0.1l-0.2-0.2c1.7,0,1.7-0.5,3.2-0.6l-0.1,0.2 c0.5,0.1,1.3-0.4,1.8,0.1l-1,0c0.1,0.4,0.9,0.5,1.2,0.7c1.1-0.1,0.4-0.6,0.9-0.7c0.2,0.3,0.1,0.2-0.3,0.5c1.2-0.1,2.8-0.3,3.6-0.7 c0.1,0.1,0,0.1,0,0.1c1.2,0.1,2.3-0.6,3.1-0.2l-0.2,0.1c1,0.5,2.6-0.5,2.8,0.4c0.5,0.2-1.1,0-0.3,0.4c1.5,0.3,1-0.7,2.3-0.5 c-0.2,0-0.1,0-0.2,0.1c0.9,0,2.2-0.1,3.2-0.2c1.3,0.7,3.9-0.2,5.3,0.7c-0.5-0.3,0.4-0.3,0.4-0.5c0,0-0.1,0.1,0,0.1 c0.5,0,0.6-0.2,0.8-0.4c0.4,0.3,1.5-0.3,1.7-0.1c0-0.2,0.4-0.1,0.9-0.1c-1,0.2-0.3,0.4-0.7,0.7c1.4,0.1,1.6-0.8,3.1-0.6l0.8,0.4 c0.2-0.5,1.5-0.3,1.5-0.5c0.3,0.2,0.6,0.3,0.6,0.5c0.6-0.1,1.5,0.2,1.7-0.1l-0.6-0.1c1.8,0.2,2.9-0.5,4.3-0.2l0,0.8 c0.9,0.3,1.7-0.4,2.5,0.1c-0.3-0.3-0.3-0.2,0.3-0.4c-0.4-0.1-1,0.1-1.6,0.1l1.3-0.5l-2,0.2c0.8-0.3,0.8-0.2,0.4-0.6 c1.2-0.2,1.3,0.4,2.4,0.1c0.4,0.1,0,0.4,0.4,0.6c1-0.3,1.9,0.6,2.6,0.2c0.2,0.1-0.4,0-0.4,0.2c0.7-0.1,1.1,0,1.3-0.3l-0.6-0.1 c0.5,0,0.6-0.3,1.5-0.1c0.5-0.2,0.9-0.6,0.3-0.6c0.2,0,0.8,0.2,0.6,0.4c1.5,0,0.7-0.8,2.1-0.4c-0.1,0-0.2,0.1-0.1,0.1 c0.4,0.1,0.6,0.1,0.9,0c-1.2,0,0.4,0.6-1.1,0.5c0.2,0.4,1.1,0.1,1.6,0.3c0.7-0.3,0.1-0.6,0.5-0.8c0,0.1,0.3,0.1,0.6,0.2l-0.3-0.3 c0.3,0,0.6,0,1-0.1l-0.6,0.1c0.6,0.1,1.6,0.6,2.8,0.3c-0.3,0.1-0.9,0.4-0.2,0.6c1.3-0.2,0.3,0.1,1,0.4c1.2,0,0.2-0.6,2.1-0.3 c0.2,0,0-0.2-0.2-0.3c1.2,0.2,1.9,0,3.1,0.2c-0.5-0.1-0.9-0.2-0.2-0.4c-0.3,0.3,1,0.3,1.5,0.4l0.1-0.2c0.4,0.2,0,0.2-0.3,0.3 c0-0.1-0.1-0.1-0.3-0.1c-0.6,0.1-0.4,0.7,0.5,0.8c1-0.1,0.9-0.6,0.7-0.7c1.3,0.2,1.3-0.7,2.6-0.4c0.3,0,1.3,0.7,2.2,0.8 c0.5-0.4-1.2-0.3-0.6-0.6c1.5,1,3.2-0.5,5.3,0.1l-0.3,0.4c0.5,0,0.9,0.1,1.5,0l-0.7-0.3c0.5-0.1,1.6,0,1.2,0.4 c1.1-0.3,1.3-0.1,2.3,0c-1.1-0.1,0-0.1-0.8,0.1c1.1,0.3,1.2,0.1,2,0c-0.1,0.2,0.3,0.4,0.6,0.4c0.7-0.3,2-0.2,3-0.3l0,0.1 c1.7-0.1,3.5,0.6,5.2,0.2l0,0c0,0,0,0,0,0c0,0,0.1,0,0.1,0l-0.1,0c-0.6-0.4,1.3-0.3,1.9-0.4c0.1,0.1,0.2,0.3,0.5,0.3 c0-0.4,0.7-0.2,0.9-0.4c0.6,0.2-0.1,0.5,0.9,0.5c0.4,0,0.4-0.2,0.4-0.4c0.2,0.2,0.8,0.4,1.4,0.5c-0.2,0.1-0.5,0-0.6,0 c-0.1,0.2,0.3,0.1,0.3,0.4c0.5,0,0.2-0.4,0.8-0.2l-0.6,0.3c0.2,0.1,0.5,0,0.7-0.1c-0.4,0.1-0.3,0.4-0.3,0.6c1.4-0.2,0.3-0.8,0.4-1.2 c1.3,0.3,2.3-0.1,3.3-0.1l-0.2,0.4c0.5,0,0.7-0.1,0.9-0.3l0.8,0c-0.4,0.1-0.6,0.2-0.6,0.5c0.8-0.1,1.9,0.1,2.1-0.4l0,0.1 c1.1,0.2,3.3,0.4,3.2,0.6c1.2-0.1,2.6,0.2,2.7-0.3c0.7-0.1,1.7,0.7,2.3,0.1c0.8,0.4,0,0.1-0.2,0.5c0.8,0.4,1.7-0.4,1.9,0.3 c1-0.2-0.2-0.2,0.1-0.5c0.2,0.7,1.8,0.2,2.6,0.6c0.4-0.2-0.4-0.2,0.3-0.4c-0.1,0.2,0.3,0.2,0.5,0.2l0.2-0.4l0.9,1.1 c1.4-0.4-0.2-0.7,1.6-0.8l-0.1,0c0.5,0.4,1.3-0.3,2.6,0.1c-0.4-0.1-0.2,0.2-0.3,0.3l0.7-0.1c-0.1,0-0.1,0,0,0.1 c0.6,0.3,0.6-0.1,1.3,0.2c-0.5,0.1-0.4,0.4-0.2,0.5l1.1-0.4l-0.5,0.5c1,0.1,2.6-0.7,3.1,0.1l-0.5,0.1c0,0.1,0.3,0.6,1,0.3 c0.2-0.1,0.4-0.4,0.1-0.4l0.5,0.2c-0.3,0.4-1.5,0.4-2.4,0.5c0.3-0.1,0.9-0.2,0.7-0.5c-0.7,0.1-1.4,0.3-2.1,0.4 c0.3-0.1,0.5-0.4,0.6-0.5c-0.8-0.2-0.6,0.2-1.2,0.2c-0.2-0.2-0.4-0.3-0.2-0.4c-0.7,0.1-1.3,0.1-2.1-0.1c0,0,0.9-0.2,0.4-0.5 c-1.4,0.2-1.7,0.6-3.3,0.8c-1.8,0.5-3.4-0.5-4.7-0.1c-0.1,0.2,0.9,0.3,0.1,0.4c0.2-0.3-0.5-0.2-0.5-0.4c-0.9,0.4-1.3-0.2-1.9,0.1 c0.1-0.1-0.4-0.3-0.7-0.4c0.1-0.4-1-0.2,0.3-0.7c-1.3,0.6-2.3-0.2-3.3,0.7l0.3,0.1l-1.3-0.2l0.1,0c-0.6-0.1-0.7,0-1.4-0.4 c0.3-0.1,0.8-0.1,1.1-0.2c-0.7-0.4-1.5,0.2-2.2,0.2c0-0.3,0.8-0.1,0.6-0.4c-0.5-0.1-1,0.1-1.5,0.2l0.1-0.2c-1.4-0.4-0.6,0.8-1.5,0.2 c0,0.1-0.1,0.2,0,0.3c-0.4-0.2-1.2-0.5-0.4-0.7c-0.5,0-1,0.1-1.3,0.3c0.4,0.3,0.5,0.1,0.6,0.5l-1.9,0.1c-0.2,0,0.2-0.2,0.4-0.1 c-2.2-1-4.6,0.6-7.1-0.6c0.3,0.3-0.2,0.2-0.4,0.4c-0.8-0.1-2.1-0.1-2.8-0.3l0.2-0.2c-2,0.2-3.3,0.4-4.6,0.3c-0.1,0.1,0-0.3,0.3-0.3 c-1,0.3-2.1-0.8-2.4-0.1l0.3,0.1c-1.9-0.2-4,0.3-5.9,0.3c-0.4-0.4,1.1,0,0.7-0.5c-1.3-0.2-2.7,0.1-4.2-0.1c0.2,0,0.2-0.1,0.3-0.1 c-1.5-0.3,0.2,0.4-1.1,0.3c0.1-0.2,0-0.3-0.4-0.4l-0.4,0.3c-0.1-0.1,0-0.3,0.1-0.4c-0.6,0.4-2.2,0.1-2.6,0.5c-0.1-0.1,0.2-0.5,0-0.7 c-0.7-0.1-1.1,0-1.5,0.2l0,0c-0.5-0.3-1.6-0.3-1.3-0.3c-1.2-0.2-0.2,0.2-1.1,0.5l0.9,0.2l-1.7,0.1l0.7-0.2c-0.8-0.2-1.5,0.2-2.4,0.1 l0.4,0.3l-1,0.1c-0.1-0.5-1.3-0.1-0.7-0.7c-1.9-0.3-3.1,0.3-4.8,0.3c0.3,0,0.2-0.1,0.2-0.2c-1-0.1-1.6,0.1-2.2,0.4 c0.1-0.2,0.4-0.2,0.4-0.3c-1.2,0-0.7,0.3-2,0.4c0.4-0.2,0.3-0.3-0.1-0.4c0.1,0.2-0.3,0.3-0.5,0.4c1-1-1.5-0.4-0.8-1.2 c-0.1,0.2-2.1,0.6-1.5,1l0.4-0.1c0,0.3-0.4,0.2-0.8,0.2c0.2,0,0.4-0.1,0.4-0.2c-1.9,0.3-3.8-0.1-5.9,0.2c0.2-0.1,1-0.3,0.5-0.4 c-2.1-0.2-3.3,0.3-5.3,0.6c-0.1-0.6,2.2-0.1,2.3-0.7c-2.2,0.1-4.4,0.3-6.9,0.6c-0.8-0.9-2.4,0.4-3.9-0.4c0.1,0.3-0.6,0.4-1.4,0.4 c0.3-0.3-0.6-0.3-0.3-0.5c-0.7,0.3-2.8,0.4-2.7-0.2c-0.2,0.6-1.5,0-2.1,0.4c-0.9-0.2-1.9,0.1-3.1-0.1c0.4,0.4-1.1,0.2-1.5,0.3 c0.1,0,0.4-0.1,0.3-0.1c-0.3-0.3-1.3,0.3-2,0.1c-0.3-0.1,0.1-0.3-0.4-0.4c0,0.3-1.7,0.6-2.4,0.2c0.3,0,0.3-0.1,0.5-0.2 c-3,0.4-6.3-0.1-9.3,0.4l0.5-0.4c-1.9-0.6-1.3,0.7-2.8,0.7c-4.2-0.2-8.5-0.9-12.6-0.6c-0.3,0.1,0.2,0.2,0.2,0.3 c-0.4-0.1-0.5-0.4-0.9-0.2l0.1,0.2c-1.9-0.6-5.4,0.5-6.8-0.5c-1.8,0.4-3-0.3-5.2,0.3c-0.7-0.2,0.8-0.4-0.1-0.5l-2,0.4l0.1,0 c-1.9,0.7-5.1-0.7-7.6-0.2l0.1,0c0.1-0.2-0.4-0.4-0.8-0.3c-0.1,0.1,0.1,0.2,0.4,0.3c-2.2,0.3-2.6,0.3-4.4,0.4 c0.7-0.3-0.7-0.2-0.8-0.6c-0.4,0.2,0.3,0.4-0.7,0.6c-1.4,0-2.7-0.2-3.9-0.3c-0.5,0.3-1.1,0.2-1.1,0.6c-1.6,0.1-2.5,0.2-4.5,0.3 l-0.1-0.1c-0.5,0.5-1.7-0.2-2.1,0.1c0.1-0.2,0.3-0.2,0.2-0.4l-0.9,0.2c0.4-0.2,0.7-0.6-0.1-0.6c-0.8,0.3,0.2,0.2-0.2,0.5l-0.2-0.4 c-0.6,0.1-0.7,0.6,0,0.7c-2,0-3.9,0.3-5.7,0.2l0.2-0.3c-1,0.1-2.3,0.1-2.9-0.1c0,0.1-0.3,0.2-0.1,0.3c-1.2,0.4-0.1-0.5-1.4,0 c0.3-0.1,0.7-0.2,0.8-0.4l-2.4,0.4c0-0.2-1.5-0.7-2.5-0.4c0,0.1,0.3,0.3,0.5,0.3l-0.6,0.1l-0.5-0.5l-0.9,0.5l0-0.4 c-0.7,0.1-0.9,0.6-1.5,0.6c-2.1-0.2-1.7-0.4-3.2-0.7c-0.1,0.8-2.4,0-2.7,0.6c-2-0.6-4.8-0.1-7.4-0.2l0.2-0.1 c-1.1-0.3-1.2,0.6-2.4,0.5l0.3-0.1c-1.5-0.4-4.2,0.1-5.7,0.5c0.3-0.1,0.1-0.4-0.3-0.3c-0.4,0.2,0.4,0.5-0.4,0.4 c0.2-0.1,0-0.3-0.2-0.3l-0.8,0.4c-2.1-0.2-4.6-0.4-6.8-0.1c-0.4-0.1-0.1-0.3,0-0.4c-1.7,0.1-3.4,0.5-5,0.7l-0.2-0.5 c-0.8,0-0.4,0.7-1.5,0.3c-0.2-0.1,0.7-0.1,0.9-0.3c-1.6-0.3-0.9,0.5-2.4,0.5l0.4-0.5c-1.1-0.3-1.3,0.3-1.7,0.6 c-1.6,0.7-1.2-1-3.3-0.4c-0.3,0.3,0.1,0.4-0.2,0.6c-1.5-0.1-1.7,0.3-3.2,0.2c-0.8-0.7,0.8,0-0.1-0.7l1.2,0.1c-1-0.4,0.9-0.1,0.7-0.6 c-0.8-0.1-1.9,0.3-2.8,0.5c0-0.3,1.1-0.1,0.7-0.5l-0.5,0.2c0.1-0.1,0.2-0.2,0.4-0.2c-0.2-0.3-0.6,0-1.1,0c0,0.2,0,0.4,0.2,0.7 c0,0-0.1-0.1-0.1-0.1c-1,0.5-2.6,0.2-3.4,0.7c0.1-0.1,0-0.1,0-0.2c-0.6,0-1.2,0.5-2,0.7c-0.4-0.2,0.2-0.8-1-0.6 c-0.2,0.3,0.4,0.8-0.7,0.8C23.3,274.9,24.2,274.6,23.7,274.4z M47.6,272.8c0.1,0,0.3,0,0.5,0c0,0,0,0,0,0 C47.8,272.7,47.7,272.7,47.6,272.8z M49.5,272.4c-0.2,0-0.3,0.1-0.2,0.3c0.3,0,0.7,0,0.9,0C49.9,272.5,49.4,272.5,49.5,272.4z M45.6,270.4C45.6,270.3,45.6,270.3,45.6,270.4c0.3-0.1,0.5-0.1,0.6-0.1c0-0.1-0.2-0.1-0.5-0.1C45.6,270.2,45.6,270.3,45.6,270.4z M45.1,270.7c0,0-0.1,0-0.1,0c0.1,0,0.1,0.1,0.2,0.1c0,0,0.1-0.1,0.1-0.1C45.2,270.7,45.2,270.7,45.1,270.7z M234.5,270.9 L234.5,270.9C234.5,270.9,234.6,270.9,234.5,270.9C234.6,270.9,234.6,270.9,234.5,270.9z M79,272.5L79,272.5l-0.2,0L79,272.5z M246,272.6c0,0,0.1,0.1,0.1,0.1C246.1,272.6,246.1,272.6,246,272.6z M251,272.8l0.7,0.2C251.4,272.9,251.1,272.9,251,272.8z M254.8,273.2c0.1-0.1,0.1-0.1,0.1-0.2l0,0L254.8,273.2z M194,271.8c-0.1,0-0.1,0-0.1,0C193.6,271.9,193.8,271.9,194,271.8z M212.1,271.3c-0.2,0.1-0.4,0.1-0.6,0.2C211.9,271.5,212.1,271.6,212.1,271.3z M173.9,272C173.9,272,173.9,272,173.9,272 c0,0-0.1,0-0.1,0L173.9,272z M210.7,271.5c0.3,0.1,0.6,0.1,0.8,0C211.3,271.5,211,271.4,210.7,271.5z M271.3,274.1l0.2,0 c0,0,0,0,0-0.1L271.3,274.1z M271.5,274l0.2,0C271.6,274,271.6,274,271.5,274z M272.2,273.9l-0.4,0.1 C271.9,274,272.1,274,272.2,273.9z M266.3,273.7l-0.1,0.1C266.2,273.8,266.3,273.7,266.3,273.7z M264.7,273.6c0.4,0,0.9,0.3,1.4,0.3 l0.1-0.1C266,274,265.1,273.4,264.7,273.6z M258.4,271.7l1.3,0.2c-0.2-0.2-0.5-0.4,0.1-0.4C258.2,270.9,260.1,271.8,258.4,271.7z M254.4,271.3c0.7,0,0-0.2,0-0.3C254,271.1,253.9,271.1,254.4,271.3z M225.5,270.3l0.1-0.3C225.1,270,225.6,270.1,225.5,270.3z M220,271.9l0.5,0.2l0.3-0.3L220,271.9z M216.8,269.4l0.2,0l-0.9,0.1L216.8,269.4z M168.3,268.6l0.2,0.4 C168.8,269,168.9,268.5,168.3,268.6z M147.3,269c-0.2-0.2-0.8-0.3-1.2-0.1C146.6,268.8,147.1,269,147.3,269z M84.5,268.9l0.4-0.2 l-0.8,0.1L84.5,268.9z M352.8,271.8c0-0.1,0-0.4,0-0.3l0,0.4L352.8,271.8z M352.6,271c0,0.2-0.1,0.6-0.1,1c0-0.4,0-0.3,0.1-0.8 c0-0.1,0.1,0.1,0.1,0.3c0-0.1,0.1,0.1,0.1-0.2c0-0.3-0.1-0.4-0.2-0.1C352.6,271.2,352.6,271.1,352.6,271z M349.4,270.3L349.4,270.3 C349.4,270.3,349.4,270.3,349.4,270.3z M347.4,270.1C347.4,270.1,347.4,270,347.4,270.1C347.4,270,347.4,270,347.4,270.1z M347.1,269.6C347.1,269.6,347.1,269.6,347.1,269.6C347.1,269.6,347.1,269.5,347.1,269.6z M349.4,270.3l-0.1-0.1 C349.3,270.3,349.4,270.3,349.4,270.3z M352.1,272.1c0,0,0-0.1,0-0.1C352.2,272,352.2,272,352.1,272.1 C352.1,272,352.1,272.1,352.1,272.1z M350.3,270L350.3,270c0-0.1,0-0.1,0-0.2L350.3,270z M350.9,269.9c0,0,0,0.4,0,0.5 c0-0.2,0-0.2,0-0.3C350.9,270.1,350.9,270,350.9,269.9z M352,270.6L352,270.6C352,270.5,352,270.5,352,270.6z M349.8,269.9 c0-0.1,0-0.1,0-0.1C349.8,269.8,349.8,269.8,349.8,269.9z M331,272.7C331,272.7,331,272.7,331,272.7C331,272.7,331,272.7,331,272.7z M330.2,270.8L330.2,270.8c0-0.1,0-0.2,0-0.2L330.2,270.8z M346.4,269.1C346.4,269.1,346.4,269.1,346.4,269.1 C346.5,269.1,346.4,269.1,346.4,269.1z M340.7,269.4c0.1,0.3-0.1,0.4,0,0.8C340.7,270,340.8,269.6,340.7,269.4z M352.1,272 C352.1,272,352.1,272,352.1,272C352.1,272.1,352.1,272.1,352.1,272z M340.7,270.2C340.7,270.2,340.7,270.2,340.7,270.2L340.7,270.2 C340.7,270.2,340.7,270.2,340.7,270.2z M345,269.3c0,0.1,0,0.1,0,0.2C345,269.4,345,269.4,345,269.3z M346.1,269.9L346.1,269.9 C346.1,269.8,346.1,269.9,346.1,269.9z M344.4,269.9C344.4,269.8,344.4,269.8,344.4,269.9C344.4,269.8,344.4,269.9,344.4,269.9 C344.4,269.8,344.4,269.8,344.4,269.9z M343.9,269.9C343.9,269.9,343.9,269.9,343.9,269.9C343.9,269.9,343.9,269.9,343.9,269.9 L343.9,269.9z M332.7,272.5c0-0.1,0-0.2,0-0.3C332.7,272.5,332.6,272.6,332.7,272.5z M352.1,271.9c0,0.1,0,0.1,0,0.2c0,0,0,0,0,0 C352.1,272,352.1,271.9,352.1,271.9z M344.4,272.9L344.4,272.9C344.4,272.8,344.4,272.9,344.4,272.9z M336.9,272.5L336.9,272.5 C336.8,272.5,336.9,272.5,336.9,272.5z M344.1,272.9c0-0.1,0-0.2-0.1-0.3c0,0,0,0.1,0,0.1L344.1,272.9z M332.7,272.2 C332.7,272.2,332.7,272.2,332.7,272.2C332.7,272.2,332.7,272.2,332.7,272.2z M332.1,272.7c-0.1,0.2,0-0.1-0.1-0.4 c0,0.4-0.1-0.1-0.1,0.5c0-0.4,0-0.3-0.1-0.6c0,0.4-0.1,0.4-0.1,0.8c0-0.5,0.1-0.6,0-1.1c0,0.3-0.1,0.4-0.1,1c0-0.1-0.1-0.3-0.1-0.4 c0,0,0-0.1,0-0.1c-0.1,0.4-0.3,0-0.3,0.6c0-0.8-0.2-0.1-0.1-0.8c0,0-0.1,0.3-0.1,0.5c0-0.6-0.1-0.2-0.2-0.5c0,0.3-0.1,0.2-0.1,0.4 c0-0.1,0-0.2,0-0.3c-0.1,0.2,0,0-0.1-0.3c-0.1,0.2,0,0.5,0,0.7c-0.1-0.1,0-0.4,0-0.6l-0.1,0.6c0-0.1,0-0.2,0-0.3 c0,0.2-0.1,0.4-0.1,0.1l0.1,0l0-0.3l-0.1,0.4c-0.1-0.4-0.1-1.1-0.1-1.7l0.1-0.1c0-0.2,0-0.3-0.1-0.3c0-0.1,0.1-0.7,0.1-0.8 c0.2,0,0,0.7,0.1,0.9l0.1-0.4l0,0.2c0,0.1,0-0.1,0-0.1c0,0.3,0.1,0.1,0.2,0.2l0-0.3c0.2-0.7,0.3,0.7,0.4,0.3l0.1-0.5l0,0.4 c0.1-0.2,0.1-0.6,0.1-0.4c0.3,0.7,0.6-0.2,0.9,0.3c0-0.1,0-0.1,0-0.2c0.3,1,0.4-1,0.7-0.2l0,0.2c0.1-0.1,0,0.2,0.1,0.4 c0-0.5,0.2-0.4,0.2-0.6c0,0.1,0,0.1-0.1,0.2c0,0.1,0,0.4,0.1,0.3c0.1-0.7,0.2-0.6,0.4-0.9c0,0.3,0.1,0.6,0.2,1.1 c0-0.1,0-0.4,0.1-0.6c0,0.2,0.1,0,0.1-0.1c0,0-0.1,0-0.1,0c0,0,0,0,0,0c0,0,0,0,0,0c0,0,0,0,0,0.1c0-0.3,0-0.3,0-0.6 c0,0,0.1-0.1,0.1,0.2c0,0,0,0,0.1,0.1c0-0.1,0-0.1,0.1-0.1l0,0c0,0.1,0,0.1,0,0.1c0.1,0.2,0.2-0.4,0.3-0.7c-0.1,0.5,0,0.5,0,0.9 c0,0-0.1,0-0.2-0.1c0,0,0,0.1,0,0.2c0.1,0.4,0.1-0.3,0.3-0.1c0,0,0,0.1,0,0.2c0,0.1,0.1-0.2,0.1-0.4c0,0.3,0.1,0.6,0.2,0.4 c0-0.3,0-0.4,0.1-0.4l0,0.2c0.1,0.2,0.1-0.4,0.1-0.2c0-0.1,0,0.2,0,0.2c0.1-0.1,0.1-0.3,0.2-0.7l0,0.4c0.1-0.2,0.2-0.7,0.2-0.2 c0-0.8,0.2-0.4,0.2-0.4c0,0,0,0.2,0,0.3c0.1-0.5,0.3,0,0.4,0l0,0.6c0.1,0,0.1-1.1,0.2-1.1l0,0.3c0.1-0.1,0.2,0,0.3,0.1l0,0.4 c0-0.2,0.1-0.2,0.1-0.4c0.1,0.9,0.4-0.5,0.6,0.5l0-0.7c0.1,0,0.2-0.1,0.2,0.4l0,0c0,0.5,0.1,0,0.1,0.1c0-0.1,0.1-0.4,0-0.5 c0.2,0.4,0.5,0,0.6,0.6c0.2-0.2,0.3-0.8,0.5-0.7l0,0.1c0.1,0.1,0.2,0.3,0.2,0.9c0.1-0.1,0.2-1,0.4-0.7l0,0.2c0,0.1,0.1-0.2,0.1-0.2 c0,0,0,0.1,0,0.2c0,0.2,0.1-0.1,0.1-0.2l0,0.2c0.1,0.4,0.4-0.4,0.5-0.3c0,0.1,0,0.3,0,0.4c0.1-0.7,0.3-0.5,0.3-0.7l0,0.3 c0.1-0.4,0.1,0.7,0.3,0.3l-0.1-0.4c0.1,0.1,0.1,0,0.1-0.3c0.1,0.2,0,0.5,0.1,0.6c0,0.2-0.1,0.1,0,0.4l0.1,0.5c0,0.1,0,0.1,0.1,0 c0-0.8,0.1,0,0-0.8c0.2-0.1,0.4,0.5,0.5,0.1c0.1,0.8,0.3,0,0.3,1.1c0.1,0,0.2-0.2,0.2-0.6c0-0.1,0,0-0.1,0.1c0-0.3,0.1-0.3,0.2-0.3 c-0.1,0.2-0.2,0.4-0.2,0.8c0.1-0.1,0.2-0.5,0.3-0.6l0,0.5c0.1-0.4,0.1,0.4,0.1-0.1l0-0.2c0.1,0,0.1-0.5,0.3-0.6l0,0.2 c0,0.1,0.1-0.4,0.1,0.1l-0.1,0c0,0.4,0.1,0.5,0.1,0.7c0.1-0.1,0-0.6,0.1-0.7c0,0.3,0,0.2,0,0.5c0.1-0.1,0.2-0.3,0.3-0.7 c0,0.1,0,0.1,0,0.1c0.1,0.1,0.2-0.6,0.3-0.3l0,0.1c0.1,0.5,0.2-0.5,0.2,0.4c0,0.2-0.1,0,0,0.4c0.1,0.3,0.1-0.7,0.2-0.5 c0,0,0,0,0,0.1c0.1,0,0.2-0.1,0.3-0.2c0.1,0.7,0.3-0.2,0.4,0.7c0-0.3,0-0.3,0-0.5c0,0,0,0.1,0,0.1c0,0,0-0.3,0.1-0.4 c0,0.3,0.1-0.3,0.1-0.1c0-0.2,0-0.1,0.1-0.1c-0.1,0.2,0,0.4-0.1,0.7c0.1,0.1,0.1-0.8,0.3-0.7l0.1,0.4c0-0.5,0.1-0.3,0.1-0.5 c0,0.2,0.1,0.3,0,0.5c0-0.1,0.1,0.1,0.1-0.2l0-0.1c0.1,0.2,0.2-0.6,0.4-0.2l0,0.8c0.1,0.3,0.1-0.4,0.2,0c0-0.3,0-0.2,0-0.5 c0-0.1-0.1,0.2-0.1,0.1l0.1-0.5l-0.2,0.2c0.1-0.3,0.1-0.2,0-0.6c0.1-0.3,0.1,0.4,0.2,0.1c0,0.1,0,0.4,0,0.6c0.1-0.3,0.2,0.6,0.2,0.2 c0,0.1,0,0,0,0.2c0.1-0.1,0.1,0,0.1-0.3l0-0.1c0,0,0-0.3,0.1-0.1c0-0.2,0.1-0.6,0-0.6c0-0.1,0.1,0.2,0,0.4c0.1,0,0.1-0.9,0.2-0.5 c0,0,0,0.1,0,0.1c0,0.1,0.1,0.1,0.1,0c-0.1,0.1,0,0.6-0.1,0.5c0,0.4,0.1,0.1,0.1,0.3c0.1-0.3,0-0.6,0-0.8c0,0.1,0,0.1,0.1,0.2l0-0.3 c0,0,0,0,0.1-0.1l0,0.1c0.1,0.1,0.1,0.6,0.2,0.3c0,0.1-0.1,0.4,0,0.6c0.1-0.2,0,0.1,0.1,0.4c0.1-0.1,0-0.6,0.2-0.4c0,0,0-0.2,0-0.3 c0.1,0.2,0.2-0.1,0.3,0.2c0-0.1-0.1-0.2,0-0.3c0,0.3,0.1,0.2,0.1,0.4l0-0.2c0,0.2,0,0.2,0,0.3c0-0.1,0-0.1,0-0.1c0,0.1,0,0.7,0,0.8 c0.1-0.2,0.1-0.6,0.1-0.7c0.1,0.2,0.1-0.7,0.2-0.5c0,0,0.1,0.6,0.2,0.7c0-0.4-0.1-0.3-0.1-0.6c0.1,0.9,0.3-0.6,0.4,0l0,0.4 c0,0,0.1,0.1,0.1,0l-0.1-0.2c0-0.1,0.1,0,0.1,0.3c0.1-0.4,0.1-0.2,0.2,0c-0.1,0,0-0.1-0.1,0.2c0.1,0.2,0.1,0.1,0.2,0 c0,0.2,0,0.4,0,0.4c0.1-0.3,0.2-0.2,0.2-0.4l0,0.1c0.1-0.2,0.3,0.5,0.4,0.1h0c0,0,0,0,0,0c0,0,0,0,0,0l0,0c0-0.4,0.1-0.3,0.2-0.5 c0,0.1,0,0.3,0,0.3c0-0.4,0.1-0.2,0.1-0.4c0,0.1,0,0.5,0.1,0.5c0,0,0-0.2,0-0.4c0,0.2,0.1,0.4,0.1,0.4c0,0.1,0,0,0,0 c0,0.2,0,0.1,0,0.4c0,0,0-0.4,0.1-0.2l0,0.3c0,0.1,0-0.1,0.1-0.1c0,0.1,0,0.4,0,0.6c0.1-0.2,0-0.8,0-1.2c0.1,0.2,0.2-0.2,0.3-0.2 l0,0.4c0-0.1,0.1-0.1,0.1-0.3l0.1,0c0,0.1,0,0.2-0.1,0.5c0.1-0.1,0.2,0,0.2-0.5l0,0.1c0.1,0.2,0.3,0.3,0.3,0.4 c0.1-0.2,0.2,0.1,0.2-0.4c0.1-0.1,0.1,0.6,0.2,0c0.1,0.3,0,0.1,0,0.5c0.1,0.3,0.1-0.5,0.2,0.2c0.1-0.2,0-0.1,0-0.5 c0,0.7,0.1,0.1,0.2,0.5c0-0.3,0-0.2,0-0.4c0,0.2,0,0.2,0,0.2l0-0.4l0.1,1c0.1-0.5,0-0.7,0.1-0.9l0,0c0,0.4,0.1-0.3,0.2,0 c0-0.1,0,0.2,0,0.3l0.1-0.2c0,0,0,0,0,0.1c0.1,0.3,0-0.2,0.1,0.1c0,0.1,0,0.4,0,0.5l0.1-0.5l0,0.6c0.1,0,0.2-0.9,0.3-0.1l0,0.1 c0,0.1,0,0.5,0.1,0.3c0-0.1,0-0.4,0-0.4l0,0.1c0,0.4-0.1,0.5-0.2,0.6c0-0.2,0.1-0.3,0.1-0.5c-0.1,0.1-0.1,0.4-0.2,0.5 c0-0.1,0-0.4,0-0.5c-0.1-0.2,0,0.3-0.1,0.3c0-0.1,0-0.2,0-0.4c-0.1,0.2-0.1,0.2-0.2,0c0,0,0.1-0.3,0-0.5c-0.1,0.2-0.1,0.7-0.3,0.9 c-0.1,0.6-0.3-0.4-0.4,0.1c0,0.2,0.1,0.3,0,0.4c0-0.3,0-0.2,0-0.3c-0.1,0.5-0.1-0.1-0.2,0.2c0-0.1,0-0.2-0.1-0.4 c0-0.4-0.1-0.2,0-0.7c-0.1,0.6-0.2-0.2-0.3,0.8l0,0.1l-0.1-0.2l0,0c0-0.1-0.1,0-0.1-0.4c0-0.1,0.1-0.1,0.1-0.2 c-0.1-0.4-0.1,0.3-0.2,0.3c0-0.3,0.1-0.1,0-0.5c0,0-0.1,0.2-0.1,0.3l0-0.2c-0.1-0.4,0,0.8-0.1,0.3c0,0.1,0,0.2,0,0.3 c0-0.2-0.1-0.5,0-0.7c0,0-0.1,0.1-0.1,0.3c0,0.2,0,0.1,0.1,0.4l-0.2,0.2c0,0,0-0.2,0-0.2c-0.2-0.9-0.4,0.7-0.6-0.3 c0,0.3,0,0.2,0,0.4c-0.1-0.1-0.2,0-0.2-0.2l0-0.2c-0.2,0.2-0.3,0.5-0.4,0.4c0,0.1,0-0.3,0-0.3c-0.1,0.3-0.2-0.7-0.2,0l0,0.1 c-0.2-0.1-0.3,0.4-0.5,0.5c0-0.4,0.1,0,0.1-0.6c-0.1-0.2-0.2,0.2-0.3,0c0-0.1,0-0.1,0-0.1c-0.1-0.3,0,0.4-0.1,0.4c0-0.2,0-0.3,0-0.4 l0,0.3c0-0.1,0-0.3,0-0.4c0,0.4-0.2,0.1-0.2,0.6c0-0.1,0-0.5,0-0.7c-0.1-0.1-0.1,0-0.1,0.2c0,0,0,0,0,0c0-0.3-0.1-0.3-0.1-0.3 c-0.1-0.1,0,0.2-0.1,0.5l0.1,0.2l-0.1,0.1l0.1-0.2c-0.1-0.2-0.1,0.2-0.2,0.2l0,0.2l-0.1,0.2c0-0.5-0.1-0.1-0.1-0.7 c-0.2-0.3-0.3,0.4-0.4,0.4c0,0,0-0.1,0-0.2c-0.1-0.1-0.1,0.1-0.2,0.4c0-0.2,0-0.2,0-0.3c-0.1,0-0.1,0.3-0.2,0.4c0-0.2,0-0.3,0-0.4 c0,0.2,0,0.3,0,0.4c0.1-1-0.1-0.4-0.1-1.2c0,0.2-0.2,0.6-0.1,1.1l0-0.1c0,0.3,0,0.2-0.1,0.2c0,0,0-0.1,0-0.2c-0.2,0.3-0.3,0-0.5,0.3 c0-0.1,0.1-0.3,0-0.4c-0.2-0.1-0.3,0.4-0.4,0.6c0-0.6,0.2-0.1,0.2-0.7c-0.2,0.1-0.4,0.4-0.6,0.7c-0.1-0.9-0.2,0.4-0.3-0.3 c0,0.3,0,0.4-0.1,0.4c0-0.3,0-0.3,0-0.4c-0.1,0.3-0.2,0.4-0.2-0.2c0,0.6-0.1,0-0.2,0.4c-0.1-0.2-0.2,0.1-0.3-0.1 c0,0.4-0.1,0.2-0.1,0.3c0,0,0-0.1,0-0.1c0-0.3-0.1,0.3-0.2,0.1c0-0.1,0-0.3,0-0.4c0,0.3-0.1,0.6-0.2,0.2c0,0,0-0.1,0-0.2 c-0.2,0.5-0.5-0.1-0.8,0.4l0-0.4c-0.2-0.6-0.1,0.7-0.2,0.7c-0.3-0.2-0.7-0.9-1-0.6c0,0.1,0,0.2,0,0.3c0-0.1,0-0.4-0.1-0.2l0,0.2 c-0.2-0.7-0.4,0.4-0.6-0.6c-0.1,0.4-0.2-0.3-0.4,0.3c-0.1-0.2,0.1-0.4,0-0.5l-0.2,0.4l0,0c-0.2,0.7-0.4-0.8-0.6-0.3l0,0 c0-0.2,0-0.4-0.1-0.3c0,0.1,0,0.2,0,0.3c-0.2,0.3-0.2,0.3-0.4,0.4c0.1-0.2-0.1-0.2-0.1-0.6c0,0.2,0,0.4-0.1,0.5 c-0.1,0-0.2-0.3-0.3-0.4c0,0.3-0.1,0.2-0.1,0.6c-0.1,0-0.2,0.2-0.4,0.2l0-0.1c0,0.5-0.1-0.2-0.2,0c0-0.2,0-0.2,0-0.4l-0.1,0.2 c0-0.1,0.1-0.6,0-0.6c-0.1,0.3,0,0.2,0,0.5l0-0.4c0,0-0.1,0.5,0,0.7c-0.2,0-0.3,0.2-0.5,0.1l0-0.3c-0.1,0.1-0.2,0.1-0.2-0.1 c0,0.1,0,0.2,0,0.3c-0.1,0.4,0-0.5-0.1,0c0-0.1,0.1-0.2,0.1-0.3l-0.2,0.4c0-0.2-0.1-0.7-0.2-0.5c0,0.1,0,0.3,0,0.3l-0.1,0.1l0-0.5 l-0.1,0.4l0-0.4c-0.1,0.1-0.1,0.6-0.1,0.6c-0.2-0.3-0.1-0.4-0.3-0.8c0,0.8-0.2,0-0.2,0.5c-0.2-0.6-0.4-0.2-0.6-0.4l0-0.1 c-0.1-0.4-0.1,0.6-0.2,0.4l0-0.1c-0.1-0.4-0.3,0-0.5,0.3c0-0.1,0-0.4,0-0.3c0,0.2,0,0.6,0,0.4c0-0.1,0-0.3,0-0.3l-0.1,0.4 c-0.2-0.3-0.4-0.6-0.6-0.3c0-0.1,0-0.3,0-0.4c-0.1,0.1-0.3,0.4-0.4,0.5l0-0.5c-0.1,0,0,0.7-0.1,0.3c0-0.1,0.1,0,0.1-0.2 c-0.1-0.3-0.1,0.4-0.2,0.4l0-0.5c-0.1-0.3-0.1,0.3-0.1,0.6c-0.1,0.6-0.1-1-0.3-0.5c0,0.3,0,0.4,0,0.6c-0.1-0.1-0.1,0.2-0.3,0.1 c-0.1-0.8,0.1,0,0-0.7l0.1,0.2c-0.1-0.4,0.1-0.1,0.1-0.6c-0.1-0.1-0.2,0.3-0.2,0.4c0-0.3,0.1,0,0.1-0.5l0,0.1c0-0.1,0-0.2,0-0.2 c0-0.3,0,0-0.1,0c0,0.2,0,0.4,0,0.7c0,0,0-0.1,0-0.1c-0.1,0.5-0.2,0.1-0.3,0.5c0-0.1,0-0.1,0-0.2c0,0-0.1,0.4-0.2,0.6 c0-0.3,0-0.8-0.1-0.6c0,0.3,0,0.8-0.1,0.8C332.1,273.1,332.2,272.9,332.1,272.7z M334.1,272C334.1,272,334.1,272,334.1,272 C334.1,272,334.1,272,334.1,272C334.1,272,334.1,272,334.1,272z M334.2,271.7c0,0,0,0.1,0,0.3c0,0,0.1,0,0.1,0 C334.3,271.8,334.2,271.8,334.2,271.7z M333.9,269.5C333.9,269.5,333.9,269.5,333.9,269.5C334,269.4,334,269.4,333.9,269.5 c0-0.2,0-0.2,0-0.2C333.9,269.4,333.9,269.4,333.9,269.5z M333.9,269.8C333.9,269.8,333.9,269.8,333.9,269.8c0,0.1,0,0.1,0,0.1 C333.9,269.9,333.9,269.8,333.9,269.8C333.9,269.8,333.9,269.8,333.9,269.8z M349.4,270.4L349.4,270.4 C349.4,270.4,349.4,270.4,349.4,270.4C349.4,270.4,349.4,270.4,349.4,270.4z M336.7,272.7L336.7,272.7L336.7,272.7L336.7,272.7z M350.3,271.7C350.3,271.7,350.3,271.7,350.3,271.7C350.4,271.8,350.4,271.7,350.3,271.7z M350.8,271.8l0.1,0.1 C350.8,271.8,350.8,271.8,350.8,271.8z M351.1,272c0-0.1,0-0.1,0-0.2c0,0,0,0,0,0L351.1,272z M346.1,272.4 C346.1,272.4,346.1,272.4,346.1,272.4C346,272.5,346.1,272.5,346.1,272.4z M347.6,271.5c0,0.1,0,0.1,0,0.2 C347.5,271.7,347.6,271.7,347.6,271.5z M344.4,272.9C344.4,272.9,344.4,272.9,344.4,272.9C344.4,272.9,344.4,272.9,344.4,272.9 L344.4,272.9z M347.5,271.7C347.5,271.8,347.5,271.7,347.5,271.7C347.5,271.7,347.5,271.6,347.5,271.7z M352.4,272.1L352.4,272.1 C352.4,272.1,352.4,272.1,352.4,272.1L352.4,272.1z M352.4,272.1L352.4,272.1C352.4,272,352.4,272,352.4,272.1z M352.5,271.9 L352.5,271.9C352.5,272,352.5,272,352.5,271.9z M352,272l0,0.1C352,272.1,352,272,352,272z M351.9,272c0,0,0.1,0.3,0.1,0.2l0-0.1 C352,272.3,351.9,271.8,351.9,272z M351.4,270.3l0.1,0.1c0-0.1,0-0.3,0-0.4C351.3,269.6,351.5,270.3,351.4,270.3z M351,270.1 c0.1-0.1,0-0.2,0-0.3C351,269.9,351,269.9,351,270.1z M348.7,270.1l0-0.3C348.6,269.8,348.7,269.9,348.7,270.1z M348.2,271.9l0,0.2 l0-0.3L348.2,271.9z M347.9,269.4L347.9,269.4L347.9,269.4L347.9,269.4z M344,269.5l0,0.4C344,269.9,344,269.4,344,269.5z M342.3,270c0-0.2-0.1-0.3-0.1-0.1C342.2,269.8,342.2,270,342.3,270z M337.1,269.3l0-0.1L337.1,269.3L337.1,269.3z M457,269.6 c0.1-0.1,0.1-0.4-0.1-0.3l-0.1,0.4L457,269.6z M456.3,268.7c-0.2,0.2-0.4,0.6-0.3,1c0.2-0.4,0.2-0.2,0.4-0.7c0.1,0,0.2,0.2,0.1,0.3 c0.1-0.1,0.2,0.1,0.3-0.2c-0.1-0.4-0.3-0.4-0.5-0.1C456.2,268.9,456.2,268.8,456.3,268.7z M444.8,266.8L444.8,266.8 C444.9,266.8,444.8,266.8,444.8,266.8z M437.6,265.9C437.7,265.9,437.7,265.9,437.6,265.9C437.7,265.9,437.6,265.9,437.6,265.9z M436.5,265.4C436.5,265.4,436.5,265.4,436.5,265.4C436.5,265.3,436.5,265.3,436.5,265.4z M444.8,266.8l-0.2-0.2 C444.6,266.8,444.7,266.7,444.8,266.8z M454.6,269.6c0,0,0.1-0.1,0.1-0.1C454.6,269.5,454.6,269.5,454.6,269.6 C454.6,269.5,454.6,269.6,454.6,269.6z M448,266.7L448,266.7c0.1,0,0.1-0.1,0.1-0.2L448,266.7z M450.4,266.9c-0.1,0-0.1,0.4-0.2,0.5 c0-0.2,0.1-0.2,0.1-0.2C450.4,267.1,450.4,267,450.4,266.9z M454.2,268L454.2,268C454.2,268,454.2,268,454.2,268z M446.3,266.5 c0-0.1,0-0.1,0-0.1C446.3,266.4,446.3,266.4,446.3,266.5z M378.4,268.4C378.4,268.4,378.4,268.4,378.4,268.4 C378.4,268.4,378.4,268.4,378.4,268.4z M375.4,266.8L375.4,266.8c0-0.1,0-0.2,0-0.2L375.4,266.8z M434.2,264.7 C434.2,264.7,434.2,264.7,434.2,264.7C434.3,264.7,434.3,264.7,434.2,264.7z M413.6,264.1c0.2,0.3-0.4,0.4,0,0.8 C413.5,264.8,413.8,264.4,413.6,264.1z M454.5,269.5C454.5,269.5,454.4,269.5,454.5,269.5C454.4,269.5,454.5,269.5,454.5,269.5z M413.5,265L413.5,265L413.5,265C413.5,265,413.5,265,413.5,265z M429,264.6c0,0.1,0,0.1,0,0.2C429.1,264.8,429.1,264.7,429,264.6z M432.9,265.4L432.9,265.4C432.8,265.4,432.8,265.4,432.9,265.4z M427,265.1c-0.1,0-0.1-0.1-0.1,0c0,0,0,0,0,0 C426.9,265,427,265,427,265.1z M424.9,265C424.9,265,424.9,265,424.9,265c0.1,0.1,0.1,0.1,0.1,0.1L424.9,265z M384.7,267.9 c-0.1-0.1-0.1-0.2-0.1-0.3C384.6,267.8,384.3,267.9,384.7,267.9z M454.6,269.4c0,0.1,0,0.1-0.1,0.2c0,0,0,0,0.1,0 C454.6,269.5,454.6,269.4,454.6,269.4z M426.8,268l-0.3-0.1C426.5,268,426.7,268,426.8,268z M399.5,267.3L399.5,267.3 C399.5,267.3,399.5,267.3,399.5,267.3z M425.5,268c-0.1-0.1-0.1-0.2-0.2-0.3c0,0,0,0.1,0,0.1L425.5,268z M384.5,267.5L384.5,267.5 L384.5,267.5z M382.5,268.1c-0.3,0.2-0.1-0.1-0.4-0.4c-0.1,0.4-0.3-0.1-0.3,0.5c-0.1-0.4-0.1-0.3-0.3-0.6c0.1,0.4-0.3,0.4-0.3,0.8 c-0.1-0.5,0.3-0.6,0-1.1c-0.2,0.3-0.5,0.5-0.5,1c-0.1-0.1-0.2-0.3-0.4-0.3c0,0,0.1-0.1,0.1-0.1c-0.3,0.4-0.9,0.1-1.1,0.7 c0-0.8-0.8,0-0.6-0.8c-0.2,0-0.4,0.4-0.4,0.5c0-0.6-0.4-0.1-0.6-0.5c-0.1,0.3-0.3,0.2-0.5,0.5c0.1-0.1,0.1-0.2,0.1-0.3 c-0.2,0.3-0.1,0-0.3-0.3c-0.2,0.2,0.1,0.5-0.1,0.7c-0.2-0.1-0.1-0.4-0.1-0.6l-0.3,0.6c-0.1-0.1-0.1-0.2-0.2-0.3 c-0.1,0.2-0.2,0.4-0.4,0.2l0.3,0l-0.1-0.3l-0.3,0.4c-0.5-0.4-0.4-1.1-0.4-1.7l0.2-0.1c0-0.2-0.2-0.3-0.3-0.3 c-0.1-0.1,0.3-0.7,0.5-0.8c0.6,0,0.2,0.7,0.6,0.8l0.5-0.4l0,0.2c0.1,0.1,0.1-0.1,0.1-0.2c0,0.3,0.4,0.1,0.6,0.1l-0.1-0.3 c0.5-0.7,1,0.6,1.4,0.3l0.3-0.5l0.1,0.4c0.2-0.3,0.2-0.6,0.5-0.5c1.1,0.6,2.2-0.3,3.4,0.1c0-0.1-0.1-0.1-0.1-0.2 c1,1,1.5-1.1,2.4-0.4l-0.1,0.2c0.4-0.1-0.1,0.2,0.3,0.4c0-0.5,0.5-0.4,0.8-0.6c0,0.1-0.1,0.1-0.2,0.2c0.1,0.1,0.1,0.4,0.2,0.3 c0.2-0.7,0.9-0.7,1.3-0.9c0.1,0.3,0.5,0.6,0.7,1.1c0-0.1,0.1-0.4,0.2-0.6c0.2,0.2,0.3,0,0.4-0.2c-0.1,0-0.3,0-0.4,0l0,0 c0,0,0,0-0.1,0c-0.1,0-0.1,0-0.1,0.1c-0.2-0.3,0-0.3,0-0.6c0.1,0,0.4-0.1,0.5,0.1c0.1,0,0.1,0,0.2,0.1c0.1-0.1,0.1-0.1,0.2-0.1l0,0 c0,0.1,0,0.1,0,0.1c0.3,0.1,0.7-0.4,0.9-0.7c-0.2,0.5,0.1,0.5,0.1,0.9c0,0-0.3,0-0.6,0c0,0,0.1,0.1,0.1,0.2c0.3,0.4,0.5-0.4,1-0.1 c0,0-0.1,0.1-0.1,0.2c0.2,0.1,0.3-0.2,0.3-0.4c0.1,0.3,0.4,0.6,0.6,0.4c0.1-0.3,0.1-0.4,0.4-0.4l-0.1,0.2c0.3,0.2,0.3-0.4,0.5-0.2 c-0.1-0.1-0.1,0.2,0,0.2c0.3-0.1,0.3-0.3,0.6-0.8l0,0.4c0.3-0.2,0.8-0.7,0.8-0.2c-0.1-0.8,0.6-0.4,0.9-0.4c-0.1,0-0.1,0.2-0.1,0.3 c0.5-0.5,1.1-0.1,1.6-0.1l0.1,0.6c0.3,0,0.3-1.2,0.6-1.1L397,264c0.5-0.1,0.8-0.1,1.2,0l0,0.4c0.2-0.2,0.3-0.2,0.5-0.4 c0.4,0.9,1.4-0.5,2.1,0.5l0-0.7c0.3,0,0.6-0.1,0.7,0.4l-0.1,0c0,0.5,0.3,0,0.4,0.1c0.1-0.1,0.2-0.4,0.1-0.5c0.7,0.4,1.7,0,2.1,0.6 c0.7-0.2,1.2-0.8,1.9-0.7l0,0.1c0.2,0.1,0.7,0.3,0.7,0.9c0.5-0.1,0.9-1,1.5-0.7l-0.1,0.2c0.2,0.1,0.4-0.2,0.5-0.2c0.1,0,0,0.1,0,0.2 c0.1,0.2,0.2-0.1,0.4-0.2l0,0.2c0.5,0.4,1.3-0.4,1.9-0.3c-0.1,0.1-0.1,0.3,0,0.4c0.3-0.7,1-0.5,1.2-0.6l-0.2,0.3 c0.5-0.4,0.4,0.7,1,0.3l-0.3-0.4c0.2,0.1,0.4,0,0.3-0.3c0.2,0.2,0,0.5,0.4,0.6c0,0.2-0.3,0.1-0.1,0.4l0.5,0.5c0,0.1,0.1,0.1,0.2,0 c0-0.8,0.4,0,0.2-0.8c0.7,0,1.3,0.5,1.9,0.1c0.2,0.8,1.2,0.1,1.1,1.1c0.3,0,0.6-0.2,0.9-0.6c-0.1-0.1-0.2,0-0.2,0.1 c0.1-0.3,0.5-0.3,0.7-0.3c-0.2,0.2-0.6,0.4-0.8,0.8c0.3-0.1,0.8-0.5,1-0.6l0.1,0.5c0.3-0.4,0.2,0.4,0.5-0.1l0-0.2 c0.5,0.1,0.5-0.5,1-0.5l0,0.2c0.2,0.1,0.4-0.4,0.5,0.1l-0.3,0c0,0.4,0.2,0.5,0.3,0.7c0.3-0.1,0.1-0.6,0.3-0.6c0.1,0.4,0,0.2-0.1,0.5 c0.4-0.1,0.8-0.2,1.1-0.7c0,0.1,0,0.1,0,0.1c0.4,0.1,0.7-0.5,0.9-0.2l-0.1,0c0.3,0.5,0.8-0.5,0.8,0.4c0.1,0.2-0.3,0-0.1,0.4 c0.4,0.3,0.3-0.7,0.7-0.5c-0.1,0,0,0-0.1,0.1c0.3,0,0.7-0.1,1-0.2c0.3,0.7,1.2-0.1,1.6,0.7c-0.1-0.3,0.1-0.3,0.1-0.5 c0,0,0,0.1,0,0.1c0.2,0,0.2-0.2,0.3-0.4c0.1,0.3,0.4-0.2,0.5-0.1c0-0.2,0.1-0.1,0.3-0.1c-0.3,0.2-0.1,0.4-0.3,0.7 c0.4,0.1,0.5-0.8,1-0.6l0.2,0.4c0.1-0.5,0.5-0.3,0.5-0.5c0.1,0.2,0.2,0.3,0.1,0.5c0.2-0.1,0.4,0.2,0.5-0.1l-0.2-0.1 c0.5,0.2,0.9-0.5,1.3-0.1l-0.1,0.8c0.3,0.3,0.5-0.4,0.7,0.1c-0.1-0.3-0.1-0.2,0.1-0.4c-0.1-0.1-0.3,0.1-0.5,0.1l0.4-0.4l-0.6,0.2 c0.3-0.3,0.2-0.2,0.2-0.5c0.4-0.2,0.4,0.4,0.7,0.1c0.1,0.1,0,0.4,0.1,0.6c0.3-0.3,0.5,0.6,0.8,0.2c0.1,0.1-0.1,0-0.1,0.2 c0.2-0.1,0.3,0,0.4-0.3l-0.2-0.1c0.1,0,0.2-0.3,0.5-0.1c0.2-0.2,0.3-0.6,0.1-0.6c0.1,0,0.2,0.2,0.1,0.4c0.4,0,0.3-0.8,0.7-0.4 c0,0-0.1,0.1-0.1,0.1c0.1,0.1,0.2,0.1,0.3,0c-0.4,0,0.1,0.6-0.4,0.5c0,0.4,0.3,0.1,0.5,0.3c0.2-0.3,0.1-0.6,0.2-0.8 c0,0.1,0.1,0.1,0.2,0.2l-0.1-0.3c0.1,0,0.2,0,0.3-0.1l-0.2,0.1c0.2,0.1,0.4,0.6,0.8,0.3c-0.1,0.1-0.3,0.4-0.1,0.6 c0.4-0.2,0.1,0.1,0.3,0.4c0.4,0,0.1-0.6,0.6-0.3c0.1,0,0-0.2,0-0.3c0.4,0.2,0.6,0,0.9,0.2c-0.2-0.1-0.3-0.2,0-0.4 c-0.1,0.3,0.3,0.3,0.4,0.4l0-0.2c0.1,0.2,0,0.2-0.1,0.3c0-0.1,0-0.1-0.1-0.1c-0.2,0.1-0.2,0.7,0.1,0.8c0.3-0.1,0.3-0.6,0.3-0.7 c0.4,0.2,0.4-0.7,0.8-0.4c0.1,0,0.3,0.7,0.6,0.8c0.2-0.4-0.3-0.3-0.1-0.6c0.4,0.9,1-0.5,1.6,0.1l-0.1,0.4c0.1,0,0.3,0.1,0.4,0 l-0.2-0.3c0.1-0.1,0.5,0,0.3,0.4c0.3-0.3,0.4-0.1,0.7,0c-0.3-0.1,0-0.1-0.2,0.2c0.3,0.2,0.3,0.1,0.6,0c-0.1,0.2,0,0.4,0.1,0.4 c0.2-0.3,0.6-0.2,0.9-0.3l0,0.1c0.5-0.1,1,0.5,1.5,0.2l0,0l0,0c0,0,0,0,0,0l0,0c-0.1-0.4,0.4-0.3,0.6-0.4c0,0.1,0,0.3,0.1,0.3 c0-0.4,0.2-0.2,0.3-0.4c0.2,0.2-0.1,0.5,0.2,0.5c0.1,0,0.2-0.2,0.2-0.4c0,0.2,0.2,0.4,0.4,0.4c-0.1,0.1-0.1,0-0.2,0 c0,0.2,0.1,0.1,0,0.4c0.1,0,0.1-0.4,0.3-0.2l-0.2,0.3c0.1,0.1,0.2,0,0.2-0.1c-0.1,0.1-0.1,0.4-0.1,0.6c0.4-0.2,0.2-0.8,0.2-1.2 c0.4,0.3,0.7-0.1,1-0.1l-0.1,0.4c0.2,0,0.2-0.1,0.3-0.3l0.2,0c-0.1,0.1-0.2,0.2-0.2,0.5c0.2-0.1,0.6,0,0.7-0.4l0,0.1 c0.3,0.2,0.9,0.4,0.9,0.5c0.4-0.1,0.8,0.2,0.8-0.3c0.2-0.1,0.5,0.7,0.7,0.1c0.2,0.3,0,0.1-0.1,0.5c0.2,0.3,0.5-0.5,0.5,0.3 c0.3-0.2,0-0.2,0.1-0.5c0,0.7,0.5,0.2,0.7,0.6c0.1-0.3-0.1-0.2,0.1-0.4c0,0.2,0.1,0.2,0.1,0.2l0.1-0.4l0.2,1c0.4-0.4,0-0.7,0.5-0.8 l0,0c0.1,0.4,0.4-0.3,0.8,0.1c-0.1-0.1-0.1,0.2-0.1,0.3l0.2-0.1c0,0,0,0,0,0.1c0.2,0.3,0.2-0.1,0.4,0.2c-0.2,0.1-0.1,0.4-0.1,0.5 l0.4-0.4l-0.2,0.5c0.3,0.1,0.8-0.8,0.9,0l-0.2,0.1c0,0.1,0,0.6,0.3,0.3c0.1-0.1,0.2-0.4,0.1-0.4l0.1,0.1c-0.1,0.4-0.5,0.4-0.8,0.5 c0.1-0.1,0.3-0.2,0.3-0.5c-0.2,0.1-0.5,0.3-0.7,0.4c0.1-0.1,0.2-0.4,0.2-0.5c-0.2-0.2-0.2,0.2-0.4,0.2c0-0.2-0.1-0.3,0-0.4 c-0.2,0.1-0.4,0.1-0.6-0.1c0,0,0.3-0.2,0.2-0.5c-0.4,0.2-0.6,0.6-1.1,0.8c-0.6,0.6-1-0.5-1.4-0.1c0,0.2,0.2,0.3,0,0.4 c0.1-0.3-0.1-0.2-0.1-0.4c-0.3,0.5-0.4-0.1-0.6,0.2c0.1-0.1-0.1-0.3-0.2-0.4c0.1-0.4-0.3-0.2,0.2-0.7c-0.4,0.6-0.7-0.2-1,0.7 l0.1,0.1l-0.4-0.2l0,0c-0.2-0.1-0.2,0-0.4-0.4c0.1-0.1,0.2-0.1,0.4-0.2c-0.2-0.4-0.5,0.3-0.7,0.3c0-0.3,0.2-0.1,0.2-0.4 c-0.2-0.1-0.3,0.1-0.5,0.2l0-0.2c-0.4-0.4-0.2,0.8-0.5,0.2c0,0.1,0,0.2,0,0.3c-0.1-0.2-0.3-0.5,0-0.7c-0.1,0-0.3,0.1-0.4,0.3 c0.1,0.3,0.1,0.1,0.1,0.4l-0.6,0.1c-0.1,0,0.1-0.2,0.1-0.1c-0.6-0.9-1.4,0.6-2.1-0.5c0.1,0.3-0.1,0.2-0.2,0.4 c-0.2-0.1-0.6-0.1-0.8-0.3l0.1-0.2c-0.6,0.2-1,0.4-1.4,0.3c0,0.1,0-0.3,0.1-0.3c-0.3,0.3-0.6-0.8-0.7-0.1l0.1,0.1 c-0.5-0.2-1.2,0.3-1.8,0.3c-0.1-0.4,0.3,0,0.3-0.5c-0.4-0.2-0.8,0.1-1.2,0c0.1,0,0.1-0.1,0.1-0.1c-0.4-0.3,0,0.4-0.3,0.3 c0-0.2,0-0.3-0.1-0.4l-0.1,0.3c0-0.1,0-0.3,0.1-0.4c-0.2,0.4-0.7,0.1-0.8,0.5c0-0.1,0.1-0.5,0.1-0.7c-0.2-0.1-0.3,0-0.5,0.2l0,0 c-0.1-0.3-0.4-0.3-0.4-0.3c-0.3-0.2-0.1,0.2-0.4,0.5l0.3,0.2l-0.5,0.1l0.2-0.2c-0.2-0.2-0.5,0.2-0.7,0.1l0.1,0.3l-0.3,0.1 c0-0.5-0.4-0.1-0.2-0.7c-0.5-0.3-0.9,0.3-1.4,0.3c0.1,0,0.1-0.1,0.1-0.2c-0.3-0.1-0.5,0.1-0.7,0.4c0-0.2,0.1-0.2,0.1-0.3 c-0.3,0-0.2,0.3-0.6,0.4c0.1-0.2,0.1-0.3,0-0.4c0,0.2-0.1,0.3-0.2,0.4c0.4-1-0.4-0.4-0.2-1.2c0,0.2-0.7,0.6-0.5,1l0.1-0.1 c0,0.3-0.1,0.2-0.2,0.2c0.1,0,0.1-0.1,0.1-0.2c-0.6,0.3-1.1-0.1-1.7,0.2c0.1-0.1,0.3-0.3,0.2-0.4c-0.6-0.2-1,0.3-1.6,0.5 c0-0.6,0.7-0.1,0.7-0.7c-0.7,0.1-1.3,0.3-2.1,0.6c-0.2-0.9-0.7,0.3-1.1-0.4c0,0.3-0.2,0.4-0.4,0.4c0.1-0.3-0.2-0.3-0.1-0.5 c-0.2,0.3-0.8,0.4-0.8-0.2c-0.1,0.6-0.5,0-0.6,0.4c-0.3-0.2-0.6,0.1-0.9-0.1c0.1,0.4-0.3,0.2-0.5,0.3c0,0,0.1-0.1,0.1-0.1 c-0.1-0.3-0.4,0.3-0.6,0.1c-0.1-0.1,0-0.3-0.1-0.4c0,0.3-0.5,0.6-0.7,0.2c0.1,0,0.1-0.1,0.2-0.2c-0.9,0.4-1.8-0.2-2.8,0.3l0.2-0.4 c-0.6-0.6-0.4,0.7-0.8,0.6c-1.2-0.2-2.5-0.9-3.7-0.7c-0.1,0.1,0,0.2,0.1,0.3c-0.1-0.1-0.1-0.4-0.3-0.2l0,0.2c-0.5-0.7-1.6,0.4-2-0.6 c-0.5,0.4-0.9-0.3-1.5,0.3c-0.2-0.2,0.2-0.4,0-0.5l-0.6,0.4l0,0c-0.6,0.7-1.5-0.8-2.2-0.3l0,0c0-0.2-0.1-0.4-0.2-0.3 c0,0.1,0,0.2,0.1,0.3c-0.6,0.3-0.8,0.3-1.3,0.3c0.2-0.2-0.2-0.2-0.2-0.6c-0.1,0.2,0.1,0.4-0.2,0.5c-0.4,0-0.8-0.3-1.2-0.4 c-0.1,0.3-0.3,0.2-0.3,0.6c-0.5,0-0.7,0.2-1.3,0.2l0-0.1c-0.2,0.5-0.5-0.2-0.6,0c0-0.2,0.1-0.2,0.1-0.4l-0.3,0.2 c0.1-0.1,0.2-0.6,0-0.6c-0.2,0.3,0.1,0.2,0,0.5l-0.1-0.4c-0.2,0-0.2,0.5,0,0.7c-0.6,0-1.2,0.2-1.7,0.1l0.1-0.3 c-0.3,0.1-0.7,0.1-0.9-0.1c0,0.1-0.1,0.2,0,0.3c-0.3,0.4,0-0.5-0.4,0c0.1-0.1,0.2-0.2,0.2-0.3l-0.7,0.4c0-0.2-0.4-0.7-0.7-0.5 c0,0.1,0.1,0.3,0.2,0.3l-0.2,0.1l-0.2-0.5l-0.3,0.4l0-0.4c-0.2,0.1-0.3,0.6-0.4,0.6c-0.6-0.3-0.5-0.4-0.9-0.8c0,0.8-0.7,0-0.8,0.6 c-0.6-0.6-1.4-0.2-2.2-0.3l0.1-0.1c-0.3-0.4-0.4,0.6-0.7,0.5l0.1-0.1c-0.5-0.4-1.2,0-1.7,0.4c0.1-0.1,0-0.4-0.1-0.3 c-0.1,0.2,0.1,0.6-0.1,0.4c0.1-0.1,0-0.3-0.1-0.3l-0.2,0.4c-0.6-0.3-1.4-0.5-2-0.2c-0.1-0.1,0-0.3,0-0.4c-0.5,0.1-1,0.5-1.5,0.6 l-0.1-0.5c-0.2,0-0.1,0.7-0.4,0.3c-0.1-0.1,0.2,0,0.3-0.2c-0.5-0.3-0.2,0.5-0.7,0.4l0.1-0.5c-0.3-0.3-0.4,0.3-0.5,0.6 c-0.4,0.6-0.4-1-1-0.5c-0.1,0.3,0.1,0.4,0,0.6c-0.5-0.1-0.5,0.3-0.9,0.2c-0.3-0.8,0.2,0-0.1-0.7l0.4,0.2c-0.3-0.4,0.3-0.1,0.2-0.6 c-0.2-0.1-0.5,0.3-0.8,0.5c0-0.3,0.3-0.1,0.2-0.5l-0.1,0.1c0-0.1,0-0.2,0.1-0.2c-0.1-0.3-0.2,0-0.3,0c0,0.2,0,0.4,0.1,0.7 c0,0,0-0.1,0-0.1c-0.3,0.5-0.8,0.2-1,0.6c0-0.1,0-0.1,0-0.2c-0.2,0-0.3,0.5-0.6,0.6c-0.1-0.2,0-0.8-0.3-0.6c0,0.3,0.1,0.8-0.2,0.8 C382.4,268.5,382.7,268.3,382.5,268.1z M389.5,267.1c0,0,0.1,0,0.2,0c0,0,0,0,0,0C389.6,267,389.6,267.1,389.5,267.1z M390.1,266.7 c-0.1,0-0.1,0.1-0.1,0.3c0.1,0,0.2,0,0.3,0C390.2,266.9,390.1,266.8,390.1,266.7z M388.9,264.6C388.9,264.6,388.9,264.6,388.9,264.6 c0.1-0.1,0.1-0.1,0.2-0.1c0-0.1-0.1-0.2-0.1-0.1C388.9,264.5,388.9,264.5,388.9,264.6z M388.7,264.9 C388.7,264.9,388.7,265,388.7,264.9c0,0.1,0,0.1,0,0.1C388.8,265,388.8,265,388.7,264.9L388.7,264.9z M444.9,266.8L444.9,266.8 C444.9,266.9,444.9,266.9,444.9,266.8C444.9,266.9,444.9,266.9,444.9,266.8z M398.8,267.5L398.8,267.5L398.8,267.5L398.8,267.5z M448.2,268.5c0,0,0,0.1,0,0.1C448.2,268.5,448.2,268.5,448.2,268.5z M449.6,268.7l0.2,0.2C449.7,268.8,449.7,268.7,449.6,268.7z M450.7,269c0-0.1,0-0.1,0-0.2l0,0L450.7,269z M432.8,267.9C432.8,267.9,432.8,267.9,432.8,267.9C432.6,268,432.7,268,432.8,267.9z M438.2,267.4c-0.1,0.1-0.1,0.1-0.2,0.2C438.1,267.6,438.2,267.6,438.2,267.4z M426.8,268.1L426.8,268.1L426.8,268.1L426.8,268.1z M437.7,267.6c0.1,0.1,0.2,0.1,0.2,0C437.9,267.6,437.8,267.5,437.7,267.6z M455.6,269.7L455.6,269.7 C455.6,269.7,455.6,269.7,455.6,269.7L455.6,269.7z M455.6,269.7L455.6,269.7C455.7,269.7,455.6,269.7,455.6,269.7z M455.8,269.6 l-0.1,0.1C455.7,269.7,455.8,269.7,455.8,269.6z M454.1,269.4l0,0.1C454.1,269.5,454.1,269.4,454.1,269.4z M453.6,269.4 c0.1,0,0.2,0.3,0.4,0.3l0-0.1C454,269.7,453.8,269.2,453.6,269.4z M451.9,267.5l0.4,0.2c-0.1-0.2-0.1-0.4,0.1-0.4 C451.9,266.8,452.4,267.6,451.9,267.5z M450.8,267.1c0.2,0,0-0.2,0-0.3C450.7,267,450.6,267,450.8,267.1z M442.2,266.3l0.1-0.3 C442.1,266,442.3,266.1,442.2,266.3z M440.5,268l0.1,0.2l0.1-0.3L440.5,268z M439.7,265.4L439.7,265.4l-0.2,0.1L439.7,265.4z M425.3,264.7l0,0.4C425.4,265,425.5,264.5,425.3,264.7z M419.1,264.9c-0.1-0.2-0.2-0.4-0.3-0.2C418.9,264.7,419,264.9,419.1,264.9z M400.4,264l0.1-0.1l-0.2,0.1L400.4,264z M448.9,40.4c-0.1-0.1-0.4-0.1-0.3,0.3L449,41L448.9,40.4z M448,42.8c0.2,0.4,0.5,1,1,0.7 c-0.4-0.4-0.2-0.5-0.7-1c0-0.4,0.2-0.6,0.3-0.5c-0.1-0.1,0.1-0.6-0.1-0.8c-0.4,0.4-0.4,1-0.2,1.7C448.1,43,448,42.8,448,42.8z M445.2,78l0.1-0.2C445.2,77.8,445.2,77.9,445.2,78z M443.9,99.8c0-0.2,0-0.2-0.1-0.2C443.8,99.7,443.8,99.8,443.9,99.8z M443.2,103.5c0-0.1,0-0.1,0-0.2C443.2,103.4,443.2,103.5,443.2,103.5z M445.2,78l-0.2,0.6C445.1,78.6,445.1,78.3,445.2,78z M448.7,47.7c0-0.1,0-0.2-0.1-0.3C448.6,47.5,448.6,47.6,448.7,47.7C448.7,47.7,448.7,47.7,448.7,47.7z M445.3,68.3l0-0.2 c0-0.1-0.1-0.1-0.2-0.2L445.3,68.3z M445.7,60.9c0,0.2,0.3,0.2,0.5,0.3c-0.2-0.1-0.2-0.2-0.2-0.4C445.9,60.9,445.8,60.9,445.7,60.9z M447.1,49.3l0-0.2C447.1,49.1,447.1,49.2,447.1,49.3z M445,73.6c-0.1,0-0.1,0-0.1,0.1C444.9,73.7,444.9,73.7,445,73.6z M445.2,280.4C445.2,280.4,445.2,280.4,445.2,280.4C445.2,280.4,445.2,280.5,445.2,280.4z M443.6,289l0-0.1c-0.1,0-0.1,0-0.2,0 L443.6,289z M442.5,110.3C442.5,110.3,442.5,110.3,442.5,110.3C442.4,110.1,442.4,110.2,442.5,110.3z M441.1,173.1 c0.3-0.7,0.4,1.2,0.8,0.1C441.7,173.3,441.3,172.2,441.1,173.1z M448.7,47.9c0,0.1,0,0.2,0,0.3C448.7,48.1,448.7,48,448.7,47.9z M441.9,173.2L441.9,173.2l0-0.1C441.9,173.1,441.9,173.1,441.9,173.2z M442.1,126.1c0.1,0,0.1-0.1,0.2-0.2 C442.3,125.9,442.2,126,442.1,126.1z M443.1,114.4l-0.1,0.3C443,114.5,443.1,114.5,443.1,114.4z M442.5,132.2c0,0.2-0.1,0.2,0,0.4 c0,0,0,0,0-0.1C442.4,132.5,442.4,132.4,442.5,132.2z M442.3,138.5c0,0,0.1-0.1,0.1-0.1c0-0.1,0-0.1,0-0.2L442.3,138.5z M444.5,261.2c-0.1,0.1-0.2,0.2-0.3,0.3C444.5,261.4,444.6,262.3,444.5,261.2z M448.5,47.7c0.1,0,0.1,0.1,0.2,0.2c0-0.1,0-0.1,0-0.2 C448.6,47.7,448.5,47.7,448.5,47.7z M445.4,132.5l-0.1,1C445.4,133.3,445.4,132.9,445.4,132.5z M443.9,215.7l0,0.2 C444,215.9,444,215.8,443.9,215.7z M445.3,136.5c-0.1,0.2-0.2,0.4-0.3,0.6c0,0,0.1,0.1,0.1,0.1L445.3,136.5z M444.2,261.5 L444.2,261.5L444.2,261.5z M444.8,267.7c0.2,0.9-0.1,0.3-0.4,1.2c0.4,0.5-0.1,0.9,0.5,1c-0.4,0.3-0.3,0.2-0.6,0.8 c0.4-0.3,0.4,1.1,0.8,1.1c-0.5,0.3-0.6-1-1.1-0.2c0.3,0.5,0.5,1.5,1,1.6c-0.1,0.4-0.3,0.6-0.3,1.2c0-0.1-0.1-0.2-0.1-0.3 c0.4,1.1,0.1,2.8,0.7,3.4c-0.8-0.2,0,2.4-0.8,1.5c0,0.5,0.4,1.2,0.5,1.4c-0.6,0-0.1,1.2-0.5,1.7c0.3,0.3,0.3,1.1,0.5,1.6 c-0.1-0.2-0.2-0.3-0.3-0.3c0.3,0.6,0,0.4-0.2,0.9c0.2,0.8,0.5-0.2,0.7,0.3c-0.1,0.7-0.4,0.1-0.6,0.2l0.6,1c-0.1,0.2-0.2,0.4-0.3,0.4 c0.2,0.3,0.4,0.6,0.2,1.1l0-0.9l-0.3,0.3l0.4,1c-0.4,1.5-1.1,1-1.7,1l-0.1-0.6c-0.2,0-0.3,0.4-0.3,0.7c-0.1,0.2-0.7-0.9-0.8-1.6 c0-1.8,0.7-0.4,0.8-1.6l-0.4-1.5l0.2,0c0.1-0.3-0.1-0.4-0.2-0.4c0.3,0.1,0.1-1.3,0.1-1.9l-0.3,0.2c-0.7-1.7,0.6-2.8,0.2-4.2l-0.5-1 l0.4-0.2c-0.3-0.6-0.6-0.7-0.5-1.6c0.6-3.3-0.3-6.9,0-10.2c-0.1,0-0.1,0.1-0.2,0.4c1-3-1.2-4.6-0.4-7.2l0.2,0.2 c-0.1-1.3,0.2,0.2,0.4-0.8c-0.5-0.2-0.4-1.7-0.6-2.5c0.1,0.1,0.1,0.4,0.2,0.6c0.1-0.1,0.4-0.2,0.3-0.6c-0.7-0.8-0.7-2.7-0.9-4.1 c0.3-0.2,0.6-1.4,1.1-2c-0.1-0.1-0.4-0.4-0.6-0.6c0.2-0.5,0-0.9-0.2-1.2c0,0.4,0,0.8,0,1.1c0,0,0,0,0,0c0,0,0,0.1,0,0.2 c0,0.3,0,0.5,0.1,0.4c-0.3,0.6-0.3,0-0.6,0c0-0.4-0.1-1.4,0.1-1.5c0-0.3,0-0.4,0.1-0.7c-0.1-0.2-0.1-0.4-0.1-0.6l0,0.1 c0.1,0,0.1-0.1,0.1-0.1c0.1-0.9-0.4-2.1-0.7-2.8c0.5,0.7,0.5-0.2,0.9-0.2c0-0.1,0,0.8,0,1.9c0-0.1,0.1-0.1,0.2-0.2 c0.4-1-0.4-1.6-0.1-3c0,0.1,0.1,0.3,0.2,0.2c0.1-0.5-0.2-1-0.4-1.1c0.3-0.1,0.6-1.2,0.4-1.7c-0.3-0.5-0.4-0.4-0.4-1.2l0.2,0.4 c0.2-1-0.4-0.8-0.2-1.6c-0.1,0.3,0.2,0.4,0.2,0.1c-0.1-1-0.3-1.1-0.8-1.8l0.4,0.1c-0.2-0.9-0.7-2.5-0.2-2.5 c-0.8,0.3-0.4-1.9-0.4-2.7c0,0.3,0.2,0.3,0.3,0.3c-0.5-1.6-0.1-3.2-0.1-4.9l0.6-0.3c0-0.9-1.2-1.1-1.1-2l0.3,0.3 c-0.1-1.6-0.1-2.3,0-3.6l0.4,0c-0.2-0.5-0.2-1.1-0.4-1.6c0.9-1.1-0.5-4.3,0.5-6.3l-0.7-0.1c0-0.8-0.1-1.7,0.4-2.1l0,0.2 c0.5,0.1,0-0.8,0.1-1.2c-0.1-0.4-0.4-0.7-0.5-0.4c0.4-2,0-5,0.6-6.3c-0.2-2-0.8-3.6-0.7-5.7l0.1,0c0.1-0.7,0.3-2.2,0.9-2.2 c-0.1-1.6-0.9-2.6-0.7-4.5l0.2,0.4c0.1-0.5-0.2-1.2-0.2-1.4c0-0.2,0.1,0,0.2,0c0.2-0.4-0.1-0.7-0.2-1.1l0.2,0.1 c0.4-1.5-0.4-3.9-0.2-5.8c0.1,0.4,0.3,0.2,0.4,0c-0.7-0.8-0.5-3-0.6-3.8l0.3,0.5c-0.4-1.6,0.7-1.4,0.3-2.9l-0.4,0.9 c0.1-0.6,0-1.2-0.3-1c0.2-0.7,0.5-0.1,0.6-1.2c0.2,0,0.1,0.8,0.4,0.4l0.5-1.5c0.1,0,0.1-0.2,0-0.7c-0.8,0.1,0-1.3-0.8-0.5 c0-2.2,0.5-4,0.2-5.9c0.8-0.8,0.1-3.7,1.1-3.5c0-1.1-0.2-1.9-0.6-2.6c-0.1,0.2,0,0.5,0.1,0.7c-0.3-0.3-0.3-1.6-0.3-2.1 c0.2,0.7,0.4,1.8,0.8,2.4c-0.1-1-0.4-2.3-0.6-2.9l0.5-0.2c-0.4-0.8,0.4-0.7-0.1-1.5l-0.2,0.2c0.1-1.5-0.5-1.5-0.5-2.9l0.2,0.1 c0.1-0.5-0.4-1.2,0.1-1.6l0,0.9c0.4-0.1,0.6-0.8,0.7-1.1c-0.1-1-0.6-0.4-0.6-0.8c0.4-0.2,0.2,0,0.5,0.3c-0.1-1.1-0.2-2.5-0.6-3.3 c0.1,0,0.1,0,0.1,0c0.1-1.1-0.5-2.1-0.2-2.8l0,0.2c0.5-0.9-0.4-2.3,0.5-2.5c0.2-0.4-0.1,1,0.4,0.3c0.3-1.3-0.7-0.9-0.4-2.1 c0,0.2,0,0.1,0.1,0.2c0-0.8-0.1-2-0.1-2.9c0.7-1.1-0.1-3.5,0.8-4.8c-0.3,0.4-0.3-0.3-0.5-0.3c0,0,0.1,0.1,0.1,0 c0-0.5-0.2-0.5-0.4-0.7c0.3-0.4-0.2-1.3-0.1-1.6c-0.2,0-0.1-0.4-0.1-0.8c0.2,0.9,0.4,0.3,0.7,0.7c0.1-1.3-0.8-1.5-0.6-2.8l0.4-0.7 c-0.5-0.2-0.3-1.4-0.5-1.4c0.2-0.2,0.3-0.6,0.5-0.5c-0.1-0.5,0.2-1.3-0.1-1.6l-0.2,0.5c0.3-1.6-0.5-2.6-0.1-3.9l0.8,0.1 c0.4-0.8-0.4-1.6,0.1-2.3c-0.3,0.2-0.2,0.3-0.4-0.2c-0.1,0.3,0.1,0.9,0.1,1.4l-0.4-1.1l0.2,1.8c-0.3-0.8-0.2-0.7-0.5-0.4 c-0.2-1.1,0.4-1.1,0.1-2.2c0.1-0.4,0.4,0,0.6-0.4c-0.2-0.9,0.6-1.7,0.2-2.4c0.1-0.2,0,0.4,0.2,0.3c-0.1-0.6,0-1-0.2-1.2l-0.1,0.5 c0-0.4-0.3-0.5-0.1-1.4c-0.2-0.5-0.5-0.8-0.6-0.3c0-0.2,0.2-0.7,0.4-0.5c0.1-1.3-0.8-0.7-0.4-1.9c0,0.1,0.1,0.2,0.1,0.1 c0.1-0.3,0.1-0.6,0-0.8c0,1.1,0.7-0.3,0.5,1c0.4-0.1,0.1-1,0.3-1.4c-0.3-0.7-0.6-0.1-0.8-0.4c0.1,0,0.1-0.3,0.2-0.6l-0.3,0.3 c0-0.3,0-0.5,0-0.9l0.1,0.5c0.1-0.6,0.6-1.5,0.4-2.5c0.1,0.3,0.4,0.8,0.6,0.2c-0.2-1.1,0.1-0.3,0.4-0.9c0-1.1-0.6-0.2-0.3-1.9 c0-0.2-0.2,0-0.3,0.2c0.2-1.1,0-1.7,0.3-2.8c-0.1,0.5-0.2,0.8-0.4,0.2c0.2,0.3,0.3-0.9,0.5-1.3l-0.2-0.1c0.2-0.3,0.2,0,0.3,0.3 c-0.1,0-0.1,0.1-0.1,0.3c0.1,0.5,0.7,0.4,0.8-0.5c-0.1-0.9-0.5-0.8-0.7-0.6c0.2-1.2-0.7-1.2-0.4-2.3c0-0.3,0.7-1.1,0.8-2 c-0.3-0.5-0.3,1-0.6,0.5c1-1.4-0.4-2.9,0.2-4.7l0.4,0.3c0-0.4,0.1-0.8,0.1-1.3l-0.3,0.6c-0.1-0.4,0.1-1.4,0.4-1.1 c-0.3-1-0.1-1.2,0.1-2.1c-0.1,1-0.1,0,0.1,0.7c0.3-1,0.1-1.1,0.1-1.8c0.2,0.1,0.4-0.2,0.4-0.5c-0.3-0.7-0.1-1.8-0.2-2.7l0.1,0 c-0.1-1.5,0.6-3.2,0.3-4.7l0,0c0,0,0,0,0,0c0,0,0-0.1,0-0.1l0,0.1c-0.5,0.5-0.2-1.2-0.4-1.7c0.1-0.1,0.3-0.1,0.3-0.4 c-0.4,0-0.2-0.6-0.3-0.8c0.2-0.5,0.5,0.1,0.5-0.8c0-0.4-0.2-0.4-0.4-0.4c0.2-0.2,0.4-0.7,0.5-1.2c0.1,0.2-0.1,0.4,0,0.5 c0.2,0.1,0.1-0.3,0.4-0.2c0.1-0.4-0.4-0.2-0.2-0.7l0.3,0.5c0.1-0.2,0-0.5,0-0.6c0.1,0.3,0.4,0.3,0.6,0.3c-0.2-1.2-0.8-0.3-1.2-0.4 c0.3-1.1,0-2.1,0-3l0.4,0.2c0-0.4-0.1-0.7-0.3-0.8l0-0.7c0.1,0.4,0.2,0.5,0.5,0.6c-0.1-0.7,0.1-1.7-0.4-1.9l0.1,0 c0.2-1,0.5-3,0.6-2.9c-0.1-1,0.3-2.3-0.2-2.4c-0.1-0.6,0.7-1.6,0.1-2c0.4-0.7,0.1,0,0.5,0.2c0.4-0.7-0.4-1.5,0.3-1.7 c-0.2-0.9-0.2,0.2-0.5-0.1c0.7-0.1,0.2-1.6,0.6-2.4c-0.2-0.4-0.2,0.4-0.4-0.3c0.2,0.1,0.2-0.3,0.2-0.4l-0.4-0.2l1.1-0.7 c-0.4-1.2-0.7,0.2-0.8-1.4l0,0.1c0.5-0.4-0.2-1.2,0.2-2.3c-0.1,0.4,0.2,0.2,0.3,0.3l-0.1-0.7c0,0.1,0,0.1,0.1,0 c0.3-0.5-0.1-0.5,0.2-1.1c0.1,0.5,0.4,0.3,0.5,0.2l-0.4-1l0.5,0.4c0.1-0.9-0.7-2.3,0.1-2.8l0.1,0.5c0.1,0,0.6-0.3,0.3-0.9 c-0.1-0.2-0.4-0.3-0.4-0.1l0.2-0.5c0.3,0.2,0.4,1.4,0.4,2.1c-0.1-0.2-0.2-0.8-0.5-0.6c0.1,0.7,0.3,1.3,0.4,1.9 c-0.1-0.3-0.4-0.4-0.5-0.6c-0.2,0.7,0.2,0.5,0.2,1.1c-0.2,0.2-0.3,0.3-0.4,0.2c0.1,0.7,0.1,1.2-0.1,1.9c0,0-0.2-0.8-0.5-0.4 c0.1,1.3,0.6,1.6,0.7,3c0.5,1.6-0.6,3.1-0.2,4.2c0.2,0.1,0.3-0.8,0.4-0.1c-0.3-0.1-0.2,0.4-0.4,0.4c0.4,0.8-0.2,1.1,0.1,1.7 c-0.1-0.1-0.3,0.3-0.4,0.6c-0.4-0.1-0.2,0.9-0.7-0.3c0.5,1.2-0.3,2.1,0.6,3l0.1-0.3l-0.3,1.2l0,0c-0.1,0.5,0,0.6-0.5,1.3 c-0.1-0.3-0.1-0.7-0.1-1c-0.4,0.6,0.2,1.3,0.2,2c-0.3,0-0.1-0.7-0.4-0.5c-0.1,0.5,0.1,0.9,0.2,1.4l-0.2-0.1 c-0.4,1.2,0.8,0.5,0.2,1.4c0.1,0,0.2,0.1,0.3,0c-0.2,0.3-0.5,1.1-0.7,0.3c0,0.4,0.1,0.9,0.3,1.2c0.3-0.3,0.1-0.4,0.5-0.6l0.1,1.7 c0,0.2-0.2-0.2-0.1-0.4c-1,2,0.5,4.1-0.7,6.4c0.3-0.2,0.2,0.2,0.4,0.4c-0.1,0.7-0.1,1.9-0.3,2.5l-0.2-0.2c0.1,1.8,0.4,3,0.2,4.2 c0.1,0.1-0.3,0-0.3-0.2c0.3,0.9-0.8,1.9-0.1,2.1l0.1-0.3c-0.2,1.7,0.2,3.6,0.2,5.4c-0.4,0.4,0-1-0.5-0.7c-0.2,1.2,0.1,2.5-0.1,3.8 c0-0.2-0.1-0.2-0.1-0.3c-0.3,1.3,0.4-0.1,0.3,1c-0.2-0.1-0.3,0-0.4,0.3l0.3,0.3c-0.1,0.1-0.3,0-0.4-0.1c0.4,0.5,0.1,2,0.5,2.4 c-0.1,0.1-0.5-0.2-0.7-0.1c-0.2,0.6,0,1,0.1,1.4l0,0c-0.3,0.4-0.3,1.4-0.4,1.2c-0.2,1.1,0.2,0.2,0.5,1l0.2-0.8l0,1.5l-0.2-0.6 c-0.2,0.7,0.1,1.4,0.1,2.2l0.3-0.4l0.1,0.9c-0.5,0.1-0.2,1.2-0.7,0.6c-0.3,1.7,0.3,2.8,0.3,4.3c0-0.3-0.1-0.2-0.2-0.2 c-0.1,0.9,0.1,1.4,0.3,2c-0.2-0.1-0.2-0.3-0.3-0.3c0,1.1,0.3,0.7,0.4,1.8c-0.2-0.3-0.3-0.2-0.4,0.1c0.2,0,0.3,0.2,0.4,0.5 c-1-0.9-0.5,1.3-1.2,0.7c0.2,0.1,0.6,1.9,1,1.4l-0.1-0.3c0.3,0,0.2,0.4,0.2,0.7c0-0.2-0.1-0.4-0.2-0.4c0.3,1.7-0.1,3.4,0.1,5.3 c-0.1-0.2-0.3-0.9-0.4-0.4c-0.2,1.9,0.3,2.9,0.5,4.8c-0.6,0.1,0-2-0.6-2.1c0.1,2,0.2,4,0.5,6.2c-1,0.7,0.3,2.2-0.5,3.5 c0.3-0.1,0.4,0.6,0.4,1.3c-0.2-0.3-0.3,0.5-0.5,0.3c0.3,0.7,0.3,2.5-0.3,2.4c0.6,0.2-0.1,1.4,0.3,1.9c-0.2,0.8,0.1,1.8-0.1,2.8 c0.4-0.4,0.1,1,0.3,1.4c0-0.1-0.1-0.3-0.1-0.3c-0.3,0.3,0.3,1.2,0,1.8c-0.1,0.3-0.3-0.1-0.4,0.3c0.3,0,0.5,1.6,0.2,2.1 c0-0.3-0.1-0.3-0.2-0.4c0.4,2.7-0.2,5.6,0.2,8.4l-0.4-0.5c-0.6,1.7,0.7,1.2,0.6,2.5c-0.3,3.8-1,7.7-0.8,11.4 c0.1,0.3,0.2-0.2,0.3-0.2c-0.1,0.3-0.4,0.4-0.2,0.8l0.2-0.1c-0.7,1.7,0.4,4.9-0.7,6.1c0.4,1.6-0.3,2.7,0.2,4.7 c-0.2,0.6-0.4-0.7-0.5,0.1l0.3,1.8l0-0.1c0.7,1.8-0.8,4.6-0.3,6.8l0-0.1c-0.2-0.1-0.4,0.4-0.3,0.8c0.1,0.1,0.2-0.1,0.3-0.3 c0.3,2,0.3,2.4,0.3,3.9c-0.2-0.7-0.2,0.6-0.6,0.7c0.2,0.4,0.4-0.2,0.5,0.7c0,1.3-0.3,2.5-0.4,3.5c0.3,0.4,0.2,1,0.6,1 c0,1.5,0.2,2.3,0.2,4l-0.1,0c0.5,0.5-0.2,1.5,0,1.9c-0.2,0-0.2-0.2-0.4-0.2l0.2,0.8c-0.1-0.4-0.6-0.6-0.6,0.1 c0.3,0.7,0.2-0.2,0.5,0.1l-0.4,0.2c0,0.5,0.5,0.7,0.7,0c0,1.8,0.2,3.5,0.1,5.1l-0.3-0.2c0.1,0.9,0.1,2.1-0.2,2.6 c0.1,0,0.2,0.2,0.3,0.1c0.4,1-0.5,0.1,0,1.3c-0.1-0.3-0.2-0.6-0.3-0.7l0.4,2.1c-0.2,0-0.7,1.3-0.5,2.2c0.1,0,0.3-0.2,0.3-0.5 l0.1,0.6l-0.5,0.4l0.4,0.8l-0.4,0c0.1,0.6,0.6,0.9,0.6,1.4c-0.3,1.9-0.4,1.5-0.8,2.8c0.8,0.1,0,2.1,0.6,2.5 c-0.6,1.8-0.2,4.4-0.4,6.7l-0.1-0.2c-0.4,1,0.6,1.1,0.5,2.2l-0.1-0.3c-0.4,1.4,0,3.8,0.4,5.1c-0.1-0.3-0.4-0.1-0.3,0.3 c0.2,0.4,0.6-0.4,0.4,0.4c-0.1-0.2-0.3,0-0.3,0.1l0.4,0.7c-0.3,1.9-0.5,4.1-0.2,6.1c-0.1,0.4-0.3,0.1-0.4,0c0.1,1.6,0.5,3.1,0.6,4.5 l-0.5,0.2c0,0.7,0.7,0.4,0.3,1.3c-0.1,0.2,0-0.6-0.2-0.8c-0.3,1.4,0.5,0.8,0.4,2.1l-0.5-0.3c-0.3,1,0.3,1.2,0.6,1.5 c0.6,1.4-1,1-0.5,3c0.3,0.3,0.4-0.1,0.6,0.2c-0.1,1.4,0.3,1.5,0.2,2.9c-0.8,0.7,0-0.7-0.7,0.1l0.2-1c-0.4,0.9-0.1-0.8-0.6-0.7 c-0.1,0.7,0.3,1.7,0.5,2.6c-0.3,0-0.1-1-0.5-0.6l0.2,0.4c-0.1-0.1-0.2-0.1-0.2-0.4c-0.3,0.2,0,0.5,0,1c0.2,0,0.4,0,0.7-0.1 c0,0-0.1,0.1-0.1,0.1c0.5,0.9,0.2,2.4,0.6,3.1c-0.1-0.1-0.1,0-0.2,0c0,0.5,0.5,1.1,0.6,1.8c-0.2,0.4-0.8-0.2-0.6,0.9 c0.3,0.2,0.8-0.3,0.8,0.6C445.3,268.1,445,267.2,444.8,267.7z M443.7,246.2c0-0.1,0-0.3,0-0.5c0,0,0,0,0,0 C443.7,245.9,443.7,246.1,443.7,246.2z M443.4,244.4c0,0.2,0.1,0.3,0.3,0.2c0-0.3,0-0.6,0-0.8C443.5,244.1,443.5,244.5,443.4,244.4z M441.3,248C441.3,248,441.2,247.9,441.3,248c-0.1-0.3-0.1-0.4-0.1-0.6c-0.1,0-0.1,0.1-0.1,0.4C441.1,247.9,441.2,247.9,441.3,248z M441.6,248.4c0,0,0,0.1,0,0.1c0-0.1,0.1-0.1,0.1-0.2c0,0-0.1-0.1-0.1-0.1C441.6,248.3,441.6,248.3,441.6,248.4z M445.2,77.7 L445.2,77.7C445.3,77.7,445.3,77.7,445.2,77.7C445.3,77.7,445.3,77.7,445.2,77.7z M444.1,217.8L444.1,217.8l0,0.2L444.1,217.8z M447.1,67.4c0,0,0.1-0.1,0.1-0.1C447.2,67.3,447.2,67.4,447.1,67.4z M447.5,63l0.2-0.6C447.5,62.6,447.5,62.8,447.5,63z M447.8,59.5c-0.1,0-0.1-0.1-0.2-0.1l0,0L447.8,59.5z M445.6,114.2c0,0,0,0.1,0,0.1C445.7,114.7,445.7,114.5,445.6,114.2z M445.4,97.9c0.1,0.2,0.1,0.3,0.2,0.5C445.6,98.2,445.6,97.9,445.4,97.9z M445.4,132.4C445.4,132.4,445.4,132.4,445.4,132.4 c0,0,0,0.1,0,0.1L445.4,132.4z M445.5,99.2c0.1-0.3,0.1-0.5,0-0.8C445.5,98.7,445.5,99,445.5,99.2z M449,44.7l0-0.2c0,0,0,0-0.1,0 L449,44.7z M448.9,44.5l0-0.2C448.9,44.4,448.9,44.4,448.9,44.5z M448.8,43.9l0.1,0.4C448.9,44.2,448.9,44,448.8,43.9z M448.5,49.2 l0.1,0.1C448.6,49.2,448.5,49.2,448.5,49.2z M448.4,50.6c0.1-0.3,0.3-0.8,0.3-1.3l-0.1,0C448.8,49.5,448.2,50.3,448.4,50.6z M446.4,56.2l0.2-1.2c-0.2,0.2-0.4,0.4-0.4-0.1C445.6,56.4,446.5,54.7,446.4,56.2z M445.9,59.8c0-0.6-0.2,0-0.3,0 C445.8,60.2,445.8,60.3,445.9,59.8z M444.5,85.8l-0.3-0.1C444.2,86.2,444.3,85.7,444.5,85.8z M446.1,90.9l0.2-0.5l-0.3-0.2 L446.1,90.9z M443.5,93.7l0-0.2l0.1,0.8L443.5,93.7z M442,137.4l0.4-0.1C442.3,136.9,441.9,136.8,442,137.4z M441.9,156.3 c-0.2,0.2-0.4,0.7-0.2,1.1C441.8,156.9,442,156.5,441.9,156.3z M440.7,212.8l-0.1-0.4l0.1,0.7L440.7,212.8z M449.3,0.1 c-0.1,0-0.4-0.1-0.3-0.1l0.4,0.2L449.3,0.1z M448.4,0c0.2,0.1,0.6,0.2,0.9,0.3c-0.4-0.2-0.2-0.1-0.7-0.3c0,0,0.1,0,0.3,0.1 c-0.1,0,0.1,0-0.2-0.1c-0.3-0.1-0.4-0.1-0.1,0.1C448.6,0.1,448.5,0,448.4,0z M447.1,1.7L447.1,1.7C447.2,1.7,447.1,1.7,447.1,1.7z M446.5,2.9C446.5,2.8,446.5,2.8,446.5,2.9C446.5,2.8,446.5,2.8,446.5,2.9z M446,2.9C446,2.9,446,2.9,446,2.9 C446,2.9,446,2.9,446,2.9z M447.1,1.7l-0.1,0C447.1,1.8,447.1,1.7,447.1,1.7z M449.4,0.6c0,0-0.1,0-0.1-0.1 C449.3,0.6,449.3,0.6,449.4,0.6C449.3,0.6,449.3,0.6,449.4,0.6z M447,1.1L447,1.1c0,0-0.1-0.1-0.2-0.1L447,1.1z M447,0.7 c0,0,0.3,0.1,0.5,0.2c-0.1-0.1-0.2-0.1-0.2-0.1C447.2,0.7,447.1,0.7,447,0.7z M447.9,0.2L447.9,0.2C447.8,0.2,447.9,0.2,447.9,0.2z M446.8,1.4c-0.1,0-0.1,0-0.1,0C446.7,1.3,446.8,1.4,446.8,1.4z M445.8,13.5C445.8,13.5,445.8,13.5,445.8,13.5 C445.8,13.5,445.8,13.6,445.8,13.5z M443.9,13.4L443.9,13.4c-0.1,0-0.2-0.1-0.2-0.1L443.9,13.4z M445.4,3.1 C445.4,3.1,445.4,3.1,445.4,3.1C445.4,3.1,445.4,3.1,445.4,3.1z M444.6,6.6c0.3,0.1,0.4,0.2,0.8,0.3C445.2,6.9,444.8,6.7,444.6,6.6z M449.3,0.6C449.3,0.6,449.3,0.6,449.3,0.6C449.3,0.6,449.3,0.6,449.3,0.6z M445.3,6.9C445.3,6.9,445.3,6.9,445.3,6.9L445.3,6.9 C445.4,6.9,445.3,6.9,445.3,6.9z M445.3,4.1c0.1,0,0.1,0,0.2,0C445.5,4.1,445.4,4.1,445.3,4.1z M446.1,3.6L446.1,3.6 C446,3.6,446.1,3.6,446.1,3.6z M445.7,4.6C445.7,4.6,445.7,4.5,445.7,4.6C445.7,4.6,445.7,4.6,445.7,4.6 C445.7,4.6,445.7,4.6,445.7,4.6z M445.6,4.9C445.7,4.9,445.7,4.9,445.6,4.9C445.7,4.9,445.7,4.9,445.6,4.9L445.6,4.9z M446,12.4 c-0.1,0-0.2-0.1-0.3-0.1C445.9,12.4,446,12.5,446,12.4z M449.2,0.6c0.1,0,0.1,0,0.2,0.1c0,0,0,0,0,0C449.2,0.6,449.2,0.6,449.2,0.6z M448.6,5.5L448.6,5.5C448.6,5.5,448.6,5.5,448.6,5.5z M446.8,9.9L446.8,9.9C446.8,10,446.8,10,446.8,9.9z M448.5,5.7 c-0.1,0-0.2,0-0.3,0c0,0,0,0,0.1,0L448.5,5.7z M445.7,12.4C445.7,12.4,445.7,12.4,445.7,12.4C445.7,12.4,445.7,12.4,445.7,12.4z M446,12.8c0.2,0.1-0.1,0-0.4-0.1c0.4,0.2-0.2,0,0.5,0.2c-0.4-0.1-0.3-0.1-0.6-0.1c0.3,0.1,0.3,0.2,0.7,0.3 c-0.5-0.1-0.6-0.2-1.1-0.4c0.3,0.1,0.4,0.2,0.9,0.4c-0.1,0-0.3-0.1-0.4,0c0,0-0.1,0-0.1-0.1c0.3,0.2,0,0.2,0.5,0.4 c-0.7-0.2-0.1,0.1-0.8-0.2c0,0,0.3,0.2,0.4,0.2c-0.6-0.2-0.2,0-0.5-0.1c0.3,0.1,0.2,0.1,0.4,0.2c-0.1,0-0.2-0.1-0.3-0.1 c0.2,0.1,0,0-0.3,0c0.2,0.1,0.4,0.1,0.7,0.2c-0.1,0-0.4-0.1-0.6-0.2l0.6,0.2c-0.1,0-0.2,0-0.3-0.1c0.2,0.1,0.4,0.2,0.1,0.1l0-0.1 l-0.3-0.1l0.3,0.2c-0.4-0.1-1-0.3-1.6-0.5l-0.1-0.1c-0.2-0.1-0.3-0.1-0.3-0.1c-0.1,0-0.6-0.3-0.7-0.3c0.1-0.1,0.7,0.2,0.9,0.2 l-0.3-0.2l0.2,0.1c0.1,0-0.1,0-0.1-0.1c0.3,0.1,0.1,0,0.2-0.1l-0.3-0.1c-0.6-0.3,0.7,0.1,0.4-0.1l-0.4-0.2l0.4,0.1 c-0.2-0.1-0.5-0.2-0.4-0.2c0.7,0,0-0.4,0.5-0.5c-0.1,0-0.1,0-0.2,0c1,0.2-0.9-0.6-0.1-0.5l0.1,0.1c-0.1-0.1,0.1,0.1,0.4,0.1 c-0.5-0.2-0.3-0.2-0.5-0.3c0.1,0,0.1,0,0.1,0.1c0.1,0,0.4,0.1,0.3,0.1c-0.7-0.3-0.6-0.3-0.7-0.5c0.3,0.1,0.6,0.1,1.1,0.2 c-0.1,0-0.3-0.1-0.6-0.2c0.2,0,0.1,0-0.1-0.1c0,0,0,0,0,0.1c0,0,0,0,0,0c0,0,0,0,0,0c0,0,0,0,0.1,0c-0.3-0.1-0.2-0.1-0.6-0.2 c0,0-0.1-0.1,0.2,0c0,0,0.1,0,0.1,0c-0.1,0-0.1,0,0,0l0,0c0.1,0,0.1,0,0.1,0c0.2,0-0.3-0.2-0.6-0.4c0.4,0.2,0.5,0.2,0.8,0.3 c0,0-0.1,0-0.1,0.1c0,0,0.1,0,0.2,0.1c0.4,0.1-0.3-0.2,0-0.2c0,0,0.1,0.1,0.2,0.1c0.1,0-0.2-0.1-0.3-0.2c0.3,0.1,0.6,0.1,0.4,0 c-0.3-0.1-0.4-0.1-0.3-0.2l0.2,0.1c0.2,0-0.3-0.2-0.1-0.1c-0.1,0,0.1,0.1,0.2,0.1c-0.1-0.1-0.2-0.1-0.7-0.3l0.4,0.1 c-0.2-0.1-0.6-0.3-0.1-0.2c-0.7-0.2-0.4-0.2-0.3-0.3c0,0,0.2,0.1,0.3,0.1c-0.5-0.2,0-0.2,0.1-0.3l0.5,0.2c0-0.1-1.1-0.4-1-0.5 l0.3,0.1c-0.1-0.1,0-0.1,0.1-0.2l0.4,0.1c-0.2-0.1-0.1-0.1-0.3-0.2c0.9,0.2-0.4-0.4,0.6-0.2l-0.7-0.2c0,0-0.1-0.1,0.4,0l0,0 c0.5,0.2,0,0,0.1,0c-0.1,0-0.4-0.2-0.5-0.2c0.4,0,0.1-0.3,0.7-0.1c-0.2-0.2-0.7-0.4-0.6-0.5l0.1,0c0.1,0,0.3,0,0.9,0.2 c-0.1-0.1-0.9-0.4-0.6-0.5l0.2,0.1c0.1,0-0.1-0.1-0.2-0.2c0,0,0.1,0,0.2,0.1c0.2,0-0.1-0.1-0.1-0.1l0.2,0.1c0.4,0-0.3-0.3-0.2-0.4 c0.1,0,0.3,0.1,0.4,0.1c-0.6-0.2-0.4-0.3-0.6-0.4l0.2,0.1c-0.4-0.2,0.7,0.1,0.3-0.1l-0.4-0.1c0.1,0,0-0.1-0.3-0.2 c0.2,0,0.5,0.2,0.6,0.1c0.2,0.1,0.1,0.1,0.3,0.1l0.5,0.1c0.1,0,0.1,0,0,0c-0.8-0.2,0-0.1-0.8-0.3c0-0.1,0.5-0.1,0.2-0.3 c0.8,0.2,0.1-0.2,1.1,0.1c0-0.1-0.2-0.2-0.5-0.3c-0.1,0,0,0,0.1,0.1c-0.2-0.1-0.3-0.2-0.3-0.2c0.2,0.1,0.4,0.2,0.7,0.4 c-0.1-0.1-0.4-0.3-0.5-0.3l0.5,0.2c-0.4-0.2,0.4,0.1-0.1-0.1l-0.2,0c0.1-0.1-0.4-0.2-0.5-0.3l0.2,0.1c0.1,0-0.4-0.2,0.1-0.1l0,0.1 c0.4,0.1,0.5,0.1,0.7,0.2c-0.1-0.1-0.6-0.2-0.6-0.2c0.3,0.1,0.2,0.1,0.5,0.2c-0.1-0.1-0.2-0.2-0.6-0.4c0.1,0,0.1,0,0.1,0 c0.1,0-0.5-0.3-0.2-0.2l0,0c0.5,0.1-0.4-0.3,0.4,0c0.2,0,0,0,0.4,0.1c0.3,0-0.7-0.3-0.4-0.3c0,0,0,0,0.1,0c0-0.1-0.1-0.1-0.1-0.2 c0.7,0.2-0.1-0.2,0.7-0.1c-0.3-0.1-0.3-0.1-0.4-0.2c0,0,0.1,0,0.1,0c0,0-0.2-0.1-0.3-0.2c0.2,0.1-0.2-0.2-0.1-0.1 c-0.2-0.1-0.1-0.1-0.1-0.1c0.2,0.1,0.4,0.1,0.6,0.2c0.1,0-0.7-0.3-0.6-0.4l0.3,0.1c-0.5-0.2-0.3-0.2-0.5-0.2c0.2,0,0.3,0.1,0.5,0.1 c-0.1-0.1,0.2,0-0.1-0.1l-0.1,0c0.2,0-0.5-0.3-0.1-0.3l0.8,0.2c0.3,0.1-0.4-0.2,0.1-0.1c-0.3-0.1-0.2,0-0.4-0.2 c-0.1,0,0.1,0.1,0.1,0.1l-0.4-0.2l0.2,0.2c-0.3-0.1-0.2-0.1-0.5-0.2c-0.2-0.1,0.4,0.1,0.1-0.1c0.1,0,0.4,0.1,0.5,0.2 c-0.3-0.1,0.6,0.1,0.2-0.1c0.1,0,0,0,0.2,0.1c-0.1-0.1,0-0.1-0.2-0.2l-0.1,0c0,0-0.3-0.1-0.1-0.1c-0.2-0.1-0.5-0.2-0.6-0.2 c0,0,0.2,0,0.4,0.1c0-0.1-0.8-0.3-0.4-0.2c0,0,0.1,0,0.1,0c0.1,0,0.1,0,0,0c0,0.1,0.6,0.2,0.5,0.2c0.4,0.1,0.1,0,0.3,0 c-0.3-0.1-0.6-0.2-0.8-0.3c0.1,0,0.1,0,0.2,0L445.4,3c0,0,0,0-0.1-0.1l0.1,0.1c0.1,0,0.6,0.1,0.3-0.1c0.1,0.1,0.4,0.2,0.5,0.2 c-0.2-0.1,0.1,0,0.4,0.1c0-0.1-0.5-0.2-0.3-0.2c0,0-0.2-0.1-0.3-0.1c0.2,0,0-0.1,0.2-0.1c-0.1,0-0.2,0-0.3-0.1 c0.2,0.1,0.2,0,0.4,0.1l-0.2-0.1c0.2,0,0.2,0.1,0.3,0.1c-0.1,0-0.1,0-0.1,0c0.1,0.1,0.7,0.2,0.8,0.2c-0.1-0.1-0.5-0.2-0.7-0.3 c0.2,0-0.7-0.3-0.4-0.3c0,0,0.6,0.1,0.7,0.1c-0.3-0.1-0.3,0-0.6-0.2c0.9,0.2-0.5-0.3,0.1-0.3l0.4,0.2c0,0,0.1,0,0-0.1l-0.2,0 c-0.1-0.1,0-0.1,0.3,0c-0.3-0.2-0.1-0.1,0-0.1c-0.1,0-0.1,0,0.1,0.1c0.2,0,0.1,0,0-0.1c0.1,0.1,0.4,0.1,0.4,0.1 C447,2.1,447.1,2,447,2l0.1,0c-0.1-0.1,0.5,0,0.1-0.2l0,0c0,0,0,0,0,0c0,0,0,0,0,0l0,0c-0.4-0.1-0.3-0.2-0.4-0.2 c0.1,0,0.3,0.1,0.3,0.1c-0.4-0.1-0.2-0.1-0.4-0.2c0.1,0,0.5,0.2,0.5,0.1c0,0-0.2-0.1-0.4-0.1c0.2,0.1,0.4,0.1,0.4,0.1c0.1,0,0,0,0,0 c0.2,0.1,0.1,0,0.4,0.1c0,0-0.4-0.1-0.2-0.1l0.3,0.1c0.1,0,0,0-0.1-0.1c0.1,0,0.4,0.1,0.6,0.2c-0.2-0.1-0.8-0.3-1.1-0.4 c0.3,0-0.1-0.2-0.1-0.2l0.3,0.1c0,0-0.1-0.1-0.3-0.1l0,0c0.1,0.1,0.2,0.1,0.5,0.2c-0.1-0.1,0-0.1-0.4-0.3l0.1,0c0.2,0,0.3-0.1,0.5,0 c-0.1-0.1,0.2-0.1-0.3-0.2c-0.1-0.1,0.6,0.1,0.1-0.1c0.3,0.1,0.1,0,0.5,0.2c0.3,0.1-0.5-0.2,0.2,0c-0.2-0.1-0.1,0-0.4-0.1 c0.6,0.2,0.1-0.1,0.5,0c-0.2-0.1-0.2,0-0.4-0.2c0.2,0.1,0.2,0,0.2,0l-0.4-0.1l1,0.3c-0.4-0.2-0.7-0.2-0.8-0.4l0,0 c0.4,0.1-0.3-0.2,0-0.1c-0.1,0,0.2,0.1,0.3,0.1l-0.1-0.1c0,0,0,0,0.1,0c0.3,0.1-0.2-0.1,0.1,0c0.1,0.1,0.4,0.1,0.5,0.2l-0.4-0.2 l0.5,0.2c0.1,0-0.8-0.4,0-0.2l0.1,0.1c0.1,0,0.5,0.2,0.3,0c-0.1,0-0.4-0.1-0.4-0.1l0.1,0c0.3,0.1,0.4,0.2,0.5,0.3 c-0.1-0.1-0.2-0.1-0.5-0.2c0.1,0.1,0.3,0.2,0.4,0.3c-0.1-0.1-0.4-0.1-0.5-0.2c-0.2,0,0.2,0.1,0.3,0.1c-0.1,0-0.2-0.1-0.3-0.1 c0.1,0.1,0.2,0.1,0,0.1c0,0-0.2-0.1-0.4-0.2c0.2,0.1,0.6,0.3,0.8,0.4c0.6,0.3-0.4,0.1,0,0.3c0.2,0.1,0.3,0,0.4,0.1 c-0.3-0.1-0.2,0-0.3-0.1c0.4,0.2-0.1,0,0.2,0.2c-0.1,0-0.2-0.1-0.3-0.1c-0.4-0.1-0.2,0-0.7-0.2c0.6,0.3-0.2,0.1,0.7,0.4l0.1,0 l-0.2,0l0,0c-0.1,0,0,0-0.4,0c-0.1,0-0.1-0.1-0.2-0.1c-0.4-0.1,0.3,0.2,0.3,0.2c-0.3-0.1-0.1-0.1-0.4-0.2c-0.1,0,0.1,0.1,0.2,0.2 l-0.2-0.1c-0.4,0,0.8,0.3,0.2,0.2c0.1,0,0.2,0.1,0.3,0.1c-0.2,0-0.5-0.1-0.6-0.2c0,0,0.1,0.1,0.3,0.2c0.2,0.1,0.1,0,0.4,0.1l0.1,0.1 c0,0-0.1-0.1-0.1-0.1c-0.9-0.2,0.6,0.5-0.4,0.3c0.3,0.1,0.2,0.1,0.4,0.2c-0.1,0,0,0.1-0.2,0.1l-0.2-0.1c0.2,0.2,0.4,0.3,0.3,0.4 c0.1,0-0.3-0.1-0.3-0.1c0.3,0.2-0.7-0.1-0.1,0.1l0.1,0c-0.1,0.1,0.3,0.3,0.4,0.4c-0.4-0.1,0-0.1-0.5-0.2c-0.2,0,0.1,0.2,0,0.2 c0,0-0.1,0-0.1-0.1c-0.3,0,0.4,0.1,0.3,0.2C448.1,3,448.1,3,448,3l0.3,0.1c-0.1,0-0.3-0.1-0.4-0.1c0.4,0.2,0.1,0.2,0.5,0.3 c-0.1,0-0.5-0.2-0.6-0.2c-0.1,0,0,0.1,0.2,0.1c0,0,0,0,0,0c-0.3-0.1-0.3,0-0.3,0c-0.2,0,0.2,0.1,0.5,0.2l0.2,0l0.1,0.1l-0.2-0.1 c-0.2,0,0.2,0.1,0.1,0.2l0.2,0.1l0.1,0.1c-0.5-0.2-0.1,0-0.7-0.2c-0.3,0,0.3,0.3,0.3,0.4c0,0-0.1,0-0.2-0.1c-0.1,0,0.1,0.1,0.4,0.2 C448.4,4,448.3,4,448.2,4c0,0.1,0.3,0.1,0.4,0.2c-0.2-0.1-0.3-0.1-0.4-0.1c0.2,0.1,0.3,0.1,0.3,0.1c-0.9-0.4-0.4-0.1-1.2-0.3 c0.2,0.1,0.6,0.3,1,0.4l-0.1,0c0.3,0.1,0.2,0.1,0.2,0.1c0,0-0.1-0.1-0.2-0.1c0.3,0.2,0,0.2,0.2,0.4c-0.1,0-0.3-0.1-0.3-0.1 c-0.2,0.1,0.3,0.3,0.5,0.5c-0.6-0.2-0.1-0.1-0.6-0.3c0.1,0.2,0.3,0.3,0.5,0.6c-0.9-0.2,0.3,0.2-0.4,0.1c0.3,0.1,0.4,0.2,0.4,0.2 c-0.2-0.1-0.3-0.1-0.4-0.1c0.3,0.1,0.3,0.3-0.2,0.1c0.6,0.2-0.1,0.1,0.3,0.2c-0.2,0,0.1,0.1-0.1,0.1c0.4,0.1,0.2,0.1,0.3,0.2 c0,0-0.1,0-0.1-0.1c-0.3-0.1,0.2,0.2,0.1,0.1c-0.1,0-0.3-0.1-0.4-0.1c0.3,0.1,0.5,0.3,0.2,0.2c0,0-0.1-0.1-0.2-0.1 c0.4,0.3-0.2,0.3,0.3,0.6l-0.4-0.2c-0.6-0.1,0.7,0.3,0.6,0.3c-0.3,0.1-1,0.2-0.7,0.4c0.1,0.1,0.2,0,0.3,0.1c-0.1,0-0.4-0.1-0.2,0 l0.2,0.1c-0.6-0.1,0.3,0.4-0.7,0.2c0.3,0.2-0.3,0.1,0.2,0.3c-0.2,0-0.4-0.2-0.5-0.1l0.3,0.2l0,0c0.7,0.3-0.8,0-0.4,0.3l0,0 c-0.2-0.1-0.4-0.1-0.3-0.1c0.1,0,0.2,0,0.3,0.1c0.2,0.2,0.2,0.2,0.3,0.3c-0.2-0.1-0.2,0-0.5-0.1c0.2,0.1,0.3,0.1,0.5,0.2 c0,0.1-0.3,0.1-0.4,0.1c0.3,0.1,0.2,0.1,0.6,0.2c0,0.1,0.1,0.2,0.1,0.3l-0.1,0c0.4,0.2-0.3,0,0,0.1c-0.2-0.1-0.2-0.1-0.3-0.1 l0.1,0.1c-0.1-0.1-0.6-0.2-0.6-0.2c0.3,0.1,0.2,0.1,0.5,0.2l-0.4-0.1c0,0,0.5,0.2,0.6,0.2c0,0.1,0.1,0.3,0,0.3L447,9.6 c0.1,0.1,0.1,0.1-0.2,0.1c0.1,0,0.2,0.1,0.3,0.1c0.4,0.2-0.5-0.1-0.1,0.1c-0.1,0-0.1-0.1-0.3-0.1l0.3,0.2c-0.2-0.1-0.7-0.1-0.5,0 c0.1,0,0.3,0.1,0.3,0.1l0.1,0.1l-0.5-0.1l0.4,0.2l-0.4-0.1c0.1,0.1,0.6,0.2,0.5,0.3c-0.3,0-0.4,0-0.8-0.1c0.8,0.3-0.1,0.1,0.5,0.3 c-0.6-0.1-0.3,0.2-0.5,0.2l-0.1,0c-0.4-0.1,0.6,0.2,0.4,0.3l-0.1-0.1c-0.4-0.1-0.1,0.2,0.2,0.4c-0.1-0.1-0.4-0.1-0.3-0.1 c0.1,0.1,0.5,0.2,0.4,0.1c-0.1,0-0.2-0.1-0.2-0.1l0.4,0.2c-0.3,0-0.6,0.1-0.4,0.2c-0.1,0-0.3-0.1-0.4-0.1c0.1,0.1,0.3,0.3,0.4,0.4 l-0.4-0.1c0,0,0.7,0.2,0.3,0.2c-0.1,0,0,0-0.2-0.1c-0.4,0,0.4,0.2,0.3,0.2l-0.5-0.2c-0.3,0,0.2,0.1,0.5,0.3c0.6,0.3-1-0.3-0.6,0 c0.2,0.1,0.4,0.1,0.6,0.2c-0.2,0,0.2,0.2,0,0.2c-0.7-0.2,0,0-0.7-0.2l0.2,0c-0.4-0.1-0.1-0.1-0.5-0.2c-0.1,0,0.2,0.2,0.3,0.3 c-0.3-0.1,0-0.1-0.5-0.2l0.1,0.1c-0.1,0-0.2-0.1-0.2-0.1c-0.3-0.1,0,0,0,0c0.2,0.1,0.4,0.1,0.7,0.2c0,0-0.1,0-0.1,0 c0.5,0.2,0.1,0.2,0.4,0.3c-0.1,0-0.1,0-0.2-0.1c0,0,0.4,0.2,0.5,0.3c-0.2-0.1-0.7-0.2-0.6-0.1c0.3,0.1,0.8,0.2,0.7,0.3 C446.4,13,446.2,12.9,446,12.8z M445.7,11.4C445.7,11.4,445.7,11.4,445.7,11.4C445.7,11.4,445.7,11.4,445.7,11.4 C445.7,11.4,445.7,11.4,445.7,11.4z M445.5,11.3c0,0,0.1,0.1,0.2,0.1c0,0,0,0,0,0C445.6,11.3,445.6,11.3,445.5,11.3z M443.4,10.8 C443.3,10.8,443.3,10.8,443.4,10.8C443.3,10.7,443.3,10.7,443.4,10.8c-0.2-0.1-0.2-0.1-0.2-0.1C443.2,10.7,443.3,10.8,443.4,10.8z M443.6,10.9C443.7,10.9,443.7,10.9,443.6,10.9c0.1,0,0.1,0,0.1,0C443.7,10.9,443.7,10.9,443.6,10.9 C443.6,10.9,443.6,10.9,443.6,10.9z M447.2,1.7L447.2,1.7C447.2,1.7,447.2,1.7,447.2,1.7C447.2,1.7,447.2,1.7,447.2,1.7z M446.9,10.1L446.9,10.1L446.9,10.1L446.9,10.1z M448.6,1.6C448.7,1.6,448.7,1.6,448.6,1.6C448.7,1.6,448.7,1.6,448.6,1.6z M448.8,1.4l0.1,0C448.8,1.4,448.8,1.4,448.8,1.4z M449,1.2c-0.1,0-0.1,0-0.2-0.1c0,0,0,0,0,0L449,1.2z M448.5,4.4 C448.5,4.4,448.5,4.4,448.5,4.4C448.6,4.4,448.5,4.4,448.5,4.4z M447.9,3.2c0.1,0,0.1,0.1,0.2,0.1C448.1,3.3,448.1,3.3,447.9,3.2z M448.6,5.5C448.6,5.5,448.6,5.5,448.6,5.5C448.6,5.5,448.6,5.5,448.6,5.5L448.6,5.5z M448.1,3.3C448.1,3.3,448.1,3.3,448.1,3.3 C448.1,3.3,448,3.3,448.1,3.3z M449.5,0.5L449.5,0.5C449.4,0.5,449.4,0.4,449.5,0.5L449.5,0.5z M449.4,0.4L449.4,0.4 C449.4,0.4,449.4,0.4,449.4,0.4z M449.3,0.4L449.3,0.4C449.4,0.4,449.4,0.4,449.3,0.4z M449.2,0.7l0.1,0 C449.3,0.7,449.3,0.7,449.2,0.7z M449.2,0.7c0,0,0.3,0,0.2,0l-0.1,0C449.5,0.8,449,0.7,449.2,0.7z M447.5,0.5l0.1,0 c-0.1,0-0.3-0.1-0.4-0.1C446.8,0.3,447.6,0.5,447.5,0.5z M447.2,0.7c-0.1-0.1-0.2-0.1-0.3-0.1C447.1,0.6,447.1,0.7,447.2,0.7z M446.8,2.1L446.4,2C446.5,2,446.6,2,446.8,2.1z M448.4,2.9l0.2,0L448.4,2.9L448.4,2.9z M446,2.3L446,2.3L446,2.3L446,2.3z M445.3,4.7l0.4,0.1C445.7,4.8,445.2,4.7,445.3,4.7z M445.4,5.9c-0.2-0.1-0.3-0.1-0.2,0C445.3,5.9,445.5,5.9,445.4,5.9z M443.7,8.8 l-0.1-0.1L443.7,8.8L443.7,8.8z" fill="#f4f1e8"/></g></svg>