<?xml version="1.0" encoding="UTF-8"?><svg xmlns="http://www.w3.org/2000/svg" xmlns:xlink="http://www.w3.org/1999/xlink" height="59.0" preserveAspectRatio="xMidYMid meet" version="1.0" viewBox="18.1 24.0 64.4 59.0" width="64.4" zoomAndPan="magnify">
 <g id="change1_1"><path d="m81.837 53.85c0.585-0.585 0.487-1.7 0-2.307l-3.087-3.087-13.8-13.386c-0.585-0.585-1.495-0.585-2.2 0-0.585 0.585-0.812 1.7 0 2.307l14.5 14.198c0.585 0.585 0.585 1.7 0 2.307l-14.81 14.686c-0.585 0.585-0.585 1.7 0 2.307 0.585 0.585 1.7 0.487 2.2 0l13.8-13.68zm-63.194 0c-0.585-0.585-0.487-1.7 0-2.307l3.087-3.087 13.8-13.386c0.585-0.585 1.495-0.585 2.2 0 0.585 0.585 0.812 1.7 0 2.307l-14.2 14.2c-0.585 0.585-0.585 1.7 0 2.307l14.5 14.686c0.585 0.585 0.585 1.7 0 2.307-0.585 0.585-1.7 0.487-2.2 0l-14.1-13.477z" fill="#3999c6"/></g>
 <g id="change2_1"><path d="m52.823 43.875l12.997-19.915h-19.495l-10.495 29.6 12.8 0.097-10.007 29.307 27.617-39.086z" fill="#fcd116"/></g>
 <g id="change3_1"><path d="m66.242 43.875h-13.42l12.998-19.915h-10.203l-10.787 24.594 12.8 0.097-19.007 34.3z" fill="#ff8c00" opacity=".3"/></g>
</svg>