<?xml version="1.0" encoding="UTF-8"?><svg xmlns="http://www.w3.org/2000/svg" xmlns:xlink="http://www.w3.org/1999/xlink" height="32.0" preserveAspectRatio="xMidYMid meet" version="1.0" viewBox="8.7 -0.0 14.5 32.0" width="14.5" zoomAndPan="magnify">
 <g id="change1_1"><path d="m15.9 0.087l0.854 1.604c0.192 0.296 0.4 0.558 0.645 0.802 0.715 0.715 1.394 1.464 2.004 2.266 1.447 1.9 2.423 4.01 3.12 6.292 0.418 1.394 0.645 2.824 0.662 4.27 0.07 4.323-1.412 8.035-4.4 11.12-0.488 0.488-1.01 0.94-1.57 1.342-0.296 0-0.436-0.227-0.558-0.436-0.227-0.383-0.366-0.82-0.436-1.255-0.105-0.523-0.174-1.046-0.14-1.586v-0.244c-0.024-0.052-0.285-24.052-0.181-24.175z" fill="#599636"/></g>
 <g id="change2_1"><path d="m15.9 0.034c-0.035-0.07-0.07-0.017-0.105 0.017 0.017 0.35-0.105 0.662-0.296 0.96-0.21 0.296-0.488 0.523-0.767 0.767-1.55 1.342-2.77 2.963-3.747 4.776-1.3 2.44-1.97 5.055-2.16 7.808-0.087 0.993 0.314 4.497 0.627 5.508 0.854 2.684 2.388 4.933 4.375 6.885 0.488 0.47 1.01 0.906 1.55 1.325 0.157 0 0.174-0.14 0.21-0.244a4.78 4.78 0 0 0 0.157 -0.68l0.35-2.614-0.194-24.508z" fill="#6cac48"/></g>
 <g id="change3_1"><path d="m16.754 28.845c0.035-0.4 0.227-0.732 0.436-1.063-0.21-0.087-0.366-0.26-0.488-0.453-0.105-0.174-0.192-0.383-0.26-0.575-0.244-0.732-0.296-1.5-0.366-2.248v-0.453c-0.087 0.07-0.105 0.662-0.105 0.75a17.37 17.37 0 0 1 -0.314 2.353c-0.052 0.314-0.087 0.627-0.28 0.906 0 0.035 0 0.07 0.017 0.122 0.314 0.924 0.4 1.865 0.453 2.824v0.35c0 0.418-0.017 0.33 0.33 0.47 0.14 0.052 0.296 0.07 0.436 0.174 0.105 0 0.122-0.087 0.122-0.157l-0.052-0.575v-1.604c-0.017-0.28 0.035-0.558 0.07-0.82z" fill="#c2bfbf"/></g>
</svg>