<?xml version="1.0" encoding="UTF-8" standalone="no"?><svg xmlns="http://www.w3.org/2000/svg" xmlns:xlink="http://www.w3.org/1999/xlink" fill="#191919" height="176.6" preserveAspectRatio="xMidYMid meet" version="1" viewBox="-2.3 -0.1 355.1 176.6" width="355.1" zoomAndPan="magnify"><g data-name="11" id="change1_1"><path d="M350.465,96.176c2.377-27.848-20.377-47.707-42.641-59.831-14.368-7.823-29.812-13.9-45.275-19.173a357.991,357.991,0,0,0-52.1-13.487Q197.6,1.372,184.6.006c-1.121-.119-1.477,1.612-.345,1.731A357.734,357.734,0,0,1,285.466,27.773c12.942,5.458,25.768,11.544,37.075,19.973,10.077,7.51,19.186,17.067,23.578,29.05,4.933,13.457,2.749,27.995-4.118,40.363-7.319,13.179-19.083,22.94-32.375,29.729-13.8,7.049-28.943,11.056-43.98,14.481a493.172,493.172,0,0,1-50.447,8.754c-32.827,3.96-66.53,5.236-99.436,1.468-31.3-3.584-62.981-12.533-88.374-31.86C16.58,131.5,6.559,120.7,2.873,107.311-1.093,92.9,4.219,78.628,13.664,67.623c9.844-11.469,22.985-19.605,36.428-26.2A267.565,267.565,0,0,1,90.751,25.49a281.419,281.419,0,0,1,86.688-11.769A276.525,276.525,0,0,1,263.868,29.3q10.053,3.555,19.793,7.915c.724.324,1.281-.778.555-1.1a273.969,273.969,0,0,0-86.5-22.556,284.587,284.587,0,0,0-88.93,5.747A272.925,272.925,0,0,0,65.829,32.792C51.946,38.459,38.106,45.031,26.1,54.111,14.826,62.641,4.381,73.91,1.033,88.033c-3.293,13.892,1.592,27.635,10.308,38.5C20.579,138.049,33.2,146.7,46.189,153.471A179.251,179.251,0,0,0,91.877,169.4c32.6,6.926,66.625,7.055,99.738,4.679a495.835,495.835,0,0,0,51.968-6.5c16.1-2.885,32.307-6.245,47.856-11.381,14.489-4.785,28.768-11.6,39.836-22.318C341.527,123.953,349.236,110.581,350.465,96.176Z"/></g></svg>